M48
;DRILL file {KiCad 5.0.0-rc2-unknown-2cb65f9~65~ubuntu17.10.1} date Sun Jun  3 21:58:37 2018
;FORMAT={-:-/ absolute / inch / decimal}
FMAT,2
INCH,TZ
T1C0.0157
T2C0.0394
T3C0.0433
T4C0.0472
T5C0.0866
%
G90
G05
M72
T1
X3.9724Y-4.315
X3.9961Y-4.1949
X4.0787Y-5.4094
X4.1339Y-4.3504
X4.1535Y-4.0325
X4.2126Y-5.2953
X4.2913Y-5.4291
X4.3504Y-4.0827
X4.3504Y-4.8819
X4.3831Y-4.4844
X4.4094Y-5.4252
X4.4114Y-4.8819
X4.4134Y-4.9823
X4.4439Y-5.1969
X4.4488Y-4.8425
X4.4606Y-3.9961
X4.4737Y-4.3247
X4.4933Y-4.5974
X4.5Y-5.1102
X4.5011Y-4.9539
X4.5049Y-5.1969
X4.5315Y-4.9252
X4.5723Y-5.1968
X4.5748Y-5.1102
X4.585Y-4.4716
X4.6242Y-4.5317
X4.6496Y-5.4252
X4.65Y-4.3
X4.6654Y-4.5276
X4.6772Y-4.0827
X4.6801Y-5.1969
X4.747Y-5.1967
X4.752Y-4.
X4.7638Y-5.4213
X4.7658Y-4.5396
X4.7717Y-5.122
X4.7835Y-4.9961
X4.81Y-5.1969
X4.8228Y-4.5709
X4.9606Y-4.0827
X4.9699Y-5.2071
X5.0039Y-5.4252
X5.0394Y-3.9961
X5.0394Y-4.5669
X5.0541Y-5.2
X5.0787Y-4.5472
X5.0787Y-4.7244
X5.1142Y-5.4252
X5.1223Y-5.196
X5.1378Y-4.7047
X5.1772Y-4.5453
X5.1807Y-4.6593
X5.1939Y-5.1969
X5.2165Y-4.8819
X5.2165Y-4.9409
X5.2214Y-4.7291
X5.2441Y-4.0866
X5.2569Y-5.1969
X5.3071Y-5.3583
X5.3182Y-3.9951
X5.3258Y-5.1923
X5.4528Y-4.9409
X5.4528Y-5.0197
X5.4685Y-5.4291
X5.5315Y-4.626
X5.5512Y-4.6654
X5.5512Y-5.1575
X5.5906Y-4.4882
X5.5906Y-4.9016
X5.5906Y-5.0394
X5.6102Y-4.626
X5.6299Y-4.6654
X5.6339Y-4.0906
X5.6496Y-4.7047
X5.7042Y-4.4572
X5.748Y-4.8228
X5.748Y-4.878
X5.748Y-4.9252
X5.752Y-5.063
X5.752Y-5.1142
X5.752Y-5.1654
X5.752Y-5.2992
X5.752Y-5.3504
X5.752Y-5.4016
X5.878Y-4.7047
X5.9055Y-4.4094
T2
X4.5276Y-4.7244
X4.5276Y-4.8244
X4.6276Y-4.7244
X4.6276Y-4.8244
X4.7276Y-4.7244
X4.7276Y-4.8244
X4.8276Y-4.7244
X4.8276Y-4.8244
X4.9276Y-4.7244
X4.9276Y-4.8244
X5.4906Y-4.0236
X5.5906Y-4.0236
X5.7976Y-4.0236
X5.8976Y-4.0236
T3
X4.035Y-4.4441
X4.035Y-5.0441
X4.135Y-4.4441
X4.135Y-4.5441
X4.135Y-5.0441
X4.235Y-4.4441
X4.235Y-5.0441
X4.335Y-4.4441
X4.335Y-4.5441
X4.335Y-5.0441
X4.435Y-4.5441
X4.435Y-4.4441
X4.435Y-5.0441
X4.535Y-4.4441
X4.535Y-4.5441
X4.535Y-5.0441
X4.635Y-4.4441
X4.635Y-5.0441
X4.735Y-4.4441
X4.735Y-5.0441
X4.835Y-4.4441
X4.835Y-5.0441
X4.935Y-4.4441
X4.935Y-5.0441
X5.035Y-4.4441
X5.035Y-5.0441
X5.135Y-4.4441
X5.135Y-5.0441
X5.235Y-4.4441
X5.235Y-5.0441
X5.335Y-4.4441
X5.335Y-4.5441
X5.335Y-4.6441
X5.335Y-4.7441
X5.335Y-4.8441
X5.335Y-4.9441
X5.335Y-5.0441
T4
X6.15Y-4.7937
X6.15Y-4.9937
X6.15Y-5.1937
X6.15Y-5.3937
X6.1024Y-4.0551
X6.1024Y-4.2551
T5
X5.4331Y-5.1969
X4.2913Y-4.2913
X5.4331Y-4.2913
X4.2913Y-5.1969
T0
M30
