G04 #@! TF.GenerationSoftware,KiCad,Pcbnew,5.0.0-rc2-unknown-2cb65f9~65~ubuntu17.10.1*
G04 #@! TF.CreationDate,2018-06-03T21:59:00-07:00*
G04 #@! TF.ProjectId,led_controller,6C65645F636F6E74726F6C6C65722E6B,rev?*
G04 #@! TF.SameCoordinates,Original*
G04 #@! TF.FileFunction,Legend,Bot*
G04 #@! TF.FilePolarity,Positive*
%FSLAX46Y46*%
G04 Gerber Fmt 4.6, Leading zero omitted, Abs format (unit mm)*
G04 Created by KiCad (PCBNEW 5.0.0-rc2-unknown-2cb65f9~65~ubuntu17.10.1) date Sun Jun  3 21:59:00 2018*
%MOMM*%
%LPD*%
G01*
G04 APERTURE LIST*
%ADD10C,0.125000*%
%ADD11C,0.120000*%
%ADD12C,0.100000*%
G04 APERTURE END LIST*
D10*
X107151190Y-116830952D02*
X107151190Y-116592857D01*
X106651190Y-116592857D01*
X106889285Y-116997619D02*
X106889285Y-117164285D01*
X107151190Y-117235714D02*
X107151190Y-116997619D01*
X106651190Y-116997619D01*
X106651190Y-117235714D01*
X107151190Y-117450000D02*
X106651190Y-117450000D01*
X106651190Y-117569047D01*
X106675000Y-117640476D01*
X106722619Y-117688095D01*
X106770238Y-117711904D01*
X106865476Y-117735714D01*
X106936904Y-117735714D01*
X107032142Y-117711904D01*
X107079761Y-117688095D01*
X107127380Y-117640476D01*
X107151190Y-117569047D01*
X107151190Y-117450000D01*
X107103571Y-118616666D02*
X107127380Y-118592857D01*
X107151190Y-118521428D01*
X107151190Y-118473809D01*
X107127380Y-118402380D01*
X107079761Y-118354761D01*
X107032142Y-118330952D01*
X106936904Y-118307142D01*
X106865476Y-118307142D01*
X106770238Y-118330952D01*
X106722619Y-118354761D01*
X106675000Y-118402380D01*
X106651190Y-118473809D01*
X106651190Y-118521428D01*
X106675000Y-118592857D01*
X106698809Y-118616666D01*
X106651190Y-118926190D02*
X106651190Y-119021428D01*
X106675000Y-119069047D01*
X106722619Y-119116666D01*
X106817857Y-119140476D01*
X106984523Y-119140476D01*
X107079761Y-119116666D01*
X107127380Y-119069047D01*
X107151190Y-119021428D01*
X107151190Y-118926190D01*
X107127380Y-118878571D01*
X107079761Y-118830952D01*
X106984523Y-118807142D01*
X106817857Y-118807142D01*
X106722619Y-118830952D01*
X106675000Y-118878571D01*
X106651190Y-118926190D01*
X107151190Y-119354761D02*
X106651190Y-119354761D01*
X107151190Y-119640476D01*
X106651190Y-119640476D01*
X106651190Y-119807142D02*
X106651190Y-120092857D01*
X107151190Y-119950000D02*
X106651190Y-119950000D01*
X107151190Y-120545238D02*
X106913095Y-120378571D01*
X107151190Y-120259523D02*
X106651190Y-120259523D01*
X106651190Y-120450000D01*
X106675000Y-120497619D01*
X106698809Y-120521428D01*
X106746428Y-120545238D01*
X106817857Y-120545238D01*
X106865476Y-120521428D01*
X106889285Y-120497619D01*
X106913095Y-120450000D01*
X106913095Y-120259523D01*
X106651190Y-120854761D02*
X106651190Y-120950000D01*
X106675000Y-120997619D01*
X106722619Y-121045238D01*
X106817857Y-121069047D01*
X106984523Y-121069047D01*
X107079761Y-121045238D01*
X107127380Y-120997619D01*
X107151190Y-120950000D01*
X107151190Y-120854761D01*
X107127380Y-120807142D01*
X107079761Y-120759523D01*
X106984523Y-120735714D01*
X106817857Y-120735714D01*
X106722619Y-120759523D01*
X106675000Y-120807142D01*
X106651190Y-120854761D01*
X107151190Y-121521428D02*
X107151190Y-121283333D01*
X106651190Y-121283333D01*
X107151190Y-121926190D02*
X107151190Y-121688095D01*
X106651190Y-121688095D01*
X106889285Y-122092857D02*
X106889285Y-122259523D01*
X107151190Y-122330952D02*
X107151190Y-122092857D01*
X106651190Y-122092857D01*
X106651190Y-122330952D01*
X107151190Y-122830952D02*
X106913095Y-122664285D01*
X107151190Y-122545238D02*
X106651190Y-122545238D01*
X106651190Y-122735714D01*
X106675000Y-122783333D01*
X106698809Y-122807142D01*
X106746428Y-122830952D01*
X106817857Y-122830952D01*
X106865476Y-122807142D01*
X106889285Y-122783333D01*
X106913095Y-122735714D01*
X106913095Y-122545238D01*
X106698809Y-123402380D02*
X106675000Y-123426190D01*
X106651190Y-123473809D01*
X106651190Y-123592857D01*
X106675000Y-123640476D01*
X106698809Y-123664285D01*
X106746428Y-123688095D01*
X106794047Y-123688095D01*
X106865476Y-123664285D01*
X107151190Y-123378571D01*
X107151190Y-123688095D01*
X107103571Y-123902380D02*
X107127380Y-123926190D01*
X107151190Y-123902380D01*
X107127380Y-123878571D01*
X107103571Y-123902380D01*
X107151190Y-123902380D01*
X106651190Y-124235714D02*
X106651190Y-124283333D01*
X106675000Y-124330952D01*
X106698809Y-124354761D01*
X106746428Y-124378571D01*
X106841666Y-124402380D01*
X106960714Y-124402380D01*
X107055952Y-124378571D01*
X107103571Y-124354761D01*
X107127380Y-124330952D01*
X107151190Y-124283333D01*
X107151190Y-124235714D01*
X107127380Y-124188095D01*
X107103571Y-124164285D01*
X107055952Y-124140476D01*
X106960714Y-124116666D01*
X106841666Y-124116666D01*
X106746428Y-124140476D01*
X106698809Y-124164285D01*
X106675000Y-124188095D01*
X106651190Y-124235714D01*
X106651190Y-124545238D02*
X107151190Y-124711904D01*
X106651190Y-124878571D01*
X108026190Y-119652380D02*
X108026190Y-119366666D01*
X108026190Y-119509523D02*
X107526190Y-119509523D01*
X107597619Y-119461904D01*
X107645238Y-119414285D01*
X107669047Y-119366666D01*
X107740476Y-119938095D02*
X107716666Y-119890476D01*
X107692857Y-119866666D01*
X107645238Y-119842857D01*
X107621428Y-119842857D01*
X107573809Y-119866666D01*
X107550000Y-119890476D01*
X107526190Y-119938095D01*
X107526190Y-120033333D01*
X107550000Y-120080952D01*
X107573809Y-120104761D01*
X107621428Y-120128571D01*
X107645238Y-120128571D01*
X107692857Y-120104761D01*
X107716666Y-120080952D01*
X107740476Y-120033333D01*
X107740476Y-119938095D01*
X107764285Y-119890476D01*
X107788095Y-119866666D01*
X107835714Y-119842857D01*
X107930952Y-119842857D01*
X107978571Y-119866666D01*
X108002380Y-119890476D01*
X108026190Y-119938095D01*
X108026190Y-120033333D01*
X108002380Y-120080952D01*
X107978571Y-120104761D01*
X107930952Y-120128571D01*
X107835714Y-120128571D01*
X107788095Y-120104761D01*
X107764285Y-120080952D01*
X107740476Y-120033333D01*
X107526190Y-120438095D02*
X107526190Y-120485714D01*
X107550000Y-120533333D01*
X107573809Y-120557142D01*
X107621428Y-120580952D01*
X107716666Y-120604761D01*
X107835714Y-120604761D01*
X107930952Y-120580952D01*
X107978571Y-120557142D01*
X108002380Y-120533333D01*
X108026190Y-120485714D01*
X108026190Y-120438095D01*
X108002380Y-120390476D01*
X107978571Y-120366666D01*
X107930952Y-120342857D01*
X107835714Y-120319047D01*
X107716666Y-120319047D01*
X107621428Y-120342857D01*
X107573809Y-120366666D01*
X107550000Y-120390476D01*
X107526190Y-120438095D01*
X107526190Y-121033333D02*
X107526190Y-120938095D01*
X107550000Y-120890476D01*
X107573809Y-120866666D01*
X107645238Y-120819047D01*
X107740476Y-120795238D01*
X107930952Y-120795238D01*
X107978571Y-120819047D01*
X108002380Y-120842857D01*
X108026190Y-120890476D01*
X108026190Y-120985714D01*
X108002380Y-121033333D01*
X107978571Y-121057142D01*
X107930952Y-121080952D01*
X107811904Y-121080952D01*
X107764285Y-121057142D01*
X107740476Y-121033333D01*
X107716666Y-120985714D01*
X107716666Y-120890476D01*
X107740476Y-120842857D01*
X107764285Y-120819047D01*
X107811904Y-120795238D01*
X107526190Y-121390476D02*
X107526190Y-121438095D01*
X107550000Y-121485714D01*
X107573809Y-121509523D01*
X107621428Y-121533333D01*
X107716666Y-121557142D01*
X107835714Y-121557142D01*
X107930952Y-121533333D01*
X107978571Y-121509523D01*
X108002380Y-121485714D01*
X108026190Y-121438095D01*
X108026190Y-121390476D01*
X108002380Y-121342857D01*
X107978571Y-121319047D01*
X107930952Y-121295238D01*
X107835714Y-121271428D01*
X107716666Y-121271428D01*
X107621428Y-121295238D01*
X107573809Y-121319047D01*
X107550000Y-121342857D01*
X107526190Y-121390476D01*
X107526190Y-121723809D02*
X107526190Y-122033333D01*
X107716666Y-121866666D01*
X107716666Y-121938095D01*
X107740476Y-121985714D01*
X107764285Y-122009523D01*
X107811904Y-122033333D01*
X107930952Y-122033333D01*
X107978571Y-122009523D01*
X108002380Y-121985714D01*
X108026190Y-121938095D01*
X108026190Y-121795238D01*
X108002380Y-121747619D01*
X107978571Y-121723809D01*
X108639285Y-120223809D02*
X108639285Y-120057142D01*
X108901190Y-120057142D02*
X108401190Y-120057142D01*
X108401190Y-120295238D01*
X108901190Y-120485714D02*
X108401190Y-120485714D01*
X108401190Y-120652380D02*
X108401190Y-120938095D01*
X108901190Y-120795238D02*
X108401190Y-120795238D01*
X108401190Y-121057142D02*
X108401190Y-121390476D01*
X108901190Y-121057142D01*
X108901190Y-121390476D01*
X125021428Y-124783333D02*
X124997619Y-124807142D01*
X124973809Y-124878571D01*
X124973809Y-124926190D01*
X124997619Y-124997619D01*
X125045238Y-125045238D01*
X125092857Y-125069047D01*
X125188095Y-125092857D01*
X125259523Y-125092857D01*
X125354761Y-125069047D01*
X125402380Y-125045238D01*
X125450000Y-124997619D01*
X125473809Y-124926190D01*
X125473809Y-124878571D01*
X125450000Y-124807142D01*
X125426190Y-124783333D01*
X124997619Y-124592857D02*
X124973809Y-124521428D01*
X124973809Y-124402380D01*
X124997619Y-124354761D01*
X125021428Y-124330952D01*
X125069047Y-124307142D01*
X125116666Y-124307142D01*
X125164285Y-124330952D01*
X125188095Y-124354761D01*
X125211904Y-124402380D01*
X125235714Y-124497619D01*
X125259523Y-124545238D01*
X125283333Y-124569047D01*
X125330952Y-124592857D01*
X125378571Y-124592857D01*
X125426190Y-124569047D01*
X125450000Y-124545238D01*
X125473809Y-124497619D01*
X125473809Y-124378571D01*
X125450000Y-124307142D01*
X117273809Y-124783333D02*
X117511904Y-124950000D01*
X117273809Y-125069047D02*
X117773809Y-125069047D01*
X117773809Y-124878571D01*
X117750000Y-124830952D01*
X117726190Y-124807142D01*
X117678571Y-124783333D01*
X117607142Y-124783333D01*
X117559523Y-124807142D01*
X117535714Y-124830952D01*
X117511904Y-124878571D01*
X117511904Y-125069047D01*
X117773809Y-124616666D02*
X117273809Y-124283333D01*
X117773809Y-124283333D02*
X117273809Y-124616666D01*
X122473809Y-125585714D02*
X122973809Y-125585714D01*
X122616666Y-125419047D01*
X122973809Y-125252380D01*
X122473809Y-125252380D01*
X122973809Y-124919047D02*
X122973809Y-124823809D01*
X122950000Y-124776190D01*
X122902380Y-124728571D01*
X122807142Y-124704761D01*
X122640476Y-124704761D01*
X122545238Y-124728571D01*
X122497619Y-124776190D01*
X122473809Y-124823809D01*
X122473809Y-124919047D01*
X122497619Y-124966666D01*
X122545238Y-125014285D01*
X122640476Y-125038095D01*
X122807142Y-125038095D01*
X122902380Y-125014285D01*
X122950000Y-124966666D01*
X122973809Y-124919047D01*
X122497619Y-124514285D02*
X122473809Y-124442857D01*
X122473809Y-124323809D01*
X122497619Y-124276190D01*
X122521428Y-124252380D01*
X122569047Y-124228571D01*
X122616666Y-124228571D01*
X122664285Y-124252380D01*
X122688095Y-124276190D01*
X122711904Y-124323809D01*
X122735714Y-124419047D01*
X122759523Y-124466666D01*
X122783333Y-124490476D01*
X122830952Y-124514285D01*
X122878571Y-124514285D01*
X122926190Y-124490476D01*
X122950000Y-124466666D01*
X122973809Y-124419047D01*
X122973809Y-124300000D01*
X122950000Y-124228571D01*
X122473809Y-124014285D02*
X122973809Y-124014285D01*
X115250000Y-125080952D02*
X115273809Y-125128571D01*
X115273809Y-125200000D01*
X115250000Y-125271428D01*
X115202380Y-125319047D01*
X115154761Y-125342857D01*
X115059523Y-125366666D01*
X114988095Y-125366666D01*
X114892857Y-125342857D01*
X114845238Y-125319047D01*
X114797619Y-125271428D01*
X114773809Y-125200000D01*
X114773809Y-125152380D01*
X114797619Y-125080952D01*
X114821428Y-125057142D01*
X114988095Y-125057142D01*
X114988095Y-125152380D01*
X114773809Y-124842857D02*
X115273809Y-124842857D01*
X114773809Y-124557142D01*
X115273809Y-124557142D01*
X114773809Y-124319047D02*
X115273809Y-124319047D01*
X115273809Y-124200000D01*
X115250000Y-124128571D01*
X115202380Y-124080952D01*
X115154761Y-124057142D01*
X115059523Y-124033333D01*
X114988095Y-124033333D01*
X114892857Y-124057142D01*
X114845238Y-124080952D01*
X114797619Y-124128571D01*
X114773809Y-124200000D01*
X114773809Y-124319047D01*
X119797619Y-125307142D02*
X119773809Y-125235714D01*
X119773809Y-125116666D01*
X119797619Y-125069047D01*
X119821428Y-125045238D01*
X119869047Y-125021428D01*
X119916666Y-125021428D01*
X119964285Y-125045238D01*
X119988095Y-125069047D01*
X120011904Y-125116666D01*
X120035714Y-125211904D01*
X120059523Y-125259523D01*
X120083333Y-125283333D01*
X120130952Y-125307142D01*
X120178571Y-125307142D01*
X120226190Y-125283333D01*
X120250000Y-125259523D01*
X120273809Y-125211904D01*
X120273809Y-125092857D01*
X120250000Y-125021428D01*
X119773809Y-124807142D02*
X120273809Y-124807142D01*
X120273809Y-124688095D01*
X120250000Y-124616666D01*
X120202380Y-124569047D01*
X120154761Y-124545238D01*
X120059523Y-124521428D01*
X119988095Y-124521428D01*
X119892857Y-124545238D01*
X119845238Y-124569047D01*
X119797619Y-124616666D01*
X119773809Y-124688095D01*
X119773809Y-124807142D01*
X119916666Y-124330952D02*
X119916666Y-124092857D01*
X119773809Y-124378571D02*
X120273809Y-124211904D01*
X119773809Y-124045238D01*
X119897619Y-118295238D02*
X119873809Y-118223809D01*
X119873809Y-118104761D01*
X119897619Y-118057142D01*
X119921428Y-118033333D01*
X119969047Y-118009523D01*
X120016666Y-118009523D01*
X120064285Y-118033333D01*
X120088095Y-118057142D01*
X120111904Y-118104761D01*
X120135714Y-118200000D01*
X120159523Y-118247619D01*
X120183333Y-118271428D01*
X120230952Y-118295238D01*
X120278571Y-118295238D01*
X120326190Y-118271428D01*
X120350000Y-118247619D01*
X120373809Y-118200000D01*
X120373809Y-118080952D01*
X120350000Y-118009523D01*
X119921428Y-117509523D02*
X119897619Y-117533333D01*
X119873809Y-117604761D01*
X119873809Y-117652380D01*
X119897619Y-117723809D01*
X119945238Y-117771428D01*
X119992857Y-117795238D01*
X120088095Y-117819047D01*
X120159523Y-117819047D01*
X120254761Y-117795238D01*
X120302380Y-117771428D01*
X120350000Y-117723809D01*
X120373809Y-117652380D01*
X120373809Y-117604761D01*
X120350000Y-117533333D01*
X120326190Y-117509523D01*
X119873809Y-117057142D02*
X119873809Y-117295238D01*
X120373809Y-117295238D01*
X117773809Y-118080952D02*
X117773809Y-117795238D01*
X117273809Y-117938095D02*
X117773809Y-117938095D01*
X117773809Y-117676190D02*
X117273809Y-117342857D01*
X117773809Y-117342857D02*
X117273809Y-117676190D01*
X124997619Y-118342857D02*
X124973809Y-118271428D01*
X124973809Y-118152380D01*
X124997619Y-118104761D01*
X125021428Y-118080952D01*
X125069047Y-118057142D01*
X125116666Y-118057142D01*
X125164285Y-118080952D01*
X125188095Y-118104761D01*
X125211904Y-118152380D01*
X125235714Y-118247619D01*
X125259523Y-118295238D01*
X125283333Y-118319047D01*
X125330952Y-118342857D01*
X125378571Y-118342857D01*
X125426190Y-118319047D01*
X125450000Y-118295238D01*
X125473809Y-118247619D01*
X125473809Y-118128571D01*
X125450000Y-118057142D01*
X125021428Y-117557142D02*
X124997619Y-117580952D01*
X124973809Y-117652380D01*
X124973809Y-117700000D01*
X124997619Y-117771428D01*
X125045238Y-117819047D01*
X125092857Y-117842857D01*
X125188095Y-117866666D01*
X125259523Y-117866666D01*
X125354761Y-117842857D01*
X125402380Y-117819047D01*
X125450000Y-117771428D01*
X125473809Y-117700000D01*
X125473809Y-117652380D01*
X125450000Y-117580952D01*
X125426190Y-117557142D01*
X124973809Y-117342857D02*
X125473809Y-117342857D01*
X124973809Y-117057142D02*
X125259523Y-117271428D01*
X125473809Y-117057142D02*
X125188095Y-117342857D01*
X115273809Y-118319047D02*
X115273809Y-118009523D01*
X115083333Y-118176190D01*
X115083333Y-118104761D01*
X115059523Y-118057142D01*
X115035714Y-118033333D01*
X114988095Y-118009523D01*
X114869047Y-118009523D01*
X114821428Y-118033333D01*
X114797619Y-118057142D01*
X114773809Y-118104761D01*
X114773809Y-118247619D01*
X114797619Y-118295238D01*
X114821428Y-118319047D01*
X115273809Y-117866666D02*
X114773809Y-117700000D01*
X115273809Y-117533333D01*
X115273809Y-117414285D02*
X115273809Y-117104761D01*
X115083333Y-117271428D01*
X115083333Y-117200000D01*
X115059523Y-117152380D01*
X115035714Y-117128571D01*
X114988095Y-117104761D01*
X114869047Y-117104761D01*
X114821428Y-117128571D01*
X114797619Y-117152380D01*
X114773809Y-117200000D01*
X114773809Y-117342857D01*
X114797619Y-117390476D01*
X114821428Y-117414285D01*
X122373809Y-118485714D02*
X122873809Y-118485714D01*
X122516666Y-118319047D01*
X122873809Y-118152380D01*
X122373809Y-118152380D01*
X122373809Y-117914285D02*
X122873809Y-117914285D01*
X122397619Y-117700000D02*
X122373809Y-117628571D01*
X122373809Y-117509523D01*
X122397619Y-117461904D01*
X122421428Y-117438095D01*
X122469047Y-117414285D01*
X122516666Y-117414285D01*
X122564285Y-117438095D01*
X122588095Y-117461904D01*
X122611904Y-117509523D01*
X122635714Y-117604761D01*
X122659523Y-117652380D01*
X122683333Y-117676190D01*
X122730952Y-117700000D01*
X122778571Y-117700000D01*
X122826190Y-117676190D01*
X122850000Y-117652380D01*
X122873809Y-117604761D01*
X122873809Y-117485714D01*
X122850000Y-117414285D01*
X122873809Y-117104761D02*
X122873809Y-117009523D01*
X122850000Y-116961904D01*
X122802380Y-116914285D01*
X122707142Y-116890476D01*
X122540476Y-116890476D01*
X122445238Y-116914285D01*
X122397619Y-116961904D01*
X122373809Y-117009523D01*
X122373809Y-117104761D01*
X122397619Y-117152380D01*
X122445238Y-117200000D01*
X122540476Y-117223809D01*
X122707142Y-117223809D01*
X122802380Y-117200000D01*
X122850000Y-117152380D01*
X122873809Y-117104761D01*
X146250000Y-142019047D02*
X146226190Y-141971428D01*
X146226190Y-141900000D01*
X146250000Y-141828571D01*
X146297619Y-141780952D01*
X146345238Y-141757142D01*
X146440476Y-141733333D01*
X146511904Y-141733333D01*
X146607142Y-141757142D01*
X146654761Y-141780952D01*
X146702380Y-141828571D01*
X146726190Y-141900000D01*
X146726190Y-141947619D01*
X146702380Y-142019047D01*
X146678571Y-142042857D01*
X146511904Y-142042857D01*
X146511904Y-141947619D01*
X146726190Y-142257142D02*
X146226190Y-142257142D01*
X146726190Y-142542857D01*
X146226190Y-142542857D01*
X146726190Y-142780952D02*
X146226190Y-142780952D01*
X146226190Y-142900000D01*
X146250000Y-142971428D01*
X146297619Y-143019047D01*
X146345238Y-143042857D01*
X146440476Y-143066666D01*
X146511904Y-143066666D01*
X146607142Y-143042857D01*
X146654761Y-143019047D01*
X146702380Y-142971428D01*
X146726190Y-142900000D01*
X146726190Y-142780952D01*
X106280952Y-138550000D02*
X106328571Y-138526190D01*
X106400000Y-138526190D01*
X106471428Y-138550000D01*
X106519047Y-138597619D01*
X106542857Y-138645238D01*
X106566666Y-138740476D01*
X106566666Y-138811904D01*
X106542857Y-138907142D01*
X106519047Y-138954761D01*
X106471428Y-139002380D01*
X106400000Y-139026190D01*
X106352380Y-139026190D01*
X106280952Y-139002380D01*
X106257142Y-138978571D01*
X106257142Y-138811904D01*
X106352380Y-138811904D01*
X106042857Y-139026190D02*
X106042857Y-138526190D01*
X105757142Y-139026190D01*
X105757142Y-138526190D01*
X105519047Y-139026190D02*
X105519047Y-138526190D01*
X105400000Y-138526190D01*
X105328571Y-138550000D01*
X105280952Y-138597619D01*
X105257142Y-138645238D01*
X105233333Y-138740476D01*
X105233333Y-138811904D01*
X105257142Y-138907142D01*
X105280952Y-138954761D01*
X105328571Y-139002380D01*
X105400000Y-139026190D01*
X105519047Y-139026190D01*
X107619047Y-134326190D02*
X107309523Y-134326190D01*
X107476190Y-134516666D01*
X107404761Y-134516666D01*
X107357142Y-134540476D01*
X107333333Y-134564285D01*
X107309523Y-134611904D01*
X107309523Y-134730952D01*
X107333333Y-134778571D01*
X107357142Y-134802380D01*
X107404761Y-134826190D01*
X107547619Y-134826190D01*
X107595238Y-134802380D01*
X107619047Y-134778571D01*
X107166666Y-134326190D02*
X107000000Y-134826190D01*
X106833333Y-134326190D01*
X106714285Y-134326190D02*
X106404761Y-134326190D01*
X106571428Y-134516666D01*
X106500000Y-134516666D01*
X106452380Y-134540476D01*
X106428571Y-134564285D01*
X106404761Y-134611904D01*
X106404761Y-134730952D01*
X106428571Y-134778571D01*
X106452380Y-134802380D01*
X106500000Y-134826190D01*
X106642857Y-134826190D01*
X106690476Y-134802380D01*
X106714285Y-134778571D01*
X107180952Y-135326190D02*
X106895238Y-135326190D01*
X107038095Y-135826190D02*
X107038095Y-135326190D01*
X106776190Y-135326190D02*
X106442857Y-135826190D01*
X106442857Y-135326190D02*
X106776190Y-135826190D01*
X106883333Y-136826190D02*
X107050000Y-136588095D01*
X107169047Y-136826190D02*
X107169047Y-136326190D01*
X106978571Y-136326190D01*
X106930952Y-136350000D01*
X106907142Y-136373809D01*
X106883333Y-136421428D01*
X106883333Y-136492857D01*
X106907142Y-136540476D01*
X106930952Y-136564285D01*
X106978571Y-136588095D01*
X107169047Y-136588095D01*
X106716666Y-136326190D02*
X106383333Y-136826190D01*
X106383333Y-136326190D02*
X106716666Y-136826190D01*
X111750000Y-133719047D02*
X111726190Y-133671428D01*
X111726190Y-133600000D01*
X111750000Y-133528571D01*
X111797619Y-133480952D01*
X111845238Y-133457142D01*
X111940476Y-133433333D01*
X112011904Y-133433333D01*
X112107142Y-133457142D01*
X112154761Y-133480952D01*
X112202380Y-133528571D01*
X112226190Y-133600000D01*
X112226190Y-133647619D01*
X112202380Y-133719047D01*
X112178571Y-133742857D01*
X112011904Y-133742857D01*
X112011904Y-133647619D01*
X112226190Y-133957142D02*
X111726190Y-133957142D01*
X112226190Y-134242857D01*
X111726190Y-134242857D01*
X112226190Y-134480952D02*
X111726190Y-134480952D01*
X111726190Y-134600000D01*
X111750000Y-134671428D01*
X111797619Y-134719047D01*
X111845238Y-134742857D01*
X111940476Y-134766666D01*
X112011904Y-134766666D01*
X112107142Y-134742857D01*
X112154761Y-134719047D01*
X112202380Y-134671428D01*
X112226190Y-134600000D01*
X112226190Y-134480952D01*
X110964285Y-132302380D02*
X110964285Y-132469047D01*
X111226190Y-132540476D02*
X111226190Y-132302380D01*
X110726190Y-132302380D01*
X110726190Y-132540476D01*
X111226190Y-132754761D02*
X110726190Y-132754761D01*
X111226190Y-133040476D01*
X110726190Y-133040476D01*
X111178571Y-133564285D02*
X111202380Y-133540476D01*
X111226190Y-133469047D01*
X111226190Y-133421428D01*
X111202380Y-133350000D01*
X111154761Y-133302380D01*
X111107142Y-133278571D01*
X111011904Y-133254761D01*
X110940476Y-133254761D01*
X110845238Y-133278571D01*
X110797619Y-133302380D01*
X110750000Y-133350000D01*
X110726190Y-133421428D01*
X110726190Y-133469047D01*
X110750000Y-133540476D01*
X110773809Y-133564285D01*
X111273809Y-133659523D02*
X111273809Y-134040476D01*
X111226190Y-134421428D02*
X111226190Y-134135714D01*
X111226190Y-134278571D02*
X110726190Y-134278571D01*
X110797619Y-134230952D01*
X110845238Y-134183333D01*
X110869047Y-134135714D01*
X110964285Y-134802380D02*
X110988095Y-134873809D01*
X111011904Y-134897619D01*
X111059523Y-134921428D01*
X111130952Y-134921428D01*
X111178571Y-134897619D01*
X111202380Y-134873809D01*
X111226190Y-134826190D01*
X111226190Y-134635714D01*
X110726190Y-134635714D01*
X110726190Y-134802380D01*
X110750000Y-134850000D01*
X110773809Y-134873809D01*
X110821428Y-134897619D01*
X110869047Y-134897619D01*
X110916666Y-134873809D01*
X110940476Y-134850000D01*
X110964285Y-134802380D01*
X110964285Y-134635714D01*
X110202380Y-133533333D02*
X110226190Y-133604761D01*
X110226190Y-133723809D01*
X110202380Y-133771428D01*
X110178571Y-133795238D01*
X110130952Y-133819047D01*
X110083333Y-133819047D01*
X110035714Y-133795238D01*
X110011904Y-133771428D01*
X109988095Y-133723809D01*
X109964285Y-133628571D01*
X109940476Y-133580952D01*
X109916666Y-133557142D01*
X109869047Y-133533333D01*
X109821428Y-133533333D01*
X109773809Y-133557142D01*
X109750000Y-133580952D01*
X109726190Y-133628571D01*
X109726190Y-133747619D01*
X109750000Y-133819047D01*
X109726190Y-133985714D02*
X110226190Y-134104761D01*
X109869047Y-134200000D01*
X110226190Y-134295238D01*
X109726190Y-134414285D01*
X110226190Y-134866666D02*
X110226190Y-134580952D01*
X110226190Y-134723809D02*
X109726190Y-134723809D01*
X109797619Y-134676190D01*
X109845238Y-134628571D01*
X109869047Y-134580952D01*
X108750000Y-133919047D02*
X108726190Y-133871428D01*
X108726190Y-133800000D01*
X108750000Y-133728571D01*
X108797619Y-133680952D01*
X108845238Y-133657142D01*
X108940476Y-133633333D01*
X109011904Y-133633333D01*
X109107142Y-133657142D01*
X109154761Y-133680952D01*
X109202380Y-133728571D01*
X109226190Y-133800000D01*
X109226190Y-133847619D01*
X109202380Y-133919047D01*
X109178571Y-133942857D01*
X109011904Y-133942857D01*
X109011904Y-133847619D01*
X109226190Y-134157142D02*
X108726190Y-134157142D01*
X109226190Y-134442857D01*
X108726190Y-134442857D01*
X109226190Y-134680952D02*
X108726190Y-134680952D01*
X108726190Y-134800000D01*
X108750000Y-134871428D01*
X108797619Y-134919047D01*
X108845238Y-134942857D01*
X108940476Y-134966666D01*
X109011904Y-134966666D01*
X109107142Y-134942857D01*
X109154761Y-134919047D01*
X109202380Y-134871428D01*
X109226190Y-134800000D01*
X109226190Y-134680952D01*
X117750000Y-133619047D02*
X117726190Y-133571428D01*
X117726190Y-133500000D01*
X117750000Y-133428571D01*
X117797619Y-133380952D01*
X117845238Y-133357142D01*
X117940476Y-133333333D01*
X118011904Y-133333333D01*
X118107142Y-133357142D01*
X118154761Y-133380952D01*
X118202380Y-133428571D01*
X118226190Y-133500000D01*
X118226190Y-133547619D01*
X118202380Y-133619047D01*
X118178571Y-133642857D01*
X118011904Y-133642857D01*
X118011904Y-133547619D01*
X118226190Y-133857142D02*
X117726190Y-133857142D01*
X118226190Y-134142857D01*
X117726190Y-134142857D01*
X118226190Y-134380952D02*
X117726190Y-134380952D01*
X117726190Y-134500000D01*
X117750000Y-134571428D01*
X117797619Y-134619047D01*
X117845238Y-134642857D01*
X117940476Y-134666666D01*
X118011904Y-134666666D01*
X118107142Y-134642857D01*
X118154761Y-134619047D01*
X118202380Y-134571428D01*
X118226190Y-134500000D01*
X118226190Y-134380952D01*
X120064285Y-132202380D02*
X120064285Y-132369047D01*
X120326190Y-132440476D02*
X120326190Y-132202380D01*
X119826190Y-132202380D01*
X119826190Y-132440476D01*
X120326190Y-132654761D02*
X119826190Y-132654761D01*
X120326190Y-132940476D01*
X119826190Y-132940476D01*
X120278571Y-133464285D02*
X120302380Y-133440476D01*
X120326190Y-133369047D01*
X120326190Y-133321428D01*
X120302380Y-133250000D01*
X120254761Y-133202380D01*
X120207142Y-133178571D01*
X120111904Y-133154761D01*
X120040476Y-133154761D01*
X119945238Y-133178571D01*
X119897619Y-133202380D01*
X119850000Y-133250000D01*
X119826190Y-133321428D01*
X119826190Y-133369047D01*
X119850000Y-133440476D01*
X119873809Y-133464285D01*
X120373809Y-133559523D02*
X120373809Y-133940476D01*
X119873809Y-134035714D02*
X119850000Y-134059523D01*
X119826190Y-134107142D01*
X119826190Y-134226190D01*
X119850000Y-134273809D01*
X119873809Y-134297619D01*
X119921428Y-134321428D01*
X119969047Y-134321428D01*
X120040476Y-134297619D01*
X120326190Y-134011904D01*
X120326190Y-134321428D01*
X120064285Y-134702380D02*
X120088095Y-134773809D01*
X120111904Y-134797619D01*
X120159523Y-134821428D01*
X120230952Y-134821428D01*
X120278571Y-134797619D01*
X120302380Y-134773809D01*
X120326190Y-134726190D01*
X120326190Y-134535714D01*
X119826190Y-134535714D01*
X119826190Y-134702380D01*
X119850000Y-134750000D01*
X119873809Y-134773809D01*
X119921428Y-134797619D01*
X119969047Y-134797619D01*
X120016666Y-134773809D01*
X120040476Y-134750000D01*
X120064285Y-134702380D01*
X120064285Y-134535714D01*
X121964285Y-132238095D02*
X121964285Y-132404761D01*
X122226190Y-132476190D02*
X122226190Y-132238095D01*
X121726190Y-132238095D01*
X121726190Y-132476190D01*
X122226190Y-132690476D02*
X121726190Y-132690476D01*
X122226190Y-132976190D01*
X121726190Y-132976190D01*
X122178571Y-133500000D02*
X122202380Y-133476190D01*
X122226190Y-133404761D01*
X122226190Y-133357142D01*
X122202380Y-133285714D01*
X122154761Y-133238095D01*
X122107142Y-133214285D01*
X122011904Y-133190476D01*
X121940476Y-133190476D01*
X121845238Y-133214285D01*
X121797619Y-133238095D01*
X121750000Y-133285714D01*
X121726190Y-133357142D01*
X121726190Y-133404761D01*
X121750000Y-133476190D01*
X121773809Y-133500000D01*
X122273809Y-133595238D02*
X122273809Y-133976190D01*
X121773809Y-134071428D02*
X121750000Y-134095238D01*
X121726190Y-134142857D01*
X121726190Y-134261904D01*
X121750000Y-134309523D01*
X121773809Y-134333333D01*
X121821428Y-134357142D01*
X121869047Y-134357142D01*
X121940476Y-134333333D01*
X122226190Y-134047619D01*
X122226190Y-134357142D01*
X122083333Y-134547619D02*
X122083333Y-134785714D01*
X122226190Y-134500000D02*
X121726190Y-134666666D01*
X122226190Y-134833333D01*
X119302380Y-132233333D02*
X119326190Y-132304761D01*
X119326190Y-132423809D01*
X119302380Y-132471428D01*
X119278571Y-132495238D01*
X119230952Y-132519047D01*
X119183333Y-132519047D01*
X119135714Y-132495238D01*
X119111904Y-132471428D01*
X119088095Y-132423809D01*
X119064285Y-132328571D01*
X119040476Y-132280952D01*
X119016666Y-132257142D01*
X118969047Y-132233333D01*
X118921428Y-132233333D01*
X118873809Y-132257142D01*
X118850000Y-132280952D01*
X118826190Y-132328571D01*
X118826190Y-132447619D01*
X118850000Y-132519047D01*
X118826190Y-132685714D02*
X119326190Y-132804761D01*
X118969047Y-132900000D01*
X119326190Y-132995238D01*
X118826190Y-133114285D01*
X118873809Y-133280952D02*
X118850000Y-133304761D01*
X118826190Y-133352380D01*
X118826190Y-133471428D01*
X118850000Y-133519047D01*
X118873809Y-133542857D01*
X118921428Y-133566666D01*
X118969047Y-133566666D01*
X119040476Y-133542857D01*
X119326190Y-133257142D01*
X119326190Y-133566666D01*
X120750000Y-132519047D02*
X120726190Y-132471428D01*
X120726190Y-132400000D01*
X120750000Y-132328571D01*
X120797619Y-132280952D01*
X120845238Y-132257142D01*
X120940476Y-132233333D01*
X121011904Y-132233333D01*
X121107142Y-132257142D01*
X121154761Y-132280952D01*
X121202380Y-132328571D01*
X121226190Y-132400000D01*
X121226190Y-132447619D01*
X121202380Y-132519047D01*
X121178571Y-132542857D01*
X121011904Y-132542857D01*
X121011904Y-132447619D01*
X121226190Y-132757142D02*
X120726190Y-132757142D01*
X121226190Y-133042857D01*
X120726190Y-133042857D01*
X121226190Y-133280952D02*
X120726190Y-133280952D01*
X120726190Y-133400000D01*
X120750000Y-133471428D01*
X120797619Y-133519047D01*
X120845238Y-133542857D01*
X120940476Y-133566666D01*
X121011904Y-133566666D01*
X121107142Y-133542857D01*
X121154761Y-133519047D01*
X121202380Y-133471428D01*
X121226190Y-133400000D01*
X121226190Y-133280952D01*
X128102380Y-132233333D02*
X128126190Y-132304761D01*
X128126190Y-132423809D01*
X128102380Y-132471428D01*
X128078571Y-132495238D01*
X128030952Y-132519047D01*
X127983333Y-132519047D01*
X127935714Y-132495238D01*
X127911904Y-132471428D01*
X127888095Y-132423809D01*
X127864285Y-132328571D01*
X127840476Y-132280952D01*
X127816666Y-132257142D01*
X127769047Y-132233333D01*
X127721428Y-132233333D01*
X127673809Y-132257142D01*
X127650000Y-132280952D01*
X127626190Y-132328571D01*
X127626190Y-132447619D01*
X127650000Y-132519047D01*
X127626190Y-132685714D02*
X128126190Y-132804761D01*
X127769047Y-132900000D01*
X128126190Y-132995238D01*
X127626190Y-133114285D01*
X127626190Y-133257142D02*
X127626190Y-133566666D01*
X127816666Y-133400000D01*
X127816666Y-133471428D01*
X127840476Y-133519047D01*
X127864285Y-133542857D01*
X127911904Y-133566666D01*
X128030952Y-133566666D01*
X128078571Y-133542857D01*
X128102380Y-133519047D01*
X128126190Y-133471428D01*
X128126190Y-133328571D01*
X128102380Y-133280952D01*
X128078571Y-133257142D01*
X126750000Y-132519047D02*
X126726190Y-132471428D01*
X126726190Y-132400000D01*
X126750000Y-132328571D01*
X126797619Y-132280952D01*
X126845238Y-132257142D01*
X126940476Y-132233333D01*
X127011904Y-132233333D01*
X127107142Y-132257142D01*
X127154761Y-132280952D01*
X127202380Y-132328571D01*
X127226190Y-132400000D01*
X127226190Y-132447619D01*
X127202380Y-132519047D01*
X127178571Y-132542857D01*
X127011904Y-132542857D01*
X127011904Y-132447619D01*
X127226190Y-132757142D02*
X126726190Y-132757142D01*
X127226190Y-133042857D01*
X126726190Y-133042857D01*
X127226190Y-133280952D02*
X126726190Y-133280952D01*
X126726190Y-133400000D01*
X126750000Y-133471428D01*
X126797619Y-133519047D01*
X126845238Y-133542857D01*
X126940476Y-133566666D01*
X127011904Y-133566666D01*
X127107142Y-133542857D01*
X127154761Y-133519047D01*
X127202380Y-133471428D01*
X127226190Y-133400000D01*
X127226190Y-133280952D01*
X128864285Y-132202380D02*
X128864285Y-132369047D01*
X129126190Y-132440476D02*
X129126190Y-132202380D01*
X128626190Y-132202380D01*
X128626190Y-132440476D01*
X129126190Y-132654761D02*
X128626190Y-132654761D01*
X129126190Y-132940476D01*
X128626190Y-132940476D01*
X129078571Y-133464285D02*
X129102380Y-133440476D01*
X129126190Y-133369047D01*
X129126190Y-133321428D01*
X129102380Y-133250000D01*
X129054761Y-133202380D01*
X129007142Y-133178571D01*
X128911904Y-133154761D01*
X128840476Y-133154761D01*
X128745238Y-133178571D01*
X128697619Y-133202380D01*
X128650000Y-133250000D01*
X128626190Y-133321428D01*
X128626190Y-133369047D01*
X128650000Y-133440476D01*
X128673809Y-133464285D01*
X129173809Y-133559523D02*
X129173809Y-133940476D01*
X128626190Y-134011904D02*
X128626190Y-134321428D01*
X128816666Y-134154761D01*
X128816666Y-134226190D01*
X128840476Y-134273809D01*
X128864285Y-134297619D01*
X128911904Y-134321428D01*
X129030952Y-134321428D01*
X129078571Y-134297619D01*
X129102380Y-134273809D01*
X129126190Y-134226190D01*
X129126190Y-134083333D01*
X129102380Y-134035714D01*
X129078571Y-134011904D01*
X128864285Y-134702380D02*
X128888095Y-134773809D01*
X128911904Y-134797619D01*
X128959523Y-134821428D01*
X129030952Y-134821428D01*
X129078571Y-134797619D01*
X129102380Y-134773809D01*
X129126190Y-134726190D01*
X129126190Y-134535714D01*
X128626190Y-134535714D01*
X128626190Y-134702380D01*
X128650000Y-134750000D01*
X128673809Y-134773809D01*
X128721428Y-134797619D01*
X128769047Y-134797619D01*
X128816666Y-134773809D01*
X128840476Y-134750000D01*
X128864285Y-134702380D01*
X128864285Y-134535714D01*
X130964285Y-132238095D02*
X130964285Y-132404761D01*
X131226190Y-132476190D02*
X131226190Y-132238095D01*
X130726190Y-132238095D01*
X130726190Y-132476190D01*
X131226190Y-132690476D02*
X130726190Y-132690476D01*
X131226190Y-132976190D01*
X130726190Y-132976190D01*
X131178571Y-133500000D02*
X131202380Y-133476190D01*
X131226190Y-133404761D01*
X131226190Y-133357142D01*
X131202380Y-133285714D01*
X131154761Y-133238095D01*
X131107142Y-133214285D01*
X131011904Y-133190476D01*
X130940476Y-133190476D01*
X130845238Y-133214285D01*
X130797619Y-133238095D01*
X130750000Y-133285714D01*
X130726190Y-133357142D01*
X130726190Y-133404761D01*
X130750000Y-133476190D01*
X130773809Y-133500000D01*
X131273809Y-133595238D02*
X131273809Y-133976190D01*
X130726190Y-134047619D02*
X130726190Y-134357142D01*
X130916666Y-134190476D01*
X130916666Y-134261904D01*
X130940476Y-134309523D01*
X130964285Y-134333333D01*
X131011904Y-134357142D01*
X131130952Y-134357142D01*
X131178571Y-134333333D01*
X131202380Y-134309523D01*
X131226190Y-134261904D01*
X131226190Y-134119047D01*
X131202380Y-134071428D01*
X131178571Y-134047619D01*
X131083333Y-134547619D02*
X131083333Y-134785714D01*
X131226190Y-134500000D02*
X130726190Y-134666666D01*
X131226190Y-134833333D01*
X129750000Y-132519047D02*
X129726190Y-132471428D01*
X129726190Y-132400000D01*
X129750000Y-132328571D01*
X129797619Y-132280952D01*
X129845238Y-132257142D01*
X129940476Y-132233333D01*
X130011904Y-132233333D01*
X130107142Y-132257142D01*
X130154761Y-132280952D01*
X130202380Y-132328571D01*
X130226190Y-132400000D01*
X130226190Y-132447619D01*
X130202380Y-132519047D01*
X130178571Y-132542857D01*
X130011904Y-132542857D01*
X130011904Y-132447619D01*
X130226190Y-132757142D02*
X129726190Y-132757142D01*
X130226190Y-133042857D01*
X129726190Y-133042857D01*
X130226190Y-133280952D02*
X129726190Y-133280952D01*
X129726190Y-133400000D01*
X129750000Y-133471428D01*
X129797619Y-133519047D01*
X129845238Y-133542857D01*
X129940476Y-133566666D01*
X130011904Y-133566666D01*
X130107142Y-133542857D01*
X130154761Y-133519047D01*
X130202380Y-133471428D01*
X130226190Y-133400000D01*
X130226190Y-133280952D01*
X137892857Y-133745238D02*
X138226190Y-133745238D01*
X137702380Y-133626190D02*
X138059523Y-133507142D01*
X138059523Y-133816666D01*
X137964285Y-134173809D02*
X137988095Y-134245238D01*
X138011904Y-134269047D01*
X138059523Y-134292857D01*
X138130952Y-134292857D01*
X138178571Y-134269047D01*
X138202380Y-134245238D01*
X138226190Y-134197619D01*
X138226190Y-134007142D01*
X137726190Y-134007142D01*
X137726190Y-134173809D01*
X137750000Y-134221428D01*
X137773809Y-134245238D01*
X137821428Y-134269047D01*
X137869047Y-134269047D01*
X137916666Y-134245238D01*
X137940476Y-134221428D01*
X137964285Y-134173809D01*
X137964285Y-134007142D01*
X135750000Y-133719047D02*
X135726190Y-133671428D01*
X135726190Y-133600000D01*
X135750000Y-133528571D01*
X135797619Y-133480952D01*
X135845238Y-133457142D01*
X135940476Y-133433333D01*
X136011904Y-133433333D01*
X136107142Y-133457142D01*
X136154761Y-133480952D01*
X136202380Y-133528571D01*
X136226190Y-133600000D01*
X136226190Y-133647619D01*
X136202380Y-133719047D01*
X136178571Y-133742857D01*
X136011904Y-133742857D01*
X136011904Y-133647619D01*
X136226190Y-133957142D02*
X135726190Y-133957142D01*
X136226190Y-134242857D01*
X135726190Y-134242857D01*
X136226190Y-134480952D02*
X135726190Y-134480952D01*
X135726190Y-134600000D01*
X135750000Y-134671428D01*
X135797619Y-134719047D01*
X135845238Y-134742857D01*
X135940476Y-134766666D01*
X136011904Y-134766666D01*
X136107142Y-134742857D01*
X136154761Y-134719047D01*
X136202380Y-134671428D01*
X136226190Y-134600000D01*
X136226190Y-134480952D01*
X138750000Y-133719047D02*
X138726190Y-133671428D01*
X138726190Y-133600000D01*
X138750000Y-133528571D01*
X138797619Y-133480952D01*
X138845238Y-133457142D01*
X138940476Y-133433333D01*
X139011904Y-133433333D01*
X139107142Y-133457142D01*
X139154761Y-133480952D01*
X139202380Y-133528571D01*
X139226190Y-133600000D01*
X139226190Y-133647619D01*
X139202380Y-133719047D01*
X139178571Y-133742857D01*
X139011904Y-133742857D01*
X139011904Y-133647619D01*
X139226190Y-133957142D02*
X138726190Y-133957142D01*
X139226190Y-134242857D01*
X138726190Y-134242857D01*
X139226190Y-134480952D02*
X138726190Y-134480952D01*
X138726190Y-134600000D01*
X138750000Y-134671428D01*
X138797619Y-134719047D01*
X138845238Y-134742857D01*
X138940476Y-134766666D01*
X139011904Y-134766666D01*
X139107142Y-134742857D01*
X139154761Y-134719047D01*
X139202380Y-134671428D01*
X139226190Y-134600000D01*
X139226190Y-134480952D01*
X139964285Y-133438095D02*
X139964285Y-133604761D01*
X140226190Y-133676190D02*
X140226190Y-133438095D01*
X139726190Y-133438095D01*
X139726190Y-133676190D01*
X140226190Y-133890476D02*
X139726190Y-133890476D01*
X140226190Y-134176190D01*
X139726190Y-134176190D01*
X140178571Y-134700000D02*
X140202380Y-134676190D01*
X140226190Y-134604761D01*
X140226190Y-134557142D01*
X140202380Y-134485714D01*
X140154761Y-134438095D01*
X140107142Y-134414285D01*
X140011904Y-134390476D01*
X139940476Y-134390476D01*
X139845238Y-134414285D01*
X139797619Y-134438095D01*
X139750000Y-134485714D01*
X139726190Y-134557142D01*
X139726190Y-134604761D01*
X139750000Y-134676190D01*
X139773809Y-134700000D01*
X140273809Y-134795238D02*
X140273809Y-135176190D01*
X139892857Y-135509523D02*
X140226190Y-135509523D01*
X139702380Y-135390476D02*
X140059523Y-135271428D01*
X140059523Y-135580952D01*
X140083333Y-135747619D02*
X140083333Y-135985714D01*
X140226190Y-135700000D02*
X139726190Y-135866666D01*
X140226190Y-136033333D01*
X137202380Y-133433333D02*
X137226190Y-133504761D01*
X137226190Y-133623809D01*
X137202380Y-133671428D01*
X137178571Y-133695238D01*
X137130952Y-133719047D01*
X137083333Y-133719047D01*
X137035714Y-133695238D01*
X137011904Y-133671428D01*
X136988095Y-133623809D01*
X136964285Y-133528571D01*
X136940476Y-133480952D01*
X136916666Y-133457142D01*
X136869047Y-133433333D01*
X136821428Y-133433333D01*
X136773809Y-133457142D01*
X136750000Y-133480952D01*
X136726190Y-133528571D01*
X136726190Y-133647619D01*
X136750000Y-133719047D01*
X136726190Y-133885714D02*
X137226190Y-134004761D01*
X136869047Y-134100000D01*
X137226190Y-134195238D01*
X136726190Y-134314285D01*
X136892857Y-134719047D02*
X137226190Y-134719047D01*
X136702380Y-134600000D02*
X137059523Y-134480952D01*
X137059523Y-134790476D01*
X156145238Y-135226190D02*
X156311904Y-134988095D01*
X156430952Y-135226190D02*
X156430952Y-134726190D01*
X156240476Y-134726190D01*
X156192857Y-134750000D01*
X156169047Y-134773809D01*
X156145238Y-134821428D01*
X156145238Y-134892857D01*
X156169047Y-134940476D01*
X156192857Y-134964285D01*
X156240476Y-134988095D01*
X156430952Y-134988095D01*
X155969047Y-129750000D02*
X156016666Y-129726190D01*
X156088095Y-129726190D01*
X156159523Y-129750000D01*
X156207142Y-129797619D01*
X156230952Y-129845238D01*
X156254761Y-129940476D01*
X156254761Y-130011904D01*
X156230952Y-130107142D01*
X156207142Y-130154761D01*
X156159523Y-130202380D01*
X156088095Y-130226190D01*
X156040476Y-130226190D01*
X155969047Y-130202380D01*
X155945238Y-130178571D01*
X155945238Y-130011904D01*
X156040476Y-130011904D01*
X156064285Y-124864285D02*
X155992857Y-124888095D01*
X155969047Y-124911904D01*
X155945238Y-124959523D01*
X155945238Y-125030952D01*
X155969047Y-125078571D01*
X155992857Y-125102380D01*
X156040476Y-125126190D01*
X156230952Y-125126190D01*
X156230952Y-124626190D01*
X156064285Y-124626190D01*
X156016666Y-124650000D01*
X155992857Y-124673809D01*
X155969047Y-124721428D01*
X155969047Y-124769047D01*
X155992857Y-124816666D01*
X156016666Y-124840476D01*
X156064285Y-124864285D01*
X156230952Y-124864285D01*
X156509523Y-120126190D02*
X156795238Y-120126190D01*
X156652380Y-120126190D02*
X156652380Y-119626190D01*
X156700000Y-119697619D01*
X156747619Y-119745238D01*
X156795238Y-119769047D01*
X156319047Y-119673809D02*
X156295238Y-119650000D01*
X156247619Y-119626190D01*
X156128571Y-119626190D01*
X156080952Y-119650000D01*
X156057142Y-119673809D01*
X156033333Y-119721428D01*
X156033333Y-119769047D01*
X156057142Y-119840476D01*
X156342857Y-120126190D01*
X156033333Y-120126190D01*
X155890476Y-119626190D02*
X155723809Y-120126190D01*
X155557142Y-119626190D01*
X155309523Y-110326190D02*
X155595238Y-110326190D01*
X155452380Y-110326190D02*
X155452380Y-109826190D01*
X155500000Y-109897619D01*
X155547619Y-109945238D01*
X155595238Y-109969047D01*
X155119047Y-109873809D02*
X155095238Y-109850000D01*
X155047619Y-109826190D01*
X154928571Y-109826190D01*
X154880952Y-109850000D01*
X154857142Y-109873809D01*
X154833333Y-109921428D01*
X154833333Y-109969047D01*
X154857142Y-110040476D01*
X155142857Y-110326190D01*
X154833333Y-110326190D01*
X154690476Y-109826190D02*
X154523809Y-110326190D01*
X154357142Y-109826190D01*
X148009523Y-103826190D02*
X148247619Y-103826190D01*
X148271428Y-104064285D01*
X148247619Y-104040476D01*
X148200000Y-104016666D01*
X148080952Y-104016666D01*
X148033333Y-104040476D01*
X148009523Y-104064285D01*
X147985714Y-104111904D01*
X147985714Y-104230952D01*
X148009523Y-104278571D01*
X148033333Y-104302380D01*
X148080952Y-104326190D01*
X148200000Y-104326190D01*
X148247619Y-104302380D01*
X148271428Y-104278571D01*
X147842857Y-103826190D02*
X147676190Y-104326190D01*
X147509523Y-103826190D01*
X146985714Y-104302380D02*
X146914285Y-104326190D01*
X146795238Y-104326190D01*
X146747619Y-104302380D01*
X146723809Y-104278571D01*
X146700000Y-104230952D01*
X146700000Y-104183333D01*
X146723809Y-104135714D01*
X146747619Y-104111904D01*
X146795238Y-104088095D01*
X146890476Y-104064285D01*
X146938095Y-104040476D01*
X146961904Y-104016666D01*
X146985714Y-103969047D01*
X146985714Y-103921428D01*
X146961904Y-103873809D01*
X146938095Y-103850000D01*
X146890476Y-103826190D01*
X146771428Y-103826190D01*
X146700000Y-103850000D01*
X146533333Y-103826190D02*
X146414285Y-104326190D01*
X146319047Y-103969047D01*
X146223809Y-104326190D01*
X146104761Y-103826190D01*
X141995238Y-103826190D02*
X142233333Y-103826190D01*
X142257142Y-104064285D01*
X142233333Y-104040476D01*
X142185714Y-104016666D01*
X142066666Y-104016666D01*
X142019047Y-104040476D01*
X141995238Y-104064285D01*
X141971428Y-104111904D01*
X141971428Y-104230952D01*
X141995238Y-104278571D01*
X142019047Y-104302380D01*
X142066666Y-104326190D01*
X142185714Y-104326190D01*
X142233333Y-104302380D01*
X142257142Y-104278571D01*
X141828571Y-103826190D02*
X141661904Y-104326190D01*
X141495238Y-103826190D01*
X139780952Y-103850000D02*
X139828571Y-103826190D01*
X139900000Y-103826190D01*
X139971428Y-103850000D01*
X140019047Y-103897619D01*
X140042857Y-103945238D01*
X140066666Y-104040476D01*
X140066666Y-104111904D01*
X140042857Y-104207142D01*
X140019047Y-104254761D01*
X139971428Y-104302380D01*
X139900000Y-104326190D01*
X139852380Y-104326190D01*
X139780952Y-104302380D01*
X139757142Y-104278571D01*
X139757142Y-104111904D01*
X139852380Y-104111904D01*
X139542857Y-104326190D02*
X139542857Y-103826190D01*
X139257142Y-104326190D01*
X139257142Y-103826190D01*
X139019047Y-104326190D02*
X139019047Y-103826190D01*
X138900000Y-103826190D01*
X138828571Y-103850000D01*
X138780952Y-103897619D01*
X138757142Y-103945238D01*
X138733333Y-104040476D01*
X138733333Y-104111904D01*
X138757142Y-104207142D01*
X138780952Y-104254761D01*
X138828571Y-104302380D01*
X138900000Y-104326190D01*
X139019047Y-104326190D01*
X134116666Y-108847619D02*
X134116666Y-108609523D01*
X133973809Y-108895238D02*
X134473809Y-108728571D01*
X133973809Y-108561904D01*
X133973809Y-108395238D02*
X134473809Y-108395238D01*
X134473809Y-108276190D01*
X134450000Y-108204761D01*
X134402380Y-108157142D01*
X134354761Y-108133333D01*
X134259523Y-108109523D01*
X134188095Y-108109523D01*
X134092857Y-108133333D01*
X134045238Y-108157142D01*
X133997619Y-108204761D01*
X133973809Y-108276190D01*
X133973809Y-108395238D01*
X134021428Y-107609523D02*
X133997619Y-107633333D01*
X133973809Y-107704761D01*
X133973809Y-107752380D01*
X133997619Y-107823809D01*
X134045238Y-107871428D01*
X134092857Y-107895238D01*
X134188095Y-107919047D01*
X134259523Y-107919047D01*
X134354761Y-107895238D01*
X134402380Y-107871428D01*
X134450000Y-107823809D01*
X134473809Y-107752380D01*
X134473809Y-107704761D01*
X134450000Y-107633333D01*
X134426190Y-107609523D01*
X133926190Y-107514285D02*
X133926190Y-107133333D01*
X133973809Y-106752380D02*
X133973809Y-107038095D01*
X133973809Y-106895238D02*
X134473809Y-106895238D01*
X134402380Y-106942857D01*
X134354761Y-106990476D01*
X134330952Y-107038095D01*
X133450000Y-108580952D02*
X133473809Y-108628571D01*
X133473809Y-108700000D01*
X133450000Y-108771428D01*
X133402380Y-108819047D01*
X133354761Y-108842857D01*
X133259523Y-108866666D01*
X133188095Y-108866666D01*
X133092857Y-108842857D01*
X133045238Y-108819047D01*
X132997619Y-108771428D01*
X132973809Y-108700000D01*
X132973809Y-108652380D01*
X132997619Y-108580952D01*
X133021428Y-108557142D01*
X133188095Y-108557142D01*
X133188095Y-108652380D01*
X132973809Y-108342857D02*
X133473809Y-108342857D01*
X132973809Y-108057142D01*
X133473809Y-108057142D01*
X132973809Y-107819047D02*
X133473809Y-107819047D01*
X133473809Y-107700000D01*
X133450000Y-107628571D01*
X133402380Y-107580952D01*
X133354761Y-107557142D01*
X133259523Y-107533333D01*
X133188095Y-107533333D01*
X133092857Y-107557142D01*
X133045238Y-107580952D01*
X132997619Y-107628571D01*
X132973809Y-107700000D01*
X132973809Y-107819047D01*
X135373809Y-108819047D02*
X135373809Y-108509523D01*
X135183333Y-108676190D01*
X135183333Y-108604761D01*
X135159523Y-108557142D01*
X135135714Y-108533333D01*
X135088095Y-108509523D01*
X134969047Y-108509523D01*
X134921428Y-108533333D01*
X134897619Y-108557142D01*
X134873809Y-108604761D01*
X134873809Y-108747619D01*
X134897619Y-108795238D01*
X134921428Y-108819047D01*
X135373809Y-108366666D02*
X134873809Y-108200000D01*
X135373809Y-108033333D01*
X135373809Y-107914285D02*
X135373809Y-107604761D01*
X135183333Y-107771428D01*
X135183333Y-107700000D01*
X135159523Y-107652380D01*
X135135714Y-107628571D01*
X135088095Y-107604761D01*
X134969047Y-107604761D01*
X134921428Y-107628571D01*
X134897619Y-107652380D01*
X134873809Y-107700000D01*
X134873809Y-107842857D01*
X134897619Y-107890476D01*
X134921428Y-107914285D01*
X128273809Y-108819047D02*
X128273809Y-108509523D01*
X128083333Y-108676190D01*
X128083333Y-108604761D01*
X128059523Y-108557142D01*
X128035714Y-108533333D01*
X127988095Y-108509523D01*
X127869047Y-108509523D01*
X127821428Y-108533333D01*
X127797619Y-108557142D01*
X127773809Y-108604761D01*
X127773809Y-108747619D01*
X127797619Y-108795238D01*
X127821428Y-108819047D01*
X128273809Y-108366666D02*
X127773809Y-108200000D01*
X128273809Y-108033333D01*
X128273809Y-107914285D02*
X128273809Y-107604761D01*
X128083333Y-107771428D01*
X128083333Y-107700000D01*
X128059523Y-107652380D01*
X128035714Y-107628571D01*
X127988095Y-107604761D01*
X127869047Y-107604761D01*
X127821428Y-107628571D01*
X127797619Y-107652380D01*
X127773809Y-107700000D01*
X127773809Y-107842857D01*
X127797619Y-107890476D01*
X127821428Y-107914285D01*
X126250000Y-108680952D02*
X126273809Y-108728571D01*
X126273809Y-108800000D01*
X126250000Y-108871428D01*
X126202380Y-108919047D01*
X126154761Y-108942857D01*
X126059523Y-108966666D01*
X125988095Y-108966666D01*
X125892857Y-108942857D01*
X125845238Y-108919047D01*
X125797619Y-108871428D01*
X125773809Y-108800000D01*
X125773809Y-108752380D01*
X125797619Y-108680952D01*
X125821428Y-108657142D01*
X125988095Y-108657142D01*
X125988095Y-108752380D01*
X125773809Y-108442857D02*
X126273809Y-108442857D01*
X125773809Y-108157142D01*
X126273809Y-108157142D01*
X125773809Y-107919047D02*
X126273809Y-107919047D01*
X126273809Y-107800000D01*
X126250000Y-107728571D01*
X126202380Y-107680952D01*
X126154761Y-107657142D01*
X126059523Y-107633333D01*
X125988095Y-107633333D01*
X125892857Y-107657142D01*
X125845238Y-107680952D01*
X125797619Y-107728571D01*
X125773809Y-107800000D01*
X125773809Y-107919047D01*
X126916666Y-108847619D02*
X126916666Y-108609523D01*
X126773809Y-108895238D02*
X127273809Y-108728571D01*
X126773809Y-108561904D01*
X126773809Y-108395238D02*
X127273809Y-108395238D01*
X127273809Y-108276190D01*
X127250000Y-108204761D01*
X127202380Y-108157142D01*
X127154761Y-108133333D01*
X127059523Y-108109523D01*
X126988095Y-108109523D01*
X126892857Y-108133333D01*
X126845238Y-108157142D01*
X126797619Y-108204761D01*
X126773809Y-108276190D01*
X126773809Y-108395238D01*
X126821428Y-107609523D02*
X126797619Y-107633333D01*
X126773809Y-107704761D01*
X126773809Y-107752380D01*
X126797619Y-107823809D01*
X126845238Y-107871428D01*
X126892857Y-107895238D01*
X126988095Y-107919047D01*
X127059523Y-107919047D01*
X127154761Y-107895238D01*
X127202380Y-107871428D01*
X127250000Y-107823809D01*
X127273809Y-107752380D01*
X127273809Y-107704761D01*
X127250000Y-107633333D01*
X127226190Y-107609523D01*
X126726190Y-107514285D02*
X126726190Y-107133333D01*
X127226190Y-107038095D02*
X127250000Y-107014285D01*
X127273809Y-106966666D01*
X127273809Y-106847619D01*
X127250000Y-106800000D01*
X127226190Y-106776190D01*
X127178571Y-106752380D01*
X127130952Y-106752380D01*
X127059523Y-106776190D01*
X126773809Y-107061904D01*
X126773809Y-106752380D01*
X119716666Y-108747619D02*
X119716666Y-108509523D01*
X119573809Y-108795238D02*
X120073809Y-108628571D01*
X119573809Y-108461904D01*
X119573809Y-108295238D02*
X120073809Y-108295238D01*
X120073809Y-108176190D01*
X120050000Y-108104761D01*
X120002380Y-108057142D01*
X119954761Y-108033333D01*
X119859523Y-108009523D01*
X119788095Y-108009523D01*
X119692857Y-108033333D01*
X119645238Y-108057142D01*
X119597619Y-108104761D01*
X119573809Y-108176190D01*
X119573809Y-108295238D01*
X119621428Y-107509523D02*
X119597619Y-107533333D01*
X119573809Y-107604761D01*
X119573809Y-107652380D01*
X119597619Y-107723809D01*
X119645238Y-107771428D01*
X119692857Y-107795238D01*
X119788095Y-107819047D01*
X119859523Y-107819047D01*
X119954761Y-107795238D01*
X120002380Y-107771428D01*
X120050000Y-107723809D01*
X120073809Y-107652380D01*
X120073809Y-107604761D01*
X120050000Y-107533333D01*
X120026190Y-107509523D01*
X119526190Y-107414285D02*
X119526190Y-107033333D01*
X120073809Y-106961904D02*
X120073809Y-106652380D01*
X119883333Y-106819047D01*
X119883333Y-106747619D01*
X119859523Y-106700000D01*
X119835714Y-106676190D01*
X119788095Y-106652380D01*
X119669047Y-106652380D01*
X119621428Y-106676190D01*
X119597619Y-106700000D01*
X119573809Y-106747619D01*
X119573809Y-106890476D01*
X119597619Y-106938095D01*
X119621428Y-106961904D01*
X118950000Y-108480952D02*
X118973809Y-108528571D01*
X118973809Y-108600000D01*
X118950000Y-108671428D01*
X118902380Y-108719047D01*
X118854761Y-108742857D01*
X118759523Y-108766666D01*
X118688095Y-108766666D01*
X118592857Y-108742857D01*
X118545238Y-108719047D01*
X118497619Y-108671428D01*
X118473809Y-108600000D01*
X118473809Y-108552380D01*
X118497619Y-108480952D01*
X118521428Y-108457142D01*
X118688095Y-108457142D01*
X118688095Y-108552380D01*
X118473809Y-108242857D02*
X118973809Y-108242857D01*
X118473809Y-107957142D01*
X118973809Y-107957142D01*
X118473809Y-107719047D02*
X118973809Y-107719047D01*
X118973809Y-107600000D01*
X118950000Y-107528571D01*
X118902380Y-107480952D01*
X118854761Y-107457142D01*
X118759523Y-107433333D01*
X118688095Y-107433333D01*
X118592857Y-107457142D01*
X118545238Y-107480952D01*
X118497619Y-107528571D01*
X118473809Y-107600000D01*
X118473809Y-107719047D01*
X121073809Y-108719047D02*
X121073809Y-108409523D01*
X120883333Y-108576190D01*
X120883333Y-108504761D01*
X120859523Y-108457142D01*
X120835714Y-108433333D01*
X120788095Y-108409523D01*
X120669047Y-108409523D01*
X120621428Y-108433333D01*
X120597619Y-108457142D01*
X120573809Y-108504761D01*
X120573809Y-108647619D01*
X120597619Y-108695238D01*
X120621428Y-108719047D01*
X121073809Y-108266666D02*
X120573809Y-108100000D01*
X121073809Y-107933333D01*
X121073809Y-107814285D02*
X121073809Y-107504761D01*
X120883333Y-107671428D01*
X120883333Y-107600000D01*
X120859523Y-107552380D01*
X120835714Y-107528571D01*
X120788095Y-107504761D01*
X120669047Y-107504761D01*
X120621428Y-107528571D01*
X120597619Y-107552380D01*
X120573809Y-107600000D01*
X120573809Y-107742857D01*
X120597619Y-107790476D01*
X120621428Y-107814285D01*
X111397619Y-107895238D02*
X111373809Y-107823809D01*
X111373809Y-107704761D01*
X111397619Y-107657142D01*
X111421428Y-107633333D01*
X111469047Y-107609523D01*
X111516666Y-107609523D01*
X111564285Y-107633333D01*
X111588095Y-107657142D01*
X111611904Y-107704761D01*
X111635714Y-107800000D01*
X111659523Y-107847619D01*
X111683333Y-107871428D01*
X111730952Y-107895238D01*
X111778571Y-107895238D01*
X111826190Y-107871428D01*
X111850000Y-107847619D01*
X111873809Y-107800000D01*
X111873809Y-107680952D01*
X111850000Y-107609523D01*
X111421428Y-107109523D02*
X111397619Y-107133333D01*
X111373809Y-107204761D01*
X111373809Y-107252380D01*
X111397619Y-107323809D01*
X111445238Y-107371428D01*
X111492857Y-107395238D01*
X111588095Y-107419047D01*
X111659523Y-107419047D01*
X111754761Y-107395238D01*
X111802380Y-107371428D01*
X111850000Y-107323809D01*
X111873809Y-107252380D01*
X111873809Y-107204761D01*
X111850000Y-107133333D01*
X111826190Y-107109523D01*
X111373809Y-106657142D02*
X111373809Y-106895238D01*
X111873809Y-106895238D01*
X112297619Y-107907142D02*
X112273809Y-107835714D01*
X112273809Y-107716666D01*
X112297619Y-107669047D01*
X112321428Y-107645238D01*
X112369047Y-107621428D01*
X112416666Y-107621428D01*
X112464285Y-107645238D01*
X112488095Y-107669047D01*
X112511904Y-107716666D01*
X112535714Y-107811904D01*
X112559523Y-107859523D01*
X112583333Y-107883333D01*
X112630952Y-107907142D01*
X112678571Y-107907142D01*
X112726190Y-107883333D01*
X112750000Y-107859523D01*
X112773809Y-107811904D01*
X112773809Y-107692857D01*
X112750000Y-107621428D01*
X112273809Y-107407142D02*
X112773809Y-107407142D01*
X112773809Y-107288095D01*
X112750000Y-107216666D01*
X112702380Y-107169047D01*
X112654761Y-107145238D01*
X112559523Y-107121428D01*
X112488095Y-107121428D01*
X112392857Y-107145238D01*
X112345238Y-107169047D01*
X112297619Y-107216666D01*
X112273809Y-107288095D01*
X112273809Y-107407142D01*
X112416666Y-106930952D02*
X112416666Y-106692857D01*
X112273809Y-106978571D02*
X112773809Y-106811904D01*
X112273809Y-106645238D01*
X113673809Y-107919047D02*
X113673809Y-107609523D01*
X113483333Y-107776190D01*
X113483333Y-107704761D01*
X113459523Y-107657142D01*
X113435714Y-107633333D01*
X113388095Y-107609523D01*
X113269047Y-107609523D01*
X113221428Y-107633333D01*
X113197619Y-107657142D01*
X113173809Y-107704761D01*
X113173809Y-107847619D01*
X113197619Y-107895238D01*
X113221428Y-107919047D01*
X113673809Y-107466666D02*
X113173809Y-107300000D01*
X113673809Y-107133333D01*
X113673809Y-107014285D02*
X113673809Y-106704761D01*
X113483333Y-106871428D01*
X113483333Y-106800000D01*
X113459523Y-106752380D01*
X113435714Y-106728571D01*
X113388095Y-106704761D01*
X113269047Y-106704761D01*
X113221428Y-106728571D01*
X113197619Y-106752380D01*
X113173809Y-106800000D01*
X113173809Y-106942857D01*
X113197619Y-106990476D01*
X113221428Y-107014285D01*
X110850000Y-107680952D02*
X110873809Y-107728571D01*
X110873809Y-107800000D01*
X110850000Y-107871428D01*
X110802380Y-107919047D01*
X110754761Y-107942857D01*
X110659523Y-107966666D01*
X110588095Y-107966666D01*
X110492857Y-107942857D01*
X110445238Y-107919047D01*
X110397619Y-107871428D01*
X110373809Y-107800000D01*
X110373809Y-107752380D01*
X110397619Y-107680952D01*
X110421428Y-107657142D01*
X110588095Y-107657142D01*
X110588095Y-107752380D01*
X110373809Y-107442857D02*
X110873809Y-107442857D01*
X110373809Y-107157142D01*
X110873809Y-107157142D01*
X110373809Y-106919047D02*
X110873809Y-106919047D01*
X110873809Y-106800000D01*
X110850000Y-106728571D01*
X110802380Y-106680952D01*
X110754761Y-106657142D01*
X110659523Y-106633333D01*
X110588095Y-106633333D01*
X110492857Y-106657142D01*
X110445238Y-106680952D01*
X110397619Y-106728571D01*
X110373809Y-106800000D01*
X110373809Y-106919047D01*
X105314285Y-104373809D02*
X105314285Y-104873809D01*
X105480952Y-104516666D01*
X105647619Y-104873809D01*
X105647619Y-104373809D01*
X105885714Y-104373809D02*
X105885714Y-104873809D01*
X106100000Y-104397619D02*
X106171428Y-104373809D01*
X106290476Y-104373809D01*
X106338095Y-104397619D01*
X106361904Y-104421428D01*
X106385714Y-104469047D01*
X106385714Y-104516666D01*
X106361904Y-104564285D01*
X106338095Y-104588095D01*
X106290476Y-104611904D01*
X106195238Y-104635714D01*
X106147619Y-104659523D01*
X106123809Y-104683333D01*
X106100000Y-104730952D01*
X106100000Y-104778571D01*
X106123809Y-104826190D01*
X106147619Y-104850000D01*
X106195238Y-104873809D01*
X106314285Y-104873809D01*
X106385714Y-104850000D01*
X106695238Y-104873809D02*
X106790476Y-104873809D01*
X106838095Y-104850000D01*
X106885714Y-104802380D01*
X106909523Y-104707142D01*
X106909523Y-104540476D01*
X106885714Y-104445238D01*
X106838095Y-104397619D01*
X106790476Y-104373809D01*
X106695238Y-104373809D01*
X106647619Y-104397619D01*
X106600000Y-104445238D01*
X106576190Y-104540476D01*
X106576190Y-104707142D01*
X106600000Y-104802380D01*
X106647619Y-104850000D01*
X106695238Y-104873809D01*
X105557142Y-103397619D02*
X105628571Y-103373809D01*
X105747619Y-103373809D01*
X105795238Y-103397619D01*
X105819047Y-103421428D01*
X105842857Y-103469047D01*
X105842857Y-103516666D01*
X105819047Y-103564285D01*
X105795238Y-103588095D01*
X105747619Y-103611904D01*
X105652380Y-103635714D01*
X105604761Y-103659523D01*
X105580952Y-103683333D01*
X105557142Y-103730952D01*
X105557142Y-103778571D01*
X105580952Y-103826190D01*
X105604761Y-103850000D01*
X105652380Y-103873809D01*
X105771428Y-103873809D01*
X105842857Y-103850000D01*
X106342857Y-103421428D02*
X106319047Y-103397619D01*
X106247619Y-103373809D01*
X106200000Y-103373809D01*
X106128571Y-103397619D01*
X106080952Y-103445238D01*
X106057142Y-103492857D01*
X106033333Y-103588095D01*
X106033333Y-103659523D01*
X106057142Y-103754761D01*
X106080952Y-103802380D01*
X106128571Y-103850000D01*
X106200000Y-103873809D01*
X106247619Y-103873809D01*
X106319047Y-103850000D01*
X106342857Y-103826190D01*
X106557142Y-103373809D02*
X106557142Y-103873809D01*
X106842857Y-103373809D02*
X106628571Y-103659523D01*
X106842857Y-103873809D02*
X106557142Y-103588095D01*
X105314285Y-105273809D02*
X105314285Y-105773809D01*
X105480952Y-105416666D01*
X105647619Y-105773809D01*
X105647619Y-105273809D01*
X105980952Y-105773809D02*
X106076190Y-105773809D01*
X106123809Y-105750000D01*
X106171428Y-105702380D01*
X106195238Y-105607142D01*
X106195238Y-105440476D01*
X106171428Y-105345238D01*
X106123809Y-105297619D01*
X106076190Y-105273809D01*
X105980952Y-105273809D01*
X105933333Y-105297619D01*
X105885714Y-105345238D01*
X105861904Y-105440476D01*
X105861904Y-105607142D01*
X105885714Y-105702380D01*
X105933333Y-105750000D01*
X105980952Y-105773809D01*
X106385714Y-105297619D02*
X106457142Y-105273809D01*
X106576190Y-105273809D01*
X106623809Y-105297619D01*
X106647619Y-105321428D01*
X106671428Y-105369047D01*
X106671428Y-105416666D01*
X106647619Y-105464285D01*
X106623809Y-105488095D01*
X106576190Y-105511904D01*
X106480952Y-105535714D01*
X106433333Y-105559523D01*
X106409523Y-105583333D01*
X106385714Y-105630952D01*
X106385714Y-105678571D01*
X106409523Y-105726190D01*
X106433333Y-105750000D01*
X106480952Y-105773809D01*
X106600000Y-105773809D01*
X106671428Y-105750000D01*
X106885714Y-105273809D02*
X106885714Y-105773809D01*
X105819047Y-102750000D02*
X105771428Y-102773809D01*
X105700000Y-102773809D01*
X105628571Y-102750000D01*
X105580952Y-102702380D01*
X105557142Y-102654761D01*
X105533333Y-102559523D01*
X105533333Y-102488095D01*
X105557142Y-102392857D01*
X105580952Y-102345238D01*
X105628571Y-102297619D01*
X105700000Y-102273809D01*
X105747619Y-102273809D01*
X105819047Y-102297619D01*
X105842857Y-102321428D01*
X105842857Y-102488095D01*
X105747619Y-102488095D01*
X106057142Y-102273809D02*
X106057142Y-102773809D01*
X106342857Y-102273809D01*
X106342857Y-102773809D01*
X106580952Y-102273809D02*
X106580952Y-102773809D01*
X106700000Y-102773809D01*
X106771428Y-102750000D01*
X106819047Y-102702380D01*
X106842857Y-102654761D01*
X106866666Y-102559523D01*
X106866666Y-102488095D01*
X106842857Y-102392857D01*
X106819047Y-102345238D01*
X106771428Y-102297619D01*
X106700000Y-102273809D01*
X106580952Y-102273809D01*
X105680952Y-106773809D02*
X105990476Y-106773809D01*
X105823809Y-106583333D01*
X105895238Y-106583333D01*
X105942857Y-106559523D01*
X105966666Y-106535714D01*
X105990476Y-106488095D01*
X105990476Y-106369047D01*
X105966666Y-106321428D01*
X105942857Y-106297619D01*
X105895238Y-106273809D01*
X105752380Y-106273809D01*
X105704761Y-106297619D01*
X105680952Y-106321428D01*
X106133333Y-106773809D02*
X106300000Y-106273809D01*
X106466666Y-106773809D01*
X106585714Y-106773809D02*
X106895238Y-106773809D01*
X106728571Y-106583333D01*
X106800000Y-106583333D01*
X106847619Y-106559523D01*
X106871428Y-106535714D01*
X106895238Y-106488095D01*
X106895238Y-106369047D01*
X106871428Y-106321428D01*
X106847619Y-106297619D01*
X106800000Y-106273809D01*
X106657142Y-106273809D01*
X106609523Y-106297619D01*
X106585714Y-106321428D01*
D11*
G04 #@! TO.C,J6*
X126490000Y-118670000D02*
X126490000Y-123870000D01*
X116270000Y-118670000D02*
X126490000Y-118670000D01*
X113670000Y-123870000D02*
X126490000Y-123870000D01*
X116270000Y-118670000D02*
X116270000Y-121270000D01*
X116270000Y-121270000D02*
X113670000Y-121270000D01*
X113670000Y-121270000D02*
X113670000Y-123870000D01*
X115000000Y-118670000D02*
X113670000Y-118670000D01*
X113670000Y-118670000D02*
X113670000Y-120000000D01*
D12*
X112396190Y-121103333D02*
X112753333Y-121103333D01*
X112824761Y-121079523D01*
X112872380Y-121031904D01*
X112896190Y-120960476D01*
X112896190Y-120912857D01*
X112396190Y-121555714D02*
X112396190Y-121460476D01*
X112420000Y-121412857D01*
X112443809Y-121389047D01*
X112515238Y-121341428D01*
X112610476Y-121317619D01*
X112800952Y-121317619D01*
X112848571Y-121341428D01*
X112872380Y-121365238D01*
X112896190Y-121412857D01*
X112896190Y-121508095D01*
X112872380Y-121555714D01*
X112848571Y-121579523D01*
X112800952Y-121603333D01*
X112681904Y-121603333D01*
X112634285Y-121579523D01*
X112610476Y-121555714D01*
X112586666Y-121508095D01*
X112586666Y-121412857D01*
X112610476Y-121365238D01*
X112634285Y-121341428D01*
X112681904Y-121317619D01*
G04 #@! TD*
M02*
