G04 #@! TF.GenerationSoftware,KiCad,Pcbnew,5.0.0-rc2-unknown-2cb65f9~65~ubuntu17.10.1*
G04 #@! TF.CreationDate,2018-06-03T21:59:00-07:00*
G04 #@! TF.ProjectId,led_controller,6C65645F636F6E74726F6C6C65722E6B,rev?*
G04 #@! TF.SameCoordinates,Original*
G04 #@! TF.FileFunction,Legend,Top*
G04 #@! TF.FilePolarity,Positive*
%FSLAX46Y46*%
G04 Gerber Fmt 4.6, Leading zero omitted, Abs format (unit mm)*
G04 Created by KiCad (PCBNEW 5.0.0-rc2-unknown-2cb65f9~65~ubuntu17.10.1) date Sun Jun  3 21:59:00 2018*
%MOMM*%
%LPD*%
G01*
G04 APERTURE LIST*
%ADD10C,0.125000*%
%ADD11C,0.120000*%
%ADD12C,0.150000*%
%ADD13C,0.100000*%
G04 APERTURE END LIST*
D10*
X107151190Y-124569047D02*
X107151190Y-124807142D01*
X106651190Y-124807142D01*
X106889285Y-124402380D02*
X106889285Y-124235714D01*
X107151190Y-124164285D02*
X107151190Y-124402380D01*
X106651190Y-124402380D01*
X106651190Y-124164285D01*
X107151190Y-123950000D02*
X106651190Y-123950000D01*
X106651190Y-123830952D01*
X106675000Y-123759523D01*
X106722619Y-123711904D01*
X106770238Y-123688095D01*
X106865476Y-123664285D01*
X106936904Y-123664285D01*
X107032142Y-123688095D01*
X107079761Y-123711904D01*
X107127380Y-123759523D01*
X107151190Y-123830952D01*
X107151190Y-123950000D01*
X107103571Y-122783333D02*
X107127380Y-122807142D01*
X107151190Y-122878571D01*
X107151190Y-122926190D01*
X107127380Y-122997619D01*
X107079761Y-123045238D01*
X107032142Y-123069047D01*
X106936904Y-123092857D01*
X106865476Y-123092857D01*
X106770238Y-123069047D01*
X106722619Y-123045238D01*
X106675000Y-122997619D01*
X106651190Y-122926190D01*
X106651190Y-122878571D01*
X106675000Y-122807142D01*
X106698809Y-122783333D01*
X106651190Y-122473809D02*
X106651190Y-122378571D01*
X106675000Y-122330952D01*
X106722619Y-122283333D01*
X106817857Y-122259523D01*
X106984523Y-122259523D01*
X107079761Y-122283333D01*
X107127380Y-122330952D01*
X107151190Y-122378571D01*
X107151190Y-122473809D01*
X107127380Y-122521428D01*
X107079761Y-122569047D01*
X106984523Y-122592857D01*
X106817857Y-122592857D01*
X106722619Y-122569047D01*
X106675000Y-122521428D01*
X106651190Y-122473809D01*
X107151190Y-122045238D02*
X106651190Y-122045238D01*
X107151190Y-121759523D01*
X106651190Y-121759523D01*
X106651190Y-121592857D02*
X106651190Y-121307142D01*
X107151190Y-121450000D02*
X106651190Y-121450000D01*
X107151190Y-120854761D02*
X106913095Y-121021428D01*
X107151190Y-121140476D02*
X106651190Y-121140476D01*
X106651190Y-120950000D01*
X106675000Y-120902380D01*
X106698809Y-120878571D01*
X106746428Y-120854761D01*
X106817857Y-120854761D01*
X106865476Y-120878571D01*
X106889285Y-120902380D01*
X106913095Y-120950000D01*
X106913095Y-121140476D01*
X106651190Y-120545238D02*
X106651190Y-120450000D01*
X106675000Y-120402380D01*
X106722619Y-120354761D01*
X106817857Y-120330952D01*
X106984523Y-120330952D01*
X107079761Y-120354761D01*
X107127380Y-120402380D01*
X107151190Y-120450000D01*
X107151190Y-120545238D01*
X107127380Y-120592857D01*
X107079761Y-120640476D01*
X106984523Y-120664285D01*
X106817857Y-120664285D01*
X106722619Y-120640476D01*
X106675000Y-120592857D01*
X106651190Y-120545238D01*
X107151190Y-119878571D02*
X107151190Y-120116666D01*
X106651190Y-120116666D01*
X107151190Y-119473809D02*
X107151190Y-119711904D01*
X106651190Y-119711904D01*
X106889285Y-119307142D02*
X106889285Y-119140476D01*
X107151190Y-119069047D02*
X107151190Y-119307142D01*
X106651190Y-119307142D01*
X106651190Y-119069047D01*
X107151190Y-118569047D02*
X106913095Y-118735714D01*
X107151190Y-118854761D02*
X106651190Y-118854761D01*
X106651190Y-118664285D01*
X106675000Y-118616666D01*
X106698809Y-118592857D01*
X106746428Y-118569047D01*
X106817857Y-118569047D01*
X106865476Y-118592857D01*
X106889285Y-118616666D01*
X106913095Y-118664285D01*
X106913095Y-118854761D01*
X106698809Y-117997619D02*
X106675000Y-117973809D01*
X106651190Y-117926190D01*
X106651190Y-117807142D01*
X106675000Y-117759523D01*
X106698809Y-117735714D01*
X106746428Y-117711904D01*
X106794047Y-117711904D01*
X106865476Y-117735714D01*
X107151190Y-118021428D01*
X107151190Y-117711904D01*
X107103571Y-117497619D02*
X107127380Y-117473809D01*
X107151190Y-117497619D01*
X107127380Y-117521428D01*
X107103571Y-117497619D01*
X107151190Y-117497619D01*
X106651190Y-117164285D02*
X106651190Y-117116666D01*
X106675000Y-117069047D01*
X106698809Y-117045238D01*
X106746428Y-117021428D01*
X106841666Y-116997619D01*
X106960714Y-116997619D01*
X107055952Y-117021428D01*
X107103571Y-117045238D01*
X107127380Y-117069047D01*
X107151190Y-117116666D01*
X107151190Y-117164285D01*
X107127380Y-117211904D01*
X107103571Y-117235714D01*
X107055952Y-117259523D01*
X106960714Y-117283333D01*
X106841666Y-117283333D01*
X106746428Y-117259523D01*
X106698809Y-117235714D01*
X106675000Y-117211904D01*
X106651190Y-117164285D01*
X106651190Y-116854761D02*
X107151190Y-116688095D01*
X106651190Y-116521428D01*
X108026190Y-121747619D02*
X108026190Y-122033333D01*
X108026190Y-121890476D02*
X107526190Y-121890476D01*
X107597619Y-121938095D01*
X107645238Y-121985714D01*
X107669047Y-122033333D01*
X107740476Y-121461904D02*
X107716666Y-121509523D01*
X107692857Y-121533333D01*
X107645238Y-121557142D01*
X107621428Y-121557142D01*
X107573809Y-121533333D01*
X107550000Y-121509523D01*
X107526190Y-121461904D01*
X107526190Y-121366666D01*
X107550000Y-121319047D01*
X107573809Y-121295238D01*
X107621428Y-121271428D01*
X107645238Y-121271428D01*
X107692857Y-121295238D01*
X107716666Y-121319047D01*
X107740476Y-121366666D01*
X107740476Y-121461904D01*
X107764285Y-121509523D01*
X107788095Y-121533333D01*
X107835714Y-121557142D01*
X107930952Y-121557142D01*
X107978571Y-121533333D01*
X108002380Y-121509523D01*
X108026190Y-121461904D01*
X108026190Y-121366666D01*
X108002380Y-121319047D01*
X107978571Y-121295238D01*
X107930952Y-121271428D01*
X107835714Y-121271428D01*
X107788095Y-121295238D01*
X107764285Y-121319047D01*
X107740476Y-121366666D01*
X107526190Y-120961904D02*
X107526190Y-120914285D01*
X107550000Y-120866666D01*
X107573809Y-120842857D01*
X107621428Y-120819047D01*
X107716666Y-120795238D01*
X107835714Y-120795238D01*
X107930952Y-120819047D01*
X107978571Y-120842857D01*
X108002380Y-120866666D01*
X108026190Y-120914285D01*
X108026190Y-120961904D01*
X108002380Y-121009523D01*
X107978571Y-121033333D01*
X107930952Y-121057142D01*
X107835714Y-121080952D01*
X107716666Y-121080952D01*
X107621428Y-121057142D01*
X107573809Y-121033333D01*
X107550000Y-121009523D01*
X107526190Y-120961904D01*
X107526190Y-120366666D02*
X107526190Y-120461904D01*
X107550000Y-120509523D01*
X107573809Y-120533333D01*
X107645238Y-120580952D01*
X107740476Y-120604761D01*
X107930952Y-120604761D01*
X107978571Y-120580952D01*
X108002380Y-120557142D01*
X108026190Y-120509523D01*
X108026190Y-120414285D01*
X108002380Y-120366666D01*
X107978571Y-120342857D01*
X107930952Y-120319047D01*
X107811904Y-120319047D01*
X107764285Y-120342857D01*
X107740476Y-120366666D01*
X107716666Y-120414285D01*
X107716666Y-120509523D01*
X107740476Y-120557142D01*
X107764285Y-120580952D01*
X107811904Y-120604761D01*
X107526190Y-120009523D02*
X107526190Y-119961904D01*
X107550000Y-119914285D01*
X107573809Y-119890476D01*
X107621428Y-119866666D01*
X107716666Y-119842857D01*
X107835714Y-119842857D01*
X107930952Y-119866666D01*
X107978571Y-119890476D01*
X108002380Y-119914285D01*
X108026190Y-119961904D01*
X108026190Y-120009523D01*
X108002380Y-120057142D01*
X107978571Y-120080952D01*
X107930952Y-120104761D01*
X107835714Y-120128571D01*
X107716666Y-120128571D01*
X107621428Y-120104761D01*
X107573809Y-120080952D01*
X107550000Y-120057142D01*
X107526190Y-120009523D01*
X107526190Y-119676190D02*
X107526190Y-119366666D01*
X107716666Y-119533333D01*
X107716666Y-119461904D01*
X107740476Y-119414285D01*
X107764285Y-119390476D01*
X107811904Y-119366666D01*
X107930952Y-119366666D01*
X107978571Y-119390476D01*
X108002380Y-119414285D01*
X108026190Y-119461904D01*
X108026190Y-119604761D01*
X108002380Y-119652380D01*
X107978571Y-119676190D01*
X108639285Y-121176190D02*
X108639285Y-121342857D01*
X108901190Y-121342857D02*
X108401190Y-121342857D01*
X108401190Y-121104761D01*
X108901190Y-120914285D02*
X108401190Y-120914285D01*
X108401190Y-120747619D02*
X108401190Y-120461904D01*
X108901190Y-120604761D02*
X108401190Y-120604761D01*
X108401190Y-120342857D02*
X108401190Y-120009523D01*
X108901190Y-120342857D01*
X108901190Y-120009523D01*
X115250000Y-124319047D02*
X115273809Y-124271428D01*
X115273809Y-124200000D01*
X115250000Y-124128571D01*
X115202380Y-124080952D01*
X115154761Y-124057142D01*
X115059523Y-124033333D01*
X114988095Y-124033333D01*
X114892857Y-124057142D01*
X114845238Y-124080952D01*
X114797619Y-124128571D01*
X114773809Y-124200000D01*
X114773809Y-124247619D01*
X114797619Y-124319047D01*
X114821428Y-124342857D01*
X114988095Y-124342857D01*
X114988095Y-124247619D01*
X114773809Y-124557142D02*
X115273809Y-124557142D01*
X114773809Y-124842857D01*
X115273809Y-124842857D01*
X114773809Y-125080952D02*
X115273809Y-125080952D01*
X115273809Y-125200000D01*
X115250000Y-125271428D01*
X115202380Y-125319047D01*
X115154761Y-125342857D01*
X115059523Y-125366666D01*
X114988095Y-125366666D01*
X114892857Y-125342857D01*
X114845238Y-125319047D01*
X114797619Y-125271428D01*
X114773809Y-125200000D01*
X114773809Y-125080952D01*
X117273809Y-124616666D02*
X117511904Y-124450000D01*
X117273809Y-124330952D02*
X117773809Y-124330952D01*
X117773809Y-124521428D01*
X117750000Y-124569047D01*
X117726190Y-124592857D01*
X117678571Y-124616666D01*
X117607142Y-124616666D01*
X117559523Y-124592857D01*
X117535714Y-124569047D01*
X117511904Y-124521428D01*
X117511904Y-124330952D01*
X117773809Y-124783333D02*
X117273809Y-125116666D01*
X117773809Y-125116666D02*
X117273809Y-124783333D01*
X119797619Y-124092857D02*
X119773809Y-124164285D01*
X119773809Y-124283333D01*
X119797619Y-124330952D01*
X119821428Y-124354761D01*
X119869047Y-124378571D01*
X119916666Y-124378571D01*
X119964285Y-124354761D01*
X119988095Y-124330952D01*
X120011904Y-124283333D01*
X120035714Y-124188095D01*
X120059523Y-124140476D01*
X120083333Y-124116666D01*
X120130952Y-124092857D01*
X120178571Y-124092857D01*
X120226190Y-124116666D01*
X120250000Y-124140476D01*
X120273809Y-124188095D01*
X120273809Y-124307142D01*
X120250000Y-124378571D01*
X119773809Y-124592857D02*
X120273809Y-124592857D01*
X120273809Y-124711904D01*
X120250000Y-124783333D01*
X120202380Y-124830952D01*
X120154761Y-124854761D01*
X120059523Y-124878571D01*
X119988095Y-124878571D01*
X119892857Y-124854761D01*
X119845238Y-124830952D01*
X119797619Y-124783333D01*
X119773809Y-124711904D01*
X119773809Y-124592857D01*
X119916666Y-125069047D02*
X119916666Y-125307142D01*
X119773809Y-125021428D02*
X120273809Y-125188095D01*
X119773809Y-125354761D01*
X122473809Y-123814285D02*
X122973809Y-123814285D01*
X122616666Y-123980952D01*
X122973809Y-124147619D01*
X122473809Y-124147619D01*
X122973809Y-124480952D02*
X122973809Y-124576190D01*
X122950000Y-124623809D01*
X122902380Y-124671428D01*
X122807142Y-124695238D01*
X122640476Y-124695238D01*
X122545238Y-124671428D01*
X122497619Y-124623809D01*
X122473809Y-124576190D01*
X122473809Y-124480952D01*
X122497619Y-124433333D01*
X122545238Y-124385714D01*
X122640476Y-124361904D01*
X122807142Y-124361904D01*
X122902380Y-124385714D01*
X122950000Y-124433333D01*
X122973809Y-124480952D01*
X122497619Y-124885714D02*
X122473809Y-124957142D01*
X122473809Y-125076190D01*
X122497619Y-125123809D01*
X122521428Y-125147619D01*
X122569047Y-125171428D01*
X122616666Y-125171428D01*
X122664285Y-125147619D01*
X122688095Y-125123809D01*
X122711904Y-125076190D01*
X122735714Y-124980952D01*
X122759523Y-124933333D01*
X122783333Y-124909523D01*
X122830952Y-124885714D01*
X122878571Y-124885714D01*
X122926190Y-124909523D01*
X122950000Y-124933333D01*
X122973809Y-124980952D01*
X122973809Y-125100000D01*
X122950000Y-125171428D01*
X122473809Y-125385714D02*
X122973809Y-125385714D01*
X125021428Y-124616666D02*
X124997619Y-124592857D01*
X124973809Y-124521428D01*
X124973809Y-124473809D01*
X124997619Y-124402380D01*
X125045238Y-124354761D01*
X125092857Y-124330952D01*
X125188095Y-124307142D01*
X125259523Y-124307142D01*
X125354761Y-124330952D01*
X125402380Y-124354761D01*
X125450000Y-124402380D01*
X125473809Y-124473809D01*
X125473809Y-124521428D01*
X125450000Y-124592857D01*
X125426190Y-124616666D01*
X124997619Y-124807142D02*
X124973809Y-124878571D01*
X124973809Y-124997619D01*
X124997619Y-125045238D01*
X125021428Y-125069047D01*
X125069047Y-125092857D01*
X125116666Y-125092857D01*
X125164285Y-125069047D01*
X125188095Y-125045238D01*
X125211904Y-124997619D01*
X125235714Y-124902380D01*
X125259523Y-124854761D01*
X125283333Y-124830952D01*
X125330952Y-124807142D01*
X125378571Y-124807142D01*
X125426190Y-124830952D01*
X125450000Y-124854761D01*
X125473809Y-124902380D01*
X125473809Y-125021428D01*
X125450000Y-125092857D01*
X124997619Y-117057142D02*
X124973809Y-117128571D01*
X124973809Y-117247619D01*
X124997619Y-117295238D01*
X125021428Y-117319047D01*
X125069047Y-117342857D01*
X125116666Y-117342857D01*
X125164285Y-117319047D01*
X125188095Y-117295238D01*
X125211904Y-117247619D01*
X125235714Y-117152380D01*
X125259523Y-117104761D01*
X125283333Y-117080952D01*
X125330952Y-117057142D01*
X125378571Y-117057142D01*
X125426190Y-117080952D01*
X125450000Y-117104761D01*
X125473809Y-117152380D01*
X125473809Y-117271428D01*
X125450000Y-117342857D01*
X125021428Y-117842857D02*
X124997619Y-117819047D01*
X124973809Y-117747619D01*
X124973809Y-117700000D01*
X124997619Y-117628571D01*
X125045238Y-117580952D01*
X125092857Y-117557142D01*
X125188095Y-117533333D01*
X125259523Y-117533333D01*
X125354761Y-117557142D01*
X125402380Y-117580952D01*
X125450000Y-117628571D01*
X125473809Y-117700000D01*
X125473809Y-117747619D01*
X125450000Y-117819047D01*
X125426190Y-117842857D01*
X124973809Y-118057142D02*
X125473809Y-118057142D01*
X124973809Y-118342857D02*
X125259523Y-118128571D01*
X125473809Y-118342857D02*
X125188095Y-118057142D01*
X122373809Y-116914285D02*
X122873809Y-116914285D01*
X122516666Y-117080952D01*
X122873809Y-117247619D01*
X122373809Y-117247619D01*
X122373809Y-117485714D02*
X122873809Y-117485714D01*
X122397619Y-117700000D02*
X122373809Y-117771428D01*
X122373809Y-117890476D01*
X122397619Y-117938095D01*
X122421428Y-117961904D01*
X122469047Y-117985714D01*
X122516666Y-117985714D01*
X122564285Y-117961904D01*
X122588095Y-117938095D01*
X122611904Y-117890476D01*
X122635714Y-117795238D01*
X122659523Y-117747619D01*
X122683333Y-117723809D01*
X122730952Y-117700000D01*
X122778571Y-117700000D01*
X122826190Y-117723809D01*
X122850000Y-117747619D01*
X122873809Y-117795238D01*
X122873809Y-117914285D01*
X122850000Y-117985714D01*
X122873809Y-118295238D02*
X122873809Y-118390476D01*
X122850000Y-118438095D01*
X122802380Y-118485714D01*
X122707142Y-118509523D01*
X122540476Y-118509523D01*
X122445238Y-118485714D01*
X122397619Y-118438095D01*
X122373809Y-118390476D01*
X122373809Y-118295238D01*
X122397619Y-118247619D01*
X122445238Y-118200000D01*
X122540476Y-118176190D01*
X122707142Y-118176190D01*
X122802380Y-118200000D01*
X122850000Y-118247619D01*
X122873809Y-118295238D01*
X119897619Y-117104761D02*
X119873809Y-117176190D01*
X119873809Y-117295238D01*
X119897619Y-117342857D01*
X119921428Y-117366666D01*
X119969047Y-117390476D01*
X120016666Y-117390476D01*
X120064285Y-117366666D01*
X120088095Y-117342857D01*
X120111904Y-117295238D01*
X120135714Y-117200000D01*
X120159523Y-117152380D01*
X120183333Y-117128571D01*
X120230952Y-117104761D01*
X120278571Y-117104761D01*
X120326190Y-117128571D01*
X120350000Y-117152380D01*
X120373809Y-117200000D01*
X120373809Y-117319047D01*
X120350000Y-117390476D01*
X119921428Y-117890476D02*
X119897619Y-117866666D01*
X119873809Y-117795238D01*
X119873809Y-117747619D01*
X119897619Y-117676190D01*
X119945238Y-117628571D01*
X119992857Y-117604761D01*
X120088095Y-117580952D01*
X120159523Y-117580952D01*
X120254761Y-117604761D01*
X120302380Y-117628571D01*
X120350000Y-117676190D01*
X120373809Y-117747619D01*
X120373809Y-117795238D01*
X120350000Y-117866666D01*
X120326190Y-117890476D01*
X119873809Y-118342857D02*
X119873809Y-118104761D01*
X120373809Y-118104761D01*
X117773809Y-117319047D02*
X117773809Y-117604761D01*
X117273809Y-117461904D02*
X117773809Y-117461904D01*
X117773809Y-117723809D02*
X117273809Y-118057142D01*
X117773809Y-118057142D02*
X117273809Y-117723809D01*
X115273809Y-117080952D02*
X115273809Y-117390476D01*
X115083333Y-117223809D01*
X115083333Y-117295238D01*
X115059523Y-117342857D01*
X115035714Y-117366666D01*
X114988095Y-117390476D01*
X114869047Y-117390476D01*
X114821428Y-117366666D01*
X114797619Y-117342857D01*
X114773809Y-117295238D01*
X114773809Y-117152380D01*
X114797619Y-117104761D01*
X114821428Y-117080952D01*
X115273809Y-117533333D02*
X114773809Y-117700000D01*
X115273809Y-117866666D01*
X115273809Y-117985714D02*
X115273809Y-118295238D01*
X115083333Y-118128571D01*
X115083333Y-118200000D01*
X115059523Y-118247619D01*
X115035714Y-118271428D01*
X114988095Y-118295238D01*
X114869047Y-118295238D01*
X114821428Y-118271428D01*
X114797619Y-118247619D01*
X114773809Y-118200000D01*
X114773809Y-118057142D01*
X114797619Y-118009523D01*
X114821428Y-117985714D01*
X110850000Y-106919047D02*
X110873809Y-106871428D01*
X110873809Y-106800000D01*
X110850000Y-106728571D01*
X110802380Y-106680952D01*
X110754761Y-106657142D01*
X110659523Y-106633333D01*
X110588095Y-106633333D01*
X110492857Y-106657142D01*
X110445238Y-106680952D01*
X110397619Y-106728571D01*
X110373809Y-106800000D01*
X110373809Y-106847619D01*
X110397619Y-106919047D01*
X110421428Y-106942857D01*
X110588095Y-106942857D01*
X110588095Y-106847619D01*
X110373809Y-107157142D02*
X110873809Y-107157142D01*
X110373809Y-107442857D01*
X110873809Y-107442857D01*
X110373809Y-107680952D02*
X110873809Y-107680952D01*
X110873809Y-107800000D01*
X110850000Y-107871428D01*
X110802380Y-107919047D01*
X110754761Y-107942857D01*
X110659523Y-107966666D01*
X110588095Y-107966666D01*
X110492857Y-107942857D01*
X110445238Y-107919047D01*
X110397619Y-107871428D01*
X110373809Y-107800000D01*
X110373809Y-107680952D01*
X138892857Y-122502380D02*
X138964285Y-122526190D01*
X139083333Y-122526190D01*
X139130952Y-122502380D01*
X139154761Y-122478571D01*
X139178571Y-122430952D01*
X139178571Y-122383333D01*
X139154761Y-122335714D01*
X139130952Y-122311904D01*
X139083333Y-122288095D01*
X138988095Y-122264285D01*
X138940476Y-122240476D01*
X138916666Y-122216666D01*
X138892857Y-122169047D01*
X138892857Y-122121428D01*
X138916666Y-122073809D01*
X138940476Y-122050000D01*
X138988095Y-122026190D01*
X139107142Y-122026190D01*
X139178571Y-122050000D01*
X139392857Y-122526190D02*
X139392857Y-122026190D01*
X139511904Y-122026190D01*
X139583333Y-122050000D01*
X139630952Y-122097619D01*
X139654761Y-122145238D01*
X139678571Y-122240476D01*
X139678571Y-122311904D01*
X139654761Y-122407142D01*
X139630952Y-122454761D01*
X139583333Y-122502380D01*
X139511904Y-122526190D01*
X139392857Y-122526190D01*
X139869047Y-122383333D02*
X140107142Y-122383333D01*
X139821428Y-122526190D02*
X139988095Y-122026190D01*
X140154761Y-122526190D01*
X138904761Y-116202380D02*
X138976190Y-116226190D01*
X139095238Y-116226190D01*
X139142857Y-116202380D01*
X139166666Y-116178571D01*
X139190476Y-116130952D01*
X139190476Y-116083333D01*
X139166666Y-116035714D01*
X139142857Y-116011904D01*
X139095238Y-115988095D01*
X139000000Y-115964285D01*
X138952380Y-115940476D01*
X138928571Y-115916666D01*
X138904761Y-115869047D01*
X138904761Y-115821428D01*
X138928571Y-115773809D01*
X138952380Y-115750000D01*
X139000000Y-115726190D01*
X139119047Y-115726190D01*
X139190476Y-115750000D01*
X139690476Y-116178571D02*
X139666666Y-116202380D01*
X139595238Y-116226190D01*
X139547619Y-116226190D01*
X139476190Y-116202380D01*
X139428571Y-116154761D01*
X139404761Y-116107142D01*
X139380952Y-116011904D01*
X139380952Y-115940476D01*
X139404761Y-115845238D01*
X139428571Y-115797619D01*
X139476190Y-115750000D01*
X139547619Y-115726190D01*
X139595238Y-115726190D01*
X139666666Y-115750000D01*
X139690476Y-115773809D01*
X140142857Y-116226190D02*
X139904761Y-116226190D01*
X139904761Y-115726190D01*
X139964285Y-134861904D02*
X139964285Y-134695238D01*
X140226190Y-134623809D02*
X140226190Y-134861904D01*
X139726190Y-134861904D01*
X139726190Y-134623809D01*
X140226190Y-134409523D02*
X139726190Y-134409523D01*
X140226190Y-134123809D01*
X139726190Y-134123809D01*
X140178571Y-133600000D02*
X140202380Y-133623809D01*
X140226190Y-133695238D01*
X140226190Y-133742857D01*
X140202380Y-133814285D01*
X140154761Y-133861904D01*
X140107142Y-133885714D01*
X140011904Y-133909523D01*
X139940476Y-133909523D01*
X139845238Y-133885714D01*
X139797619Y-133861904D01*
X139750000Y-133814285D01*
X139726190Y-133742857D01*
X139726190Y-133695238D01*
X139750000Y-133623809D01*
X139773809Y-133600000D01*
X140273809Y-133504761D02*
X140273809Y-133123809D01*
X139892857Y-132790476D02*
X140226190Y-132790476D01*
X139702380Y-132909523D02*
X140059523Y-133028571D01*
X140059523Y-132719047D01*
X140083333Y-132552380D02*
X140083333Y-132314285D01*
X140226190Y-132600000D02*
X139726190Y-132433333D01*
X140226190Y-132266666D01*
X138750000Y-134580952D02*
X138726190Y-134628571D01*
X138726190Y-134700000D01*
X138750000Y-134771428D01*
X138797619Y-134819047D01*
X138845238Y-134842857D01*
X138940476Y-134866666D01*
X139011904Y-134866666D01*
X139107142Y-134842857D01*
X139154761Y-134819047D01*
X139202380Y-134771428D01*
X139226190Y-134700000D01*
X139226190Y-134652380D01*
X139202380Y-134580952D01*
X139178571Y-134557142D01*
X139011904Y-134557142D01*
X139011904Y-134652380D01*
X139226190Y-134342857D02*
X138726190Y-134342857D01*
X139226190Y-134057142D01*
X138726190Y-134057142D01*
X139226190Y-133819047D02*
X138726190Y-133819047D01*
X138726190Y-133700000D01*
X138750000Y-133628571D01*
X138797619Y-133580952D01*
X138845238Y-133557142D01*
X138940476Y-133533333D01*
X139011904Y-133533333D01*
X139107142Y-133557142D01*
X139154761Y-133580952D01*
X139202380Y-133628571D01*
X139226190Y-133700000D01*
X139226190Y-133819047D01*
X137892857Y-134554761D02*
X138226190Y-134554761D01*
X137702380Y-134673809D02*
X138059523Y-134792857D01*
X138059523Y-134483333D01*
X137964285Y-134126190D02*
X137988095Y-134054761D01*
X138011904Y-134030952D01*
X138059523Y-134007142D01*
X138130952Y-134007142D01*
X138178571Y-134030952D01*
X138202380Y-134054761D01*
X138226190Y-134102380D01*
X138226190Y-134292857D01*
X137726190Y-134292857D01*
X137726190Y-134126190D01*
X137750000Y-134078571D01*
X137773809Y-134054761D01*
X137821428Y-134030952D01*
X137869047Y-134030952D01*
X137916666Y-134054761D01*
X137940476Y-134078571D01*
X137964285Y-134126190D01*
X137964285Y-134292857D01*
X137202380Y-134866666D02*
X137226190Y-134795238D01*
X137226190Y-134676190D01*
X137202380Y-134628571D01*
X137178571Y-134604761D01*
X137130952Y-134580952D01*
X137083333Y-134580952D01*
X137035714Y-134604761D01*
X137011904Y-134628571D01*
X136988095Y-134676190D01*
X136964285Y-134771428D01*
X136940476Y-134819047D01*
X136916666Y-134842857D01*
X136869047Y-134866666D01*
X136821428Y-134866666D01*
X136773809Y-134842857D01*
X136750000Y-134819047D01*
X136726190Y-134771428D01*
X136726190Y-134652380D01*
X136750000Y-134580952D01*
X136726190Y-134414285D02*
X137226190Y-134295238D01*
X136869047Y-134200000D01*
X137226190Y-134104761D01*
X136726190Y-133985714D01*
X136892857Y-133580952D02*
X137226190Y-133580952D01*
X136702380Y-133700000D02*
X137059523Y-133819047D01*
X137059523Y-133509523D01*
X135750000Y-134580952D02*
X135726190Y-134628571D01*
X135726190Y-134700000D01*
X135750000Y-134771428D01*
X135797619Y-134819047D01*
X135845238Y-134842857D01*
X135940476Y-134866666D01*
X136011904Y-134866666D01*
X136107142Y-134842857D01*
X136154761Y-134819047D01*
X136202380Y-134771428D01*
X136226190Y-134700000D01*
X136226190Y-134652380D01*
X136202380Y-134580952D01*
X136178571Y-134557142D01*
X136011904Y-134557142D01*
X136011904Y-134652380D01*
X136226190Y-134342857D02*
X135726190Y-134342857D01*
X136226190Y-134057142D01*
X135726190Y-134057142D01*
X136226190Y-133819047D02*
X135726190Y-133819047D01*
X135726190Y-133700000D01*
X135750000Y-133628571D01*
X135797619Y-133580952D01*
X135845238Y-133557142D01*
X135940476Y-133533333D01*
X136011904Y-133533333D01*
X136107142Y-133557142D01*
X136154761Y-133580952D01*
X136202380Y-133628571D01*
X136226190Y-133700000D01*
X136226190Y-133819047D01*
X130964285Y-132361904D02*
X130964285Y-132195238D01*
X131226190Y-132123809D02*
X131226190Y-132361904D01*
X130726190Y-132361904D01*
X130726190Y-132123809D01*
X131226190Y-131909523D02*
X130726190Y-131909523D01*
X131226190Y-131623809D01*
X130726190Y-131623809D01*
X131178571Y-131100000D02*
X131202380Y-131123809D01*
X131226190Y-131195238D01*
X131226190Y-131242857D01*
X131202380Y-131314285D01*
X131154761Y-131361904D01*
X131107142Y-131385714D01*
X131011904Y-131409523D01*
X130940476Y-131409523D01*
X130845238Y-131385714D01*
X130797619Y-131361904D01*
X130750000Y-131314285D01*
X130726190Y-131242857D01*
X130726190Y-131195238D01*
X130750000Y-131123809D01*
X130773809Y-131100000D01*
X131273809Y-131004761D02*
X131273809Y-130623809D01*
X130726190Y-130552380D02*
X130726190Y-130242857D01*
X130916666Y-130409523D01*
X130916666Y-130338095D01*
X130940476Y-130290476D01*
X130964285Y-130266666D01*
X131011904Y-130242857D01*
X131130952Y-130242857D01*
X131178571Y-130266666D01*
X131202380Y-130290476D01*
X131226190Y-130338095D01*
X131226190Y-130480952D01*
X131202380Y-130528571D01*
X131178571Y-130552380D01*
X131083333Y-130052380D02*
X131083333Y-129814285D01*
X131226190Y-130100000D02*
X130726190Y-129933333D01*
X131226190Y-129766666D01*
X129750000Y-132080952D02*
X129726190Y-132128571D01*
X129726190Y-132200000D01*
X129750000Y-132271428D01*
X129797619Y-132319047D01*
X129845238Y-132342857D01*
X129940476Y-132366666D01*
X130011904Y-132366666D01*
X130107142Y-132342857D01*
X130154761Y-132319047D01*
X130202380Y-132271428D01*
X130226190Y-132200000D01*
X130226190Y-132152380D01*
X130202380Y-132080952D01*
X130178571Y-132057142D01*
X130011904Y-132057142D01*
X130011904Y-132152380D01*
X130226190Y-131842857D02*
X129726190Y-131842857D01*
X130226190Y-131557142D01*
X129726190Y-131557142D01*
X130226190Y-131319047D02*
X129726190Y-131319047D01*
X129726190Y-131200000D01*
X129750000Y-131128571D01*
X129797619Y-131080952D01*
X129845238Y-131057142D01*
X129940476Y-131033333D01*
X130011904Y-131033333D01*
X130107142Y-131057142D01*
X130154761Y-131080952D01*
X130202380Y-131128571D01*
X130226190Y-131200000D01*
X130226190Y-131319047D01*
X128864285Y-132397619D02*
X128864285Y-132230952D01*
X129126190Y-132159523D02*
X129126190Y-132397619D01*
X128626190Y-132397619D01*
X128626190Y-132159523D01*
X129126190Y-131945238D02*
X128626190Y-131945238D01*
X129126190Y-131659523D01*
X128626190Y-131659523D01*
X129078571Y-131135714D02*
X129102380Y-131159523D01*
X129126190Y-131230952D01*
X129126190Y-131278571D01*
X129102380Y-131350000D01*
X129054761Y-131397619D01*
X129007142Y-131421428D01*
X128911904Y-131445238D01*
X128840476Y-131445238D01*
X128745238Y-131421428D01*
X128697619Y-131397619D01*
X128650000Y-131350000D01*
X128626190Y-131278571D01*
X128626190Y-131230952D01*
X128650000Y-131159523D01*
X128673809Y-131135714D01*
X129173809Y-131040476D02*
X129173809Y-130659523D01*
X128626190Y-130588095D02*
X128626190Y-130278571D01*
X128816666Y-130445238D01*
X128816666Y-130373809D01*
X128840476Y-130326190D01*
X128864285Y-130302380D01*
X128911904Y-130278571D01*
X129030952Y-130278571D01*
X129078571Y-130302380D01*
X129102380Y-130326190D01*
X129126190Y-130373809D01*
X129126190Y-130516666D01*
X129102380Y-130564285D01*
X129078571Y-130588095D01*
X128864285Y-129897619D02*
X128888095Y-129826190D01*
X128911904Y-129802380D01*
X128959523Y-129778571D01*
X129030952Y-129778571D01*
X129078571Y-129802380D01*
X129102380Y-129826190D01*
X129126190Y-129873809D01*
X129126190Y-130064285D01*
X128626190Y-130064285D01*
X128626190Y-129897619D01*
X128650000Y-129850000D01*
X128673809Y-129826190D01*
X128721428Y-129802380D01*
X128769047Y-129802380D01*
X128816666Y-129826190D01*
X128840476Y-129850000D01*
X128864285Y-129897619D01*
X128864285Y-130064285D01*
X128102380Y-132366666D02*
X128126190Y-132295238D01*
X128126190Y-132176190D01*
X128102380Y-132128571D01*
X128078571Y-132104761D01*
X128030952Y-132080952D01*
X127983333Y-132080952D01*
X127935714Y-132104761D01*
X127911904Y-132128571D01*
X127888095Y-132176190D01*
X127864285Y-132271428D01*
X127840476Y-132319047D01*
X127816666Y-132342857D01*
X127769047Y-132366666D01*
X127721428Y-132366666D01*
X127673809Y-132342857D01*
X127650000Y-132319047D01*
X127626190Y-132271428D01*
X127626190Y-132152380D01*
X127650000Y-132080952D01*
X127626190Y-131914285D02*
X128126190Y-131795238D01*
X127769047Y-131700000D01*
X128126190Y-131604761D01*
X127626190Y-131485714D01*
X127626190Y-131342857D02*
X127626190Y-131033333D01*
X127816666Y-131200000D01*
X127816666Y-131128571D01*
X127840476Y-131080952D01*
X127864285Y-131057142D01*
X127911904Y-131033333D01*
X128030952Y-131033333D01*
X128078571Y-131057142D01*
X128102380Y-131080952D01*
X128126190Y-131128571D01*
X128126190Y-131271428D01*
X128102380Y-131319047D01*
X128078571Y-131342857D01*
X126750000Y-132080952D02*
X126726190Y-132128571D01*
X126726190Y-132200000D01*
X126750000Y-132271428D01*
X126797619Y-132319047D01*
X126845238Y-132342857D01*
X126940476Y-132366666D01*
X127011904Y-132366666D01*
X127107142Y-132342857D01*
X127154761Y-132319047D01*
X127202380Y-132271428D01*
X127226190Y-132200000D01*
X127226190Y-132152380D01*
X127202380Y-132080952D01*
X127178571Y-132057142D01*
X127011904Y-132057142D01*
X127011904Y-132152380D01*
X127226190Y-131842857D02*
X126726190Y-131842857D01*
X127226190Y-131557142D01*
X126726190Y-131557142D01*
X127226190Y-131319047D02*
X126726190Y-131319047D01*
X126726190Y-131200000D01*
X126750000Y-131128571D01*
X126797619Y-131080952D01*
X126845238Y-131057142D01*
X126940476Y-131033333D01*
X127011904Y-131033333D01*
X127107142Y-131057142D01*
X127154761Y-131080952D01*
X127202380Y-131128571D01*
X127226190Y-131200000D01*
X127226190Y-131319047D01*
X121864285Y-132261904D02*
X121864285Y-132095238D01*
X122126190Y-132023809D02*
X122126190Y-132261904D01*
X121626190Y-132261904D01*
X121626190Y-132023809D01*
X122126190Y-131809523D02*
X121626190Y-131809523D01*
X122126190Y-131523809D01*
X121626190Y-131523809D01*
X122078571Y-131000000D02*
X122102380Y-131023809D01*
X122126190Y-131095238D01*
X122126190Y-131142857D01*
X122102380Y-131214285D01*
X122054761Y-131261904D01*
X122007142Y-131285714D01*
X121911904Y-131309523D01*
X121840476Y-131309523D01*
X121745238Y-131285714D01*
X121697619Y-131261904D01*
X121650000Y-131214285D01*
X121626190Y-131142857D01*
X121626190Y-131095238D01*
X121650000Y-131023809D01*
X121673809Y-131000000D01*
X122173809Y-130904761D02*
X122173809Y-130523809D01*
X121673809Y-130428571D02*
X121650000Y-130404761D01*
X121626190Y-130357142D01*
X121626190Y-130238095D01*
X121650000Y-130190476D01*
X121673809Y-130166666D01*
X121721428Y-130142857D01*
X121769047Y-130142857D01*
X121840476Y-130166666D01*
X122126190Y-130452380D01*
X122126190Y-130142857D01*
X121983333Y-129952380D02*
X121983333Y-129714285D01*
X122126190Y-130000000D02*
X121626190Y-129833333D01*
X122126190Y-129666666D01*
X120650000Y-131980952D02*
X120626190Y-132028571D01*
X120626190Y-132100000D01*
X120650000Y-132171428D01*
X120697619Y-132219047D01*
X120745238Y-132242857D01*
X120840476Y-132266666D01*
X120911904Y-132266666D01*
X121007142Y-132242857D01*
X121054761Y-132219047D01*
X121102380Y-132171428D01*
X121126190Y-132100000D01*
X121126190Y-132052380D01*
X121102380Y-131980952D01*
X121078571Y-131957142D01*
X120911904Y-131957142D01*
X120911904Y-132052380D01*
X121126190Y-131742857D02*
X120626190Y-131742857D01*
X121126190Y-131457142D01*
X120626190Y-131457142D01*
X121126190Y-131219047D02*
X120626190Y-131219047D01*
X120626190Y-131100000D01*
X120650000Y-131028571D01*
X120697619Y-130980952D01*
X120745238Y-130957142D01*
X120840476Y-130933333D01*
X120911904Y-130933333D01*
X121007142Y-130957142D01*
X121054761Y-130980952D01*
X121102380Y-131028571D01*
X121126190Y-131100000D01*
X121126190Y-131219047D01*
X119964285Y-132297619D02*
X119964285Y-132130952D01*
X120226190Y-132059523D02*
X120226190Y-132297619D01*
X119726190Y-132297619D01*
X119726190Y-132059523D01*
X120226190Y-131845238D02*
X119726190Y-131845238D01*
X120226190Y-131559523D01*
X119726190Y-131559523D01*
X120178571Y-131035714D02*
X120202380Y-131059523D01*
X120226190Y-131130952D01*
X120226190Y-131178571D01*
X120202380Y-131250000D01*
X120154761Y-131297619D01*
X120107142Y-131321428D01*
X120011904Y-131345238D01*
X119940476Y-131345238D01*
X119845238Y-131321428D01*
X119797619Y-131297619D01*
X119750000Y-131250000D01*
X119726190Y-131178571D01*
X119726190Y-131130952D01*
X119750000Y-131059523D01*
X119773809Y-131035714D01*
X120273809Y-130940476D02*
X120273809Y-130559523D01*
X119773809Y-130464285D02*
X119750000Y-130440476D01*
X119726190Y-130392857D01*
X119726190Y-130273809D01*
X119750000Y-130226190D01*
X119773809Y-130202380D01*
X119821428Y-130178571D01*
X119869047Y-130178571D01*
X119940476Y-130202380D01*
X120226190Y-130488095D01*
X120226190Y-130178571D01*
X119964285Y-129797619D02*
X119988095Y-129726190D01*
X120011904Y-129702380D01*
X120059523Y-129678571D01*
X120130952Y-129678571D01*
X120178571Y-129702380D01*
X120202380Y-129726190D01*
X120226190Y-129773809D01*
X120226190Y-129964285D01*
X119726190Y-129964285D01*
X119726190Y-129797619D01*
X119750000Y-129750000D01*
X119773809Y-129726190D01*
X119821428Y-129702380D01*
X119869047Y-129702380D01*
X119916666Y-129726190D01*
X119940476Y-129750000D01*
X119964285Y-129797619D01*
X119964285Y-129964285D01*
X119202380Y-132266666D02*
X119226190Y-132195238D01*
X119226190Y-132076190D01*
X119202380Y-132028571D01*
X119178571Y-132004761D01*
X119130952Y-131980952D01*
X119083333Y-131980952D01*
X119035714Y-132004761D01*
X119011904Y-132028571D01*
X118988095Y-132076190D01*
X118964285Y-132171428D01*
X118940476Y-132219047D01*
X118916666Y-132242857D01*
X118869047Y-132266666D01*
X118821428Y-132266666D01*
X118773809Y-132242857D01*
X118750000Y-132219047D01*
X118726190Y-132171428D01*
X118726190Y-132052380D01*
X118750000Y-131980952D01*
X118726190Y-131814285D02*
X119226190Y-131695238D01*
X118869047Y-131600000D01*
X119226190Y-131504761D01*
X118726190Y-131385714D01*
X118773809Y-131219047D02*
X118750000Y-131195238D01*
X118726190Y-131147619D01*
X118726190Y-131028571D01*
X118750000Y-130980952D01*
X118773809Y-130957142D01*
X118821428Y-130933333D01*
X118869047Y-130933333D01*
X118940476Y-130957142D01*
X119226190Y-131242857D01*
X119226190Y-130933333D01*
X117750000Y-134380952D02*
X117726190Y-134428571D01*
X117726190Y-134500000D01*
X117750000Y-134571428D01*
X117797619Y-134619047D01*
X117845238Y-134642857D01*
X117940476Y-134666666D01*
X118011904Y-134666666D01*
X118107142Y-134642857D01*
X118154761Y-134619047D01*
X118202380Y-134571428D01*
X118226190Y-134500000D01*
X118226190Y-134452380D01*
X118202380Y-134380952D01*
X118178571Y-134357142D01*
X118011904Y-134357142D01*
X118011904Y-134452380D01*
X118226190Y-134142857D02*
X117726190Y-134142857D01*
X118226190Y-133857142D01*
X117726190Y-133857142D01*
X118226190Y-133619047D02*
X117726190Y-133619047D01*
X117726190Y-133500000D01*
X117750000Y-133428571D01*
X117797619Y-133380952D01*
X117845238Y-133357142D01*
X117940476Y-133333333D01*
X118011904Y-133333333D01*
X118107142Y-133357142D01*
X118154761Y-133380952D01*
X118202380Y-133428571D01*
X118226190Y-133500000D01*
X118226190Y-133619047D01*
X112964285Y-132461904D02*
X112964285Y-132295238D01*
X113226190Y-132223809D02*
X113226190Y-132461904D01*
X112726190Y-132461904D01*
X112726190Y-132223809D01*
X113226190Y-132009523D02*
X112726190Y-132009523D01*
X113226190Y-131723809D01*
X112726190Y-131723809D01*
X113178571Y-131200000D02*
X113202380Y-131223809D01*
X113226190Y-131295238D01*
X113226190Y-131342857D01*
X113202380Y-131414285D01*
X113154761Y-131461904D01*
X113107142Y-131485714D01*
X113011904Y-131509523D01*
X112940476Y-131509523D01*
X112845238Y-131485714D01*
X112797619Y-131461904D01*
X112750000Y-131414285D01*
X112726190Y-131342857D01*
X112726190Y-131295238D01*
X112750000Y-131223809D01*
X112773809Y-131200000D01*
X113273809Y-131104761D02*
X113273809Y-130723809D01*
X113226190Y-130342857D02*
X113226190Y-130628571D01*
X113226190Y-130485714D02*
X112726190Y-130485714D01*
X112797619Y-130533333D01*
X112845238Y-130580952D01*
X112869047Y-130628571D01*
X113083333Y-130152380D02*
X113083333Y-129914285D01*
X113226190Y-130200000D02*
X112726190Y-130033333D01*
X113226190Y-129866666D01*
X111750000Y-134480952D02*
X111726190Y-134528571D01*
X111726190Y-134600000D01*
X111750000Y-134671428D01*
X111797619Y-134719047D01*
X111845238Y-134742857D01*
X111940476Y-134766666D01*
X112011904Y-134766666D01*
X112107142Y-134742857D01*
X112154761Y-134719047D01*
X112202380Y-134671428D01*
X112226190Y-134600000D01*
X112226190Y-134552380D01*
X112202380Y-134480952D01*
X112178571Y-134457142D01*
X112011904Y-134457142D01*
X112011904Y-134552380D01*
X112226190Y-134242857D02*
X111726190Y-134242857D01*
X112226190Y-133957142D01*
X111726190Y-133957142D01*
X112226190Y-133719047D02*
X111726190Y-133719047D01*
X111726190Y-133600000D01*
X111750000Y-133528571D01*
X111797619Y-133480952D01*
X111845238Y-133457142D01*
X111940476Y-133433333D01*
X112011904Y-133433333D01*
X112107142Y-133457142D01*
X112154761Y-133480952D01*
X112202380Y-133528571D01*
X112226190Y-133600000D01*
X112226190Y-133719047D01*
X110964285Y-134897619D02*
X110964285Y-134730952D01*
X111226190Y-134659523D02*
X111226190Y-134897619D01*
X110726190Y-134897619D01*
X110726190Y-134659523D01*
X111226190Y-134445238D02*
X110726190Y-134445238D01*
X111226190Y-134159523D01*
X110726190Y-134159523D01*
X111178571Y-133635714D02*
X111202380Y-133659523D01*
X111226190Y-133730952D01*
X111226190Y-133778571D01*
X111202380Y-133850000D01*
X111154761Y-133897619D01*
X111107142Y-133921428D01*
X111011904Y-133945238D01*
X110940476Y-133945238D01*
X110845238Y-133921428D01*
X110797619Y-133897619D01*
X110750000Y-133850000D01*
X110726190Y-133778571D01*
X110726190Y-133730952D01*
X110750000Y-133659523D01*
X110773809Y-133635714D01*
X111273809Y-133540476D02*
X111273809Y-133159523D01*
X111226190Y-132778571D02*
X111226190Y-133064285D01*
X111226190Y-132921428D02*
X110726190Y-132921428D01*
X110797619Y-132969047D01*
X110845238Y-133016666D01*
X110869047Y-133064285D01*
X110964285Y-132397619D02*
X110988095Y-132326190D01*
X111011904Y-132302380D01*
X111059523Y-132278571D01*
X111130952Y-132278571D01*
X111178571Y-132302380D01*
X111202380Y-132326190D01*
X111226190Y-132373809D01*
X111226190Y-132564285D01*
X110726190Y-132564285D01*
X110726190Y-132397619D01*
X110750000Y-132350000D01*
X110773809Y-132326190D01*
X110821428Y-132302380D01*
X110869047Y-132302380D01*
X110916666Y-132326190D01*
X110940476Y-132350000D01*
X110964285Y-132397619D01*
X110964285Y-132564285D01*
X108750000Y-134680952D02*
X108726190Y-134728571D01*
X108726190Y-134800000D01*
X108750000Y-134871428D01*
X108797619Y-134919047D01*
X108845238Y-134942857D01*
X108940476Y-134966666D01*
X109011904Y-134966666D01*
X109107142Y-134942857D01*
X109154761Y-134919047D01*
X109202380Y-134871428D01*
X109226190Y-134800000D01*
X109226190Y-134752380D01*
X109202380Y-134680952D01*
X109178571Y-134657142D01*
X109011904Y-134657142D01*
X109011904Y-134752380D01*
X109226190Y-134442857D02*
X108726190Y-134442857D01*
X109226190Y-134157142D01*
X108726190Y-134157142D01*
X109226190Y-133919047D02*
X108726190Y-133919047D01*
X108726190Y-133800000D01*
X108750000Y-133728571D01*
X108797619Y-133680952D01*
X108845238Y-133657142D01*
X108940476Y-133633333D01*
X109011904Y-133633333D01*
X109107142Y-133657142D01*
X109154761Y-133680952D01*
X109202380Y-133728571D01*
X109226190Y-133800000D01*
X109226190Y-133919047D01*
X110202380Y-134866666D02*
X110226190Y-134795238D01*
X110226190Y-134676190D01*
X110202380Y-134628571D01*
X110178571Y-134604761D01*
X110130952Y-134580952D01*
X110083333Y-134580952D01*
X110035714Y-134604761D01*
X110011904Y-134628571D01*
X109988095Y-134676190D01*
X109964285Y-134771428D01*
X109940476Y-134819047D01*
X109916666Y-134842857D01*
X109869047Y-134866666D01*
X109821428Y-134866666D01*
X109773809Y-134842857D01*
X109750000Y-134819047D01*
X109726190Y-134771428D01*
X109726190Y-134652380D01*
X109750000Y-134580952D01*
X109726190Y-134414285D02*
X110226190Y-134295238D01*
X109869047Y-134200000D01*
X110226190Y-134104761D01*
X109726190Y-133985714D01*
X110226190Y-133533333D02*
X110226190Y-133819047D01*
X110226190Y-133676190D02*
X109726190Y-133676190D01*
X109797619Y-133723809D01*
X109845238Y-133771428D01*
X109869047Y-133819047D01*
X105519047Y-138550000D02*
X105471428Y-138526190D01*
X105400000Y-138526190D01*
X105328571Y-138550000D01*
X105280952Y-138597619D01*
X105257142Y-138645238D01*
X105233333Y-138740476D01*
X105233333Y-138811904D01*
X105257142Y-138907142D01*
X105280952Y-138954761D01*
X105328571Y-139002380D01*
X105400000Y-139026190D01*
X105447619Y-139026190D01*
X105519047Y-139002380D01*
X105542857Y-138978571D01*
X105542857Y-138811904D01*
X105447619Y-138811904D01*
X105757142Y-139026190D02*
X105757142Y-138526190D01*
X106042857Y-139026190D01*
X106042857Y-138526190D01*
X106280952Y-139026190D02*
X106280952Y-138526190D01*
X106400000Y-138526190D01*
X106471428Y-138550000D01*
X106519047Y-138597619D01*
X106542857Y-138645238D01*
X106566666Y-138740476D01*
X106566666Y-138811904D01*
X106542857Y-138907142D01*
X106519047Y-138954761D01*
X106471428Y-139002380D01*
X106400000Y-139026190D01*
X106280952Y-139026190D01*
X106716666Y-136826190D02*
X106550000Y-136588095D01*
X106430952Y-136826190D02*
X106430952Y-136326190D01*
X106621428Y-136326190D01*
X106669047Y-136350000D01*
X106692857Y-136373809D01*
X106716666Y-136421428D01*
X106716666Y-136492857D01*
X106692857Y-136540476D01*
X106669047Y-136564285D01*
X106621428Y-136588095D01*
X106430952Y-136588095D01*
X106883333Y-136326190D02*
X107216666Y-136826190D01*
X107216666Y-136326190D02*
X106883333Y-136826190D01*
X106419047Y-135326190D02*
X106704761Y-135326190D01*
X106561904Y-135826190D02*
X106561904Y-135326190D01*
X106823809Y-135326190D02*
X107157142Y-135826190D01*
X107157142Y-135326190D02*
X106823809Y-135826190D01*
X106380952Y-134326190D02*
X106690476Y-134326190D01*
X106523809Y-134516666D01*
X106595238Y-134516666D01*
X106642857Y-134540476D01*
X106666666Y-134564285D01*
X106690476Y-134611904D01*
X106690476Y-134730952D01*
X106666666Y-134778571D01*
X106642857Y-134802380D01*
X106595238Y-134826190D01*
X106452380Y-134826190D01*
X106404761Y-134802380D01*
X106380952Y-134778571D01*
X106833333Y-134326190D02*
X107000000Y-134826190D01*
X107166666Y-134326190D01*
X107285714Y-134326190D02*
X107595238Y-134326190D01*
X107428571Y-134516666D01*
X107500000Y-134516666D01*
X107547619Y-134540476D01*
X107571428Y-134564285D01*
X107595238Y-134611904D01*
X107595238Y-134730952D01*
X107571428Y-134778571D01*
X107547619Y-134802380D01*
X107500000Y-134826190D01*
X107357142Y-134826190D01*
X107309523Y-134802380D01*
X107285714Y-134778571D01*
X150354761Y-139726190D02*
X150188095Y-139488095D01*
X150069047Y-139726190D02*
X150069047Y-139226190D01*
X150259523Y-139226190D01*
X150307142Y-139250000D01*
X150330952Y-139273809D01*
X150354761Y-139321428D01*
X150354761Y-139392857D01*
X150330952Y-139440476D01*
X150307142Y-139464285D01*
X150259523Y-139488095D01*
X150069047Y-139488095D01*
X150330952Y-133250000D02*
X150283333Y-133226190D01*
X150211904Y-133226190D01*
X150140476Y-133250000D01*
X150092857Y-133297619D01*
X150069047Y-133345238D01*
X150045238Y-133440476D01*
X150045238Y-133511904D01*
X150069047Y-133607142D01*
X150092857Y-133654761D01*
X150140476Y-133702380D01*
X150211904Y-133726190D01*
X150259523Y-133726190D01*
X150330952Y-133702380D01*
X150354761Y-133678571D01*
X150354761Y-133511904D01*
X150259523Y-133511904D01*
X150235714Y-127464285D02*
X150307142Y-127488095D01*
X150330952Y-127511904D01*
X150354761Y-127559523D01*
X150354761Y-127630952D01*
X150330952Y-127678571D01*
X150307142Y-127702380D01*
X150259523Y-127726190D01*
X150069047Y-127726190D01*
X150069047Y-127226190D01*
X150235714Y-127226190D01*
X150283333Y-127250000D01*
X150307142Y-127273809D01*
X150330952Y-127321428D01*
X150330952Y-127369047D01*
X150307142Y-127416666D01*
X150283333Y-127440476D01*
X150235714Y-127464285D01*
X150069047Y-127464285D01*
X155590476Y-118426190D02*
X155304761Y-118426190D01*
X155447619Y-118426190D02*
X155447619Y-117926190D01*
X155400000Y-117997619D01*
X155352380Y-118045238D01*
X155304761Y-118069047D01*
X155780952Y-117973809D02*
X155804761Y-117950000D01*
X155852380Y-117926190D01*
X155971428Y-117926190D01*
X156019047Y-117950000D01*
X156042857Y-117973809D01*
X156066666Y-118021428D01*
X156066666Y-118069047D01*
X156042857Y-118140476D01*
X155757142Y-118426190D01*
X156066666Y-118426190D01*
X156209523Y-117926190D02*
X156376190Y-118426190D01*
X156542857Y-117926190D01*
X154690476Y-111626190D02*
X154404761Y-111626190D01*
X154547619Y-111626190D02*
X154547619Y-111126190D01*
X154500000Y-111197619D01*
X154452380Y-111245238D01*
X154404761Y-111269047D01*
X154880952Y-111173809D02*
X154904761Y-111150000D01*
X154952380Y-111126190D01*
X155071428Y-111126190D01*
X155119047Y-111150000D01*
X155142857Y-111173809D01*
X155166666Y-111221428D01*
X155166666Y-111269047D01*
X155142857Y-111340476D01*
X154857142Y-111626190D01*
X155166666Y-111626190D01*
X155309523Y-111126190D02*
X155476190Y-111626190D01*
X155642857Y-111126190D01*
X146390476Y-103826190D02*
X146152380Y-103826190D01*
X146128571Y-104064285D01*
X146152380Y-104040476D01*
X146200000Y-104016666D01*
X146319047Y-104016666D01*
X146366666Y-104040476D01*
X146390476Y-104064285D01*
X146414285Y-104111904D01*
X146414285Y-104230952D01*
X146390476Y-104278571D01*
X146366666Y-104302380D01*
X146319047Y-104326190D01*
X146200000Y-104326190D01*
X146152380Y-104302380D01*
X146128571Y-104278571D01*
X146557142Y-103826190D02*
X146723809Y-104326190D01*
X146890476Y-103826190D01*
X147414285Y-104302380D02*
X147485714Y-104326190D01*
X147604761Y-104326190D01*
X147652380Y-104302380D01*
X147676190Y-104278571D01*
X147700000Y-104230952D01*
X147700000Y-104183333D01*
X147676190Y-104135714D01*
X147652380Y-104111904D01*
X147604761Y-104088095D01*
X147509523Y-104064285D01*
X147461904Y-104040476D01*
X147438095Y-104016666D01*
X147414285Y-103969047D01*
X147414285Y-103921428D01*
X147438095Y-103873809D01*
X147461904Y-103850000D01*
X147509523Y-103826190D01*
X147628571Y-103826190D01*
X147700000Y-103850000D01*
X147866666Y-103826190D02*
X147985714Y-104326190D01*
X148080952Y-103969047D01*
X148176190Y-104326190D01*
X148295238Y-103826190D01*
X141804761Y-103826190D02*
X141566666Y-103826190D01*
X141542857Y-104064285D01*
X141566666Y-104040476D01*
X141614285Y-104016666D01*
X141733333Y-104016666D01*
X141780952Y-104040476D01*
X141804761Y-104064285D01*
X141828571Y-104111904D01*
X141828571Y-104230952D01*
X141804761Y-104278571D01*
X141780952Y-104302380D01*
X141733333Y-104326190D01*
X141614285Y-104326190D01*
X141566666Y-104302380D01*
X141542857Y-104278571D01*
X141971428Y-103826190D02*
X142138095Y-104326190D01*
X142304761Y-103826190D01*
X139019047Y-103850000D02*
X138971428Y-103826190D01*
X138900000Y-103826190D01*
X138828571Y-103850000D01*
X138780952Y-103897619D01*
X138757142Y-103945238D01*
X138733333Y-104040476D01*
X138733333Y-104111904D01*
X138757142Y-104207142D01*
X138780952Y-104254761D01*
X138828571Y-104302380D01*
X138900000Y-104326190D01*
X138947619Y-104326190D01*
X139019047Y-104302380D01*
X139042857Y-104278571D01*
X139042857Y-104111904D01*
X138947619Y-104111904D01*
X139257142Y-104326190D02*
X139257142Y-103826190D01*
X139542857Y-104326190D01*
X139542857Y-103826190D01*
X139780952Y-104326190D02*
X139780952Y-103826190D01*
X139900000Y-103826190D01*
X139971428Y-103850000D01*
X140019047Y-103897619D01*
X140042857Y-103945238D01*
X140066666Y-104040476D01*
X140066666Y-104111904D01*
X140042857Y-104207142D01*
X140019047Y-104254761D01*
X139971428Y-104302380D01*
X139900000Y-104326190D01*
X139780952Y-104326190D01*
X133450000Y-107119047D02*
X133473809Y-107071428D01*
X133473809Y-107000000D01*
X133450000Y-106928571D01*
X133402380Y-106880952D01*
X133354761Y-106857142D01*
X133259523Y-106833333D01*
X133188095Y-106833333D01*
X133092857Y-106857142D01*
X133045238Y-106880952D01*
X132997619Y-106928571D01*
X132973809Y-107000000D01*
X132973809Y-107047619D01*
X132997619Y-107119047D01*
X133021428Y-107142857D01*
X133188095Y-107142857D01*
X133188095Y-107047619D01*
X132973809Y-107357142D02*
X133473809Y-107357142D01*
X132973809Y-107642857D01*
X133473809Y-107642857D01*
X132973809Y-107880952D02*
X133473809Y-107880952D01*
X133473809Y-108000000D01*
X133450000Y-108071428D01*
X133402380Y-108119047D01*
X133354761Y-108142857D01*
X133259523Y-108166666D01*
X133188095Y-108166666D01*
X133092857Y-108142857D01*
X133045238Y-108119047D01*
X132997619Y-108071428D01*
X132973809Y-108000000D01*
X132973809Y-107880952D01*
X134116666Y-106852380D02*
X134116666Y-107090476D01*
X133973809Y-106804761D02*
X134473809Y-106971428D01*
X133973809Y-107138095D01*
X133973809Y-107304761D02*
X134473809Y-107304761D01*
X134473809Y-107423809D01*
X134450000Y-107495238D01*
X134402380Y-107542857D01*
X134354761Y-107566666D01*
X134259523Y-107590476D01*
X134188095Y-107590476D01*
X134092857Y-107566666D01*
X134045238Y-107542857D01*
X133997619Y-107495238D01*
X133973809Y-107423809D01*
X133973809Y-107304761D01*
X134021428Y-108090476D02*
X133997619Y-108066666D01*
X133973809Y-107995238D01*
X133973809Y-107947619D01*
X133997619Y-107876190D01*
X134045238Y-107828571D01*
X134092857Y-107804761D01*
X134188095Y-107780952D01*
X134259523Y-107780952D01*
X134354761Y-107804761D01*
X134402380Y-107828571D01*
X134450000Y-107876190D01*
X134473809Y-107947619D01*
X134473809Y-107995238D01*
X134450000Y-108066666D01*
X134426190Y-108090476D01*
X133926190Y-108185714D02*
X133926190Y-108566666D01*
X133973809Y-108947619D02*
X133973809Y-108661904D01*
X133973809Y-108804761D02*
X134473809Y-108804761D01*
X134402380Y-108757142D01*
X134354761Y-108709523D01*
X134330952Y-108661904D01*
X135373809Y-106880952D02*
X135373809Y-107190476D01*
X135183333Y-107023809D01*
X135183333Y-107095238D01*
X135159523Y-107142857D01*
X135135714Y-107166666D01*
X135088095Y-107190476D01*
X134969047Y-107190476D01*
X134921428Y-107166666D01*
X134897619Y-107142857D01*
X134873809Y-107095238D01*
X134873809Y-106952380D01*
X134897619Y-106904761D01*
X134921428Y-106880952D01*
X135373809Y-107333333D02*
X134873809Y-107500000D01*
X135373809Y-107666666D01*
X135373809Y-107785714D02*
X135373809Y-108095238D01*
X135183333Y-107928571D01*
X135183333Y-108000000D01*
X135159523Y-108047619D01*
X135135714Y-108071428D01*
X135088095Y-108095238D01*
X134969047Y-108095238D01*
X134921428Y-108071428D01*
X134897619Y-108047619D01*
X134873809Y-108000000D01*
X134873809Y-107857142D01*
X134897619Y-107809523D01*
X134921428Y-107785714D01*
X128273809Y-106880952D02*
X128273809Y-107190476D01*
X128083333Y-107023809D01*
X128083333Y-107095238D01*
X128059523Y-107142857D01*
X128035714Y-107166666D01*
X127988095Y-107190476D01*
X127869047Y-107190476D01*
X127821428Y-107166666D01*
X127797619Y-107142857D01*
X127773809Y-107095238D01*
X127773809Y-106952380D01*
X127797619Y-106904761D01*
X127821428Y-106880952D01*
X128273809Y-107333333D02*
X127773809Y-107500000D01*
X128273809Y-107666666D01*
X128273809Y-107785714D02*
X128273809Y-108095238D01*
X128083333Y-107928571D01*
X128083333Y-108000000D01*
X128059523Y-108047619D01*
X128035714Y-108071428D01*
X127988095Y-108095238D01*
X127869047Y-108095238D01*
X127821428Y-108071428D01*
X127797619Y-108047619D01*
X127773809Y-108000000D01*
X127773809Y-107857142D01*
X127797619Y-107809523D01*
X127821428Y-107785714D01*
X126916666Y-106852380D02*
X126916666Y-107090476D01*
X126773809Y-106804761D02*
X127273809Y-106971428D01*
X126773809Y-107138095D01*
X126773809Y-107304761D02*
X127273809Y-107304761D01*
X127273809Y-107423809D01*
X127250000Y-107495238D01*
X127202380Y-107542857D01*
X127154761Y-107566666D01*
X127059523Y-107590476D01*
X126988095Y-107590476D01*
X126892857Y-107566666D01*
X126845238Y-107542857D01*
X126797619Y-107495238D01*
X126773809Y-107423809D01*
X126773809Y-107304761D01*
X126821428Y-108090476D02*
X126797619Y-108066666D01*
X126773809Y-107995238D01*
X126773809Y-107947619D01*
X126797619Y-107876190D01*
X126845238Y-107828571D01*
X126892857Y-107804761D01*
X126988095Y-107780952D01*
X127059523Y-107780952D01*
X127154761Y-107804761D01*
X127202380Y-107828571D01*
X127250000Y-107876190D01*
X127273809Y-107947619D01*
X127273809Y-107995238D01*
X127250000Y-108066666D01*
X127226190Y-108090476D01*
X126726190Y-108185714D02*
X126726190Y-108566666D01*
X127226190Y-108661904D02*
X127250000Y-108685714D01*
X127273809Y-108733333D01*
X127273809Y-108852380D01*
X127250000Y-108900000D01*
X127226190Y-108923809D01*
X127178571Y-108947619D01*
X127130952Y-108947619D01*
X127059523Y-108923809D01*
X126773809Y-108638095D01*
X126773809Y-108947619D01*
X126250000Y-107019047D02*
X126273809Y-106971428D01*
X126273809Y-106900000D01*
X126250000Y-106828571D01*
X126202380Y-106780952D01*
X126154761Y-106757142D01*
X126059523Y-106733333D01*
X125988095Y-106733333D01*
X125892857Y-106757142D01*
X125845238Y-106780952D01*
X125797619Y-106828571D01*
X125773809Y-106900000D01*
X125773809Y-106947619D01*
X125797619Y-107019047D01*
X125821428Y-107042857D01*
X125988095Y-107042857D01*
X125988095Y-106947619D01*
X125773809Y-107257142D02*
X126273809Y-107257142D01*
X125773809Y-107542857D01*
X126273809Y-107542857D01*
X125773809Y-107780952D02*
X126273809Y-107780952D01*
X126273809Y-107900000D01*
X126250000Y-107971428D01*
X126202380Y-108019047D01*
X126154761Y-108042857D01*
X126059523Y-108066666D01*
X125988095Y-108066666D01*
X125892857Y-108042857D01*
X125845238Y-108019047D01*
X125797619Y-107971428D01*
X125773809Y-107900000D01*
X125773809Y-107780952D01*
X121073809Y-106780952D02*
X121073809Y-107090476D01*
X120883333Y-106923809D01*
X120883333Y-106995238D01*
X120859523Y-107042857D01*
X120835714Y-107066666D01*
X120788095Y-107090476D01*
X120669047Y-107090476D01*
X120621428Y-107066666D01*
X120597619Y-107042857D01*
X120573809Y-106995238D01*
X120573809Y-106852380D01*
X120597619Y-106804761D01*
X120621428Y-106780952D01*
X121073809Y-107233333D02*
X120573809Y-107400000D01*
X121073809Y-107566666D01*
X121073809Y-107685714D02*
X121073809Y-107995238D01*
X120883333Y-107828571D01*
X120883333Y-107900000D01*
X120859523Y-107947619D01*
X120835714Y-107971428D01*
X120788095Y-107995238D01*
X120669047Y-107995238D01*
X120621428Y-107971428D01*
X120597619Y-107947619D01*
X120573809Y-107900000D01*
X120573809Y-107757142D01*
X120597619Y-107709523D01*
X120621428Y-107685714D01*
X119716666Y-106752380D02*
X119716666Y-106990476D01*
X119573809Y-106704761D02*
X120073809Y-106871428D01*
X119573809Y-107038095D01*
X119573809Y-107204761D02*
X120073809Y-107204761D01*
X120073809Y-107323809D01*
X120050000Y-107395238D01*
X120002380Y-107442857D01*
X119954761Y-107466666D01*
X119859523Y-107490476D01*
X119788095Y-107490476D01*
X119692857Y-107466666D01*
X119645238Y-107442857D01*
X119597619Y-107395238D01*
X119573809Y-107323809D01*
X119573809Y-107204761D01*
X119621428Y-107990476D02*
X119597619Y-107966666D01*
X119573809Y-107895238D01*
X119573809Y-107847619D01*
X119597619Y-107776190D01*
X119645238Y-107728571D01*
X119692857Y-107704761D01*
X119788095Y-107680952D01*
X119859523Y-107680952D01*
X119954761Y-107704761D01*
X120002380Y-107728571D01*
X120050000Y-107776190D01*
X120073809Y-107847619D01*
X120073809Y-107895238D01*
X120050000Y-107966666D01*
X120026190Y-107990476D01*
X119526190Y-108085714D02*
X119526190Y-108466666D01*
X120073809Y-108538095D02*
X120073809Y-108847619D01*
X119883333Y-108680952D01*
X119883333Y-108752380D01*
X119859523Y-108800000D01*
X119835714Y-108823809D01*
X119788095Y-108847619D01*
X119669047Y-108847619D01*
X119621428Y-108823809D01*
X119597619Y-108800000D01*
X119573809Y-108752380D01*
X119573809Y-108609523D01*
X119597619Y-108561904D01*
X119621428Y-108538095D01*
X118950000Y-107019047D02*
X118973809Y-106971428D01*
X118973809Y-106900000D01*
X118950000Y-106828571D01*
X118902380Y-106780952D01*
X118854761Y-106757142D01*
X118759523Y-106733333D01*
X118688095Y-106733333D01*
X118592857Y-106757142D01*
X118545238Y-106780952D01*
X118497619Y-106828571D01*
X118473809Y-106900000D01*
X118473809Y-106947619D01*
X118497619Y-107019047D01*
X118521428Y-107042857D01*
X118688095Y-107042857D01*
X118688095Y-106947619D01*
X118473809Y-107257142D02*
X118973809Y-107257142D01*
X118473809Y-107542857D01*
X118973809Y-107542857D01*
X118473809Y-107780952D02*
X118973809Y-107780952D01*
X118973809Y-107900000D01*
X118950000Y-107971428D01*
X118902380Y-108019047D01*
X118854761Y-108042857D01*
X118759523Y-108066666D01*
X118688095Y-108066666D01*
X118592857Y-108042857D01*
X118545238Y-108019047D01*
X118497619Y-107971428D01*
X118473809Y-107900000D01*
X118473809Y-107780952D01*
X113673809Y-106680952D02*
X113673809Y-106990476D01*
X113483333Y-106823809D01*
X113483333Y-106895238D01*
X113459523Y-106942857D01*
X113435714Y-106966666D01*
X113388095Y-106990476D01*
X113269047Y-106990476D01*
X113221428Y-106966666D01*
X113197619Y-106942857D01*
X113173809Y-106895238D01*
X113173809Y-106752380D01*
X113197619Y-106704761D01*
X113221428Y-106680952D01*
X113673809Y-107133333D02*
X113173809Y-107300000D01*
X113673809Y-107466666D01*
X113673809Y-107585714D02*
X113673809Y-107895238D01*
X113483333Y-107728571D01*
X113483333Y-107800000D01*
X113459523Y-107847619D01*
X113435714Y-107871428D01*
X113388095Y-107895238D01*
X113269047Y-107895238D01*
X113221428Y-107871428D01*
X113197619Y-107847619D01*
X113173809Y-107800000D01*
X113173809Y-107657142D01*
X113197619Y-107609523D01*
X113221428Y-107585714D01*
X112297619Y-106692857D02*
X112273809Y-106764285D01*
X112273809Y-106883333D01*
X112297619Y-106930952D01*
X112321428Y-106954761D01*
X112369047Y-106978571D01*
X112416666Y-106978571D01*
X112464285Y-106954761D01*
X112488095Y-106930952D01*
X112511904Y-106883333D01*
X112535714Y-106788095D01*
X112559523Y-106740476D01*
X112583333Y-106716666D01*
X112630952Y-106692857D01*
X112678571Y-106692857D01*
X112726190Y-106716666D01*
X112750000Y-106740476D01*
X112773809Y-106788095D01*
X112773809Y-106907142D01*
X112750000Y-106978571D01*
X112273809Y-107192857D02*
X112773809Y-107192857D01*
X112773809Y-107311904D01*
X112750000Y-107383333D01*
X112702380Y-107430952D01*
X112654761Y-107454761D01*
X112559523Y-107478571D01*
X112488095Y-107478571D01*
X112392857Y-107454761D01*
X112345238Y-107430952D01*
X112297619Y-107383333D01*
X112273809Y-107311904D01*
X112273809Y-107192857D01*
X112416666Y-107669047D02*
X112416666Y-107907142D01*
X112273809Y-107621428D02*
X112773809Y-107788095D01*
X112273809Y-107954761D01*
X111397619Y-106704761D02*
X111373809Y-106776190D01*
X111373809Y-106895238D01*
X111397619Y-106942857D01*
X111421428Y-106966666D01*
X111469047Y-106990476D01*
X111516666Y-106990476D01*
X111564285Y-106966666D01*
X111588095Y-106942857D01*
X111611904Y-106895238D01*
X111635714Y-106800000D01*
X111659523Y-106752380D01*
X111683333Y-106728571D01*
X111730952Y-106704761D01*
X111778571Y-106704761D01*
X111826190Y-106728571D01*
X111850000Y-106752380D01*
X111873809Y-106800000D01*
X111873809Y-106919047D01*
X111850000Y-106990476D01*
X111421428Y-107490476D02*
X111397619Y-107466666D01*
X111373809Y-107395238D01*
X111373809Y-107347619D01*
X111397619Y-107276190D01*
X111445238Y-107228571D01*
X111492857Y-107204761D01*
X111588095Y-107180952D01*
X111659523Y-107180952D01*
X111754761Y-107204761D01*
X111802380Y-107228571D01*
X111850000Y-107276190D01*
X111873809Y-107347619D01*
X111873809Y-107395238D01*
X111850000Y-107466666D01*
X111826190Y-107490476D01*
X111373809Y-107942857D02*
X111373809Y-107704761D01*
X111873809Y-107704761D01*
X105480952Y-106226190D02*
X105790476Y-106226190D01*
X105623809Y-106416666D01*
X105695238Y-106416666D01*
X105742857Y-106440476D01*
X105766666Y-106464285D01*
X105790476Y-106511904D01*
X105790476Y-106630952D01*
X105766666Y-106678571D01*
X105742857Y-106702380D01*
X105695238Y-106726190D01*
X105552380Y-106726190D01*
X105504761Y-106702380D01*
X105480952Y-106678571D01*
X105933333Y-106226190D02*
X106100000Y-106726190D01*
X106266666Y-106226190D01*
X106385714Y-106226190D02*
X106695238Y-106226190D01*
X106528571Y-106416666D01*
X106600000Y-106416666D01*
X106647619Y-106440476D01*
X106671428Y-106464285D01*
X106695238Y-106511904D01*
X106695238Y-106630952D01*
X106671428Y-106678571D01*
X106647619Y-106702380D01*
X106600000Y-106726190D01*
X106457142Y-106726190D01*
X106409523Y-106702380D01*
X106385714Y-106678571D01*
X105514285Y-105726190D02*
X105514285Y-105226190D01*
X105680952Y-105583333D01*
X105847619Y-105226190D01*
X105847619Y-105726190D01*
X106180952Y-105226190D02*
X106276190Y-105226190D01*
X106323809Y-105250000D01*
X106371428Y-105297619D01*
X106395238Y-105392857D01*
X106395238Y-105559523D01*
X106371428Y-105654761D01*
X106323809Y-105702380D01*
X106276190Y-105726190D01*
X106180952Y-105726190D01*
X106133333Y-105702380D01*
X106085714Y-105654761D01*
X106061904Y-105559523D01*
X106061904Y-105392857D01*
X106085714Y-105297619D01*
X106133333Y-105250000D01*
X106180952Y-105226190D01*
X106585714Y-105702380D02*
X106657142Y-105726190D01*
X106776190Y-105726190D01*
X106823809Y-105702380D01*
X106847619Y-105678571D01*
X106871428Y-105630952D01*
X106871428Y-105583333D01*
X106847619Y-105535714D01*
X106823809Y-105511904D01*
X106776190Y-105488095D01*
X106680952Y-105464285D01*
X106633333Y-105440476D01*
X106609523Y-105416666D01*
X106585714Y-105369047D01*
X106585714Y-105321428D01*
X106609523Y-105273809D01*
X106633333Y-105250000D01*
X106680952Y-105226190D01*
X106800000Y-105226190D01*
X106871428Y-105250000D01*
X107085714Y-105726190D02*
X107085714Y-105226190D01*
X105514285Y-104826190D02*
X105514285Y-104326190D01*
X105680952Y-104683333D01*
X105847619Y-104326190D01*
X105847619Y-104826190D01*
X106085714Y-104826190D02*
X106085714Y-104326190D01*
X106300000Y-104802380D02*
X106371428Y-104826190D01*
X106490476Y-104826190D01*
X106538095Y-104802380D01*
X106561904Y-104778571D01*
X106585714Y-104730952D01*
X106585714Y-104683333D01*
X106561904Y-104635714D01*
X106538095Y-104611904D01*
X106490476Y-104588095D01*
X106395238Y-104564285D01*
X106347619Y-104540476D01*
X106323809Y-104516666D01*
X106300000Y-104469047D01*
X106300000Y-104421428D01*
X106323809Y-104373809D01*
X106347619Y-104350000D01*
X106395238Y-104326190D01*
X106514285Y-104326190D01*
X106585714Y-104350000D01*
X106895238Y-104326190D02*
X106990476Y-104326190D01*
X107038095Y-104350000D01*
X107085714Y-104397619D01*
X107109523Y-104492857D01*
X107109523Y-104659523D01*
X107085714Y-104754761D01*
X107038095Y-104802380D01*
X106990476Y-104826190D01*
X106895238Y-104826190D01*
X106847619Y-104802380D01*
X106800000Y-104754761D01*
X106776190Y-104659523D01*
X106776190Y-104492857D01*
X106800000Y-104397619D01*
X106847619Y-104350000D01*
X106895238Y-104326190D01*
X105557142Y-103802380D02*
X105628571Y-103826190D01*
X105747619Y-103826190D01*
X105795238Y-103802380D01*
X105819047Y-103778571D01*
X105842857Y-103730952D01*
X105842857Y-103683333D01*
X105819047Y-103635714D01*
X105795238Y-103611904D01*
X105747619Y-103588095D01*
X105652380Y-103564285D01*
X105604761Y-103540476D01*
X105580952Y-103516666D01*
X105557142Y-103469047D01*
X105557142Y-103421428D01*
X105580952Y-103373809D01*
X105604761Y-103350000D01*
X105652380Y-103326190D01*
X105771428Y-103326190D01*
X105842857Y-103350000D01*
X106342857Y-103778571D02*
X106319047Y-103802380D01*
X106247619Y-103826190D01*
X106200000Y-103826190D01*
X106128571Y-103802380D01*
X106080952Y-103754761D01*
X106057142Y-103707142D01*
X106033333Y-103611904D01*
X106033333Y-103540476D01*
X106057142Y-103445238D01*
X106080952Y-103397619D01*
X106128571Y-103350000D01*
X106200000Y-103326190D01*
X106247619Y-103326190D01*
X106319047Y-103350000D01*
X106342857Y-103373809D01*
X106557142Y-103826190D02*
X106557142Y-103326190D01*
X106842857Y-103826190D02*
X106628571Y-103540476D01*
X106842857Y-103326190D02*
X106557142Y-103611904D01*
X105819047Y-102250000D02*
X105771428Y-102226190D01*
X105700000Y-102226190D01*
X105628571Y-102250000D01*
X105580952Y-102297619D01*
X105557142Y-102345238D01*
X105533333Y-102440476D01*
X105533333Y-102511904D01*
X105557142Y-102607142D01*
X105580952Y-102654761D01*
X105628571Y-102702380D01*
X105700000Y-102726190D01*
X105747619Y-102726190D01*
X105819047Y-102702380D01*
X105842857Y-102678571D01*
X105842857Y-102511904D01*
X105747619Y-102511904D01*
X106057142Y-102726190D02*
X106057142Y-102226190D01*
X106342857Y-102726190D01*
X106342857Y-102226190D01*
X106580952Y-102726190D02*
X106580952Y-102226190D01*
X106700000Y-102226190D01*
X106771428Y-102250000D01*
X106819047Y-102297619D01*
X106842857Y-102345238D01*
X106866666Y-102440476D01*
X106866666Y-102511904D01*
X106842857Y-102607142D01*
X106819047Y-102654761D01*
X106771428Y-102702380D01*
X106700000Y-102726190D01*
X106580952Y-102726190D01*
D11*
G04 #@! TO.C,J3*
X128440000Y-100565000D02*
X125560000Y-100565000D01*
X124390000Y-105035000D02*
X125440000Y-105035000D01*
X124390000Y-102535000D02*
X124390000Y-105035000D01*
X128560000Y-105035000D02*
X128560000Y-106025000D01*
X129610000Y-105035000D02*
X128560000Y-105035000D01*
X129610000Y-102535000D02*
X129610000Y-105035000D01*
G04 #@! TO.C,J2*
X136860000Y-102535000D02*
X136860000Y-105035000D01*
X136860000Y-105035000D02*
X135810000Y-105035000D01*
X135810000Y-105035000D02*
X135810000Y-106025000D01*
X131640000Y-102535000D02*
X131640000Y-105035000D01*
X131640000Y-105035000D02*
X132690000Y-105035000D01*
X135690000Y-100565000D02*
X132810000Y-100565000D01*
G04 #@! TO.C,J4*
X122360000Y-102535000D02*
X122360000Y-105035000D01*
X122360000Y-105035000D02*
X121310000Y-105035000D01*
X121310000Y-105035000D02*
X121310000Y-106025000D01*
X117140000Y-102535000D02*
X117140000Y-105035000D01*
X117140000Y-105035000D02*
X118190000Y-105035000D01*
X121190000Y-100565000D02*
X118310000Y-100565000D01*
G04 #@! TO.C,SW4*
X140440000Y-139510000D02*
X135560000Y-139510000D01*
X134390000Y-136390000D02*
X135440000Y-136390000D01*
X134390000Y-137540000D02*
X134390000Y-136390000D01*
X140560000Y-136390000D02*
X140560000Y-135400000D01*
X141610000Y-136390000D02*
X140560000Y-136390000D01*
X141610000Y-137540000D02*
X141610000Y-136390000D01*
G04 #@! TO.C,SW3*
X132610000Y-137540000D02*
X132610000Y-136390000D01*
X132610000Y-136390000D02*
X131560000Y-136390000D01*
X131560000Y-136390000D02*
X131560000Y-135400000D01*
X125390000Y-137540000D02*
X125390000Y-136390000D01*
X125390000Y-136390000D02*
X126440000Y-136390000D01*
X131440000Y-139510000D02*
X126560000Y-139510000D01*
G04 #@! TO.C,SW2*
X122440000Y-139510000D02*
X117560000Y-139510000D01*
X116390000Y-136390000D02*
X117440000Y-136390000D01*
X116390000Y-137540000D02*
X116390000Y-136390000D01*
X122560000Y-136390000D02*
X122560000Y-135400000D01*
X123610000Y-136390000D02*
X122560000Y-136390000D01*
X123610000Y-137540000D02*
X123610000Y-136390000D01*
G04 #@! TO.C,SW1*
X114610000Y-137540000D02*
X114610000Y-136390000D01*
X114610000Y-136390000D02*
X113560000Y-136390000D01*
X113560000Y-136390000D02*
X113560000Y-135400000D01*
X107390000Y-137540000D02*
X107390000Y-136390000D01*
X107390000Y-136390000D02*
X108440000Y-136390000D01*
X113440000Y-139510000D02*
X108560000Y-139510000D01*
G04 #@! TO.C,R30*
X157090000Y-114500000D02*
X157090000Y-115500000D01*
X158910000Y-114500000D02*
X158910000Y-115500000D01*
G04 #@! TO.C,R12*
X149910000Y-114500000D02*
X149910000Y-115500000D01*
X148090000Y-114500000D02*
X148090000Y-115500000D01*
G04 #@! TO.C,R28*
X154090000Y-114500000D02*
X154090000Y-115500000D01*
X155910000Y-114500000D02*
X155910000Y-115500000D01*
G04 #@! TO.C,R29*
X152910000Y-114500000D02*
X152910000Y-115500000D01*
X151090000Y-114500000D02*
X151090000Y-115500000D01*
G04 #@! TO.C,J7*
X102710000Y-108110000D02*
X103860000Y-108110000D01*
X103860000Y-108110000D02*
X103860000Y-107060000D01*
X103860000Y-107060000D02*
X104850000Y-107060000D01*
X102710000Y-100890000D02*
X103860000Y-100890000D01*
X103860000Y-100890000D02*
X103860000Y-101940000D01*
X100740000Y-106940000D02*
X100740000Y-102060000D01*
G04 #@! TO.C,J9*
X100515000Y-134260000D02*
X100515000Y-138140000D01*
X104985000Y-139310000D02*
X104985000Y-138260000D01*
X102485000Y-139310000D02*
X104985000Y-139310000D01*
X104985000Y-134140000D02*
X105975000Y-134140000D01*
X104985000Y-133090000D02*
X104985000Y-134140000D01*
X102485000Y-133090000D02*
X104985000Y-133090000D01*
G04 #@! TO.C,J5*
X115010000Y-102585000D02*
X115010000Y-105085000D01*
X115010000Y-105085000D02*
X113960000Y-105085000D01*
X113960000Y-105085000D02*
X113960000Y-106075000D01*
X108790000Y-102585000D02*
X108790000Y-105085000D01*
X108790000Y-105085000D02*
X109840000Y-105085000D01*
X113840000Y-100615000D02*
X109960000Y-100615000D01*
G04 #@! TO.C,J1*
X152850155Y-103749647D02*
G75*
G03X152850000Y-102250000I-1700155J749647D01*
G01*
X152850155Y-108829647D02*
G75*
G03X152850000Y-107330000I-1700155J749647D01*
G01*
X159430000Y-100380000D02*
X152020000Y-100380000D01*
X152020000Y-100380000D02*
X152020000Y-110700000D01*
X152020000Y-110700000D02*
X159430000Y-110700000D01*
X159430000Y-110700000D02*
X159430000Y-100380000D01*
X152850000Y-102250000D02*
X152850000Y-101500000D01*
X152850000Y-101500000D02*
X157150000Y-101500000D01*
X157150000Y-101500000D02*
X157150000Y-102250000D01*
X157150000Y-102250000D02*
X157500000Y-102250000D01*
X157500000Y-102250000D02*
X157500000Y-101750000D01*
X157500000Y-101750000D02*
X158500000Y-101500000D01*
X158500000Y-101500000D02*
X158500000Y-104500000D01*
X158500000Y-104500000D02*
X157500000Y-104250000D01*
X157500000Y-104250000D02*
X157500000Y-103750000D01*
X157500000Y-103750000D02*
X157150000Y-103750000D01*
X157150000Y-103750000D02*
X157150000Y-104500000D01*
X157150000Y-104500000D02*
X152850000Y-104500000D01*
X152850000Y-104500000D02*
X152850000Y-103750000D01*
X152850000Y-107330000D02*
X152850000Y-106580000D01*
X152850000Y-106580000D02*
X157150000Y-106580000D01*
X157150000Y-106580000D02*
X157150000Y-107330000D01*
X157150000Y-107330000D02*
X157500000Y-107330000D01*
X157500000Y-107330000D02*
X157500000Y-106830000D01*
X157500000Y-106830000D02*
X158500000Y-106580000D01*
X158500000Y-106580000D02*
X158500000Y-109580000D01*
X158500000Y-109580000D02*
X157500000Y-109330000D01*
X157500000Y-109330000D02*
X157500000Y-108830000D01*
X157500000Y-108830000D02*
X157150000Y-108830000D01*
X157150000Y-108830000D02*
X157150000Y-109580000D01*
X157150000Y-109580000D02*
X152850000Y-109580000D01*
X152850000Y-109580000D02*
X152850000Y-108830000D01*
X158600000Y-99960000D02*
X159850000Y-99960000D01*
X159850000Y-99960000D02*
X159850000Y-101960000D01*
G04 #@! TO.C,J10*
X158359845Y-136250353D02*
G75*
G03X158360000Y-137750000I1700155J-749647D01*
G01*
X158359845Y-131170353D02*
G75*
G03X158360000Y-132670000I1700155J-749647D01*
G01*
X158359845Y-126090353D02*
G75*
G03X158360000Y-127590000I1700155J-749647D01*
G01*
X158359845Y-121010353D02*
G75*
G03X158360000Y-122510000I1700155J-749647D01*
G01*
X151780000Y-139620000D02*
X159190000Y-139620000D01*
X159190000Y-139620000D02*
X159190000Y-119140000D01*
X159190000Y-119140000D02*
X151780000Y-119140000D01*
X151780000Y-119140000D02*
X151780000Y-139620000D01*
X158360000Y-137750000D02*
X158360000Y-138500000D01*
X158360000Y-138500000D02*
X154060000Y-138500000D01*
X154060000Y-138500000D02*
X154060000Y-137750000D01*
X154060000Y-137750000D02*
X153710000Y-137750000D01*
X153710000Y-137750000D02*
X153710000Y-138250000D01*
X153710000Y-138250000D02*
X152710000Y-138500000D01*
X152710000Y-138500000D02*
X152710000Y-135500000D01*
X152710000Y-135500000D02*
X153710000Y-135750000D01*
X153710000Y-135750000D02*
X153710000Y-136250000D01*
X153710000Y-136250000D02*
X154060000Y-136250000D01*
X154060000Y-136250000D02*
X154060000Y-135500000D01*
X154060000Y-135500000D02*
X158360000Y-135500000D01*
X158360000Y-135500000D02*
X158360000Y-136250000D01*
X158360000Y-132670000D02*
X158360000Y-133420000D01*
X158360000Y-133420000D02*
X154060000Y-133420000D01*
X154060000Y-133420000D02*
X154060000Y-132670000D01*
X154060000Y-132670000D02*
X153710000Y-132670000D01*
X153710000Y-132670000D02*
X153710000Y-133170000D01*
X153710000Y-133170000D02*
X152710000Y-133420000D01*
X152710000Y-133420000D02*
X152710000Y-130420000D01*
X152710000Y-130420000D02*
X153710000Y-130670000D01*
X153710000Y-130670000D02*
X153710000Y-131170000D01*
X153710000Y-131170000D02*
X154060000Y-131170000D01*
X154060000Y-131170000D02*
X154060000Y-130420000D01*
X154060000Y-130420000D02*
X158360000Y-130420000D01*
X158360000Y-130420000D02*
X158360000Y-131170000D01*
X158360000Y-127590000D02*
X158360000Y-128340000D01*
X158360000Y-128340000D02*
X154060000Y-128340000D01*
X154060000Y-128340000D02*
X154060000Y-127590000D01*
X154060000Y-127590000D02*
X153710000Y-127590000D01*
X153710000Y-127590000D02*
X153710000Y-128090000D01*
X153710000Y-128090000D02*
X152710000Y-128340000D01*
X152710000Y-128340000D02*
X152710000Y-125340000D01*
X152710000Y-125340000D02*
X153710000Y-125590000D01*
X153710000Y-125590000D02*
X153710000Y-126090000D01*
X153710000Y-126090000D02*
X154060000Y-126090000D01*
X154060000Y-126090000D02*
X154060000Y-125340000D01*
X154060000Y-125340000D02*
X158360000Y-125340000D01*
X158360000Y-125340000D02*
X158360000Y-126090000D01*
X158360000Y-122510000D02*
X158360000Y-123260000D01*
X158360000Y-123260000D02*
X154060000Y-123260000D01*
X154060000Y-123260000D02*
X154060000Y-122510000D01*
X154060000Y-122510000D02*
X153710000Y-122510000D01*
X153710000Y-122510000D02*
X153710000Y-123010000D01*
X153710000Y-123010000D02*
X152710000Y-123260000D01*
X152710000Y-123260000D02*
X152710000Y-120260000D01*
X152710000Y-120260000D02*
X153710000Y-120510000D01*
X153710000Y-120510000D02*
X153710000Y-121010000D01*
X153710000Y-121010000D02*
X154060000Y-121010000D01*
X154060000Y-121010000D02*
X154060000Y-120260000D01*
X154060000Y-120260000D02*
X158360000Y-120260000D01*
X158360000Y-120260000D02*
X158360000Y-121010000D01*
X152610000Y-140040000D02*
X151360000Y-140040000D01*
X151360000Y-140040000D02*
X151360000Y-138040000D01*
G04 #@! TO.C,SW5*
X148530000Y-100870000D02*
X148530000Y-103530000D01*
X148530000Y-100870000D02*
X145930000Y-100870000D01*
X145930000Y-100870000D02*
X145930000Y-103530000D01*
X148530000Y-103530000D02*
X145930000Y-103530000D01*
X151130000Y-103530000D02*
X149800000Y-103530000D01*
X151130000Y-102200000D02*
X151130000Y-103530000D01*
G04 #@! TO.C,JP2*
X139450000Y-118750000D02*
X138050000Y-118750000D01*
X137350000Y-118050000D02*
X137350000Y-117450000D01*
X138050000Y-116750000D02*
X139450000Y-116750000D01*
X140150000Y-117450000D02*
X140150000Y-118050000D01*
X140150000Y-118050000D02*
G75*
G02X139450000Y-118750000I-700000J0D01*
G01*
X139450000Y-116750000D02*
G75*
G02X140150000Y-117450000I0J-700000D01*
G01*
X137350000Y-117450000D02*
G75*
G02X138050000Y-116750000I700000J0D01*
G01*
X138050000Y-118750000D02*
G75*
G02X137350000Y-118050000I0J700000D01*
G01*
G04 #@! TO.C,JP1*
X138050000Y-121500000D02*
G75*
G02X137350000Y-120800000I0J700000D01*
G01*
X137350000Y-120200000D02*
G75*
G02X138050000Y-119500000I700000J0D01*
G01*
X139450000Y-119500000D02*
G75*
G02X140150000Y-120200000I0J-700000D01*
G01*
X140150000Y-120800000D02*
G75*
G02X139450000Y-121500000I-700000J0D01*
G01*
X140150000Y-120200000D02*
X140150000Y-120800000D01*
X138050000Y-119500000D02*
X139450000Y-119500000D01*
X137350000Y-120800000D02*
X137350000Y-120200000D01*
X139450000Y-121500000D02*
X138050000Y-121500000D01*
G04 #@! TO.C,U1*
X143090000Y-104590000D02*
X143090000Y-105850000D01*
X143090000Y-111410000D02*
X143090000Y-110150000D01*
X146850000Y-104590000D02*
X143090000Y-104590000D01*
X149100000Y-111410000D02*
X143090000Y-111410000D01*
D12*
G04 #@! TO.C,U2*
X101220000Y-124310000D02*
X99950000Y-124310000D01*
X99950000Y-124310000D02*
X99950000Y-116690000D01*
X99950000Y-116690000D02*
X101220000Y-116690000D01*
X112650000Y-125580000D02*
X116460000Y-125580000D01*
X116460000Y-125580000D02*
X116460000Y-123040000D01*
X116460000Y-123040000D02*
X112650000Y-123040000D01*
X112650000Y-123040000D02*
X112650000Y-125580000D01*
X106300000Y-124310000D02*
X106300000Y-116690000D01*
X106300000Y-116690000D02*
X101220000Y-116690000D01*
X106300000Y-124310000D02*
X101220000Y-124310000D01*
X107570000Y-125580000D02*
X110110000Y-125580000D01*
X110110000Y-125580000D02*
X110110000Y-123040000D01*
X110110000Y-123040000D02*
X107570000Y-123040000D01*
X107570000Y-123040000D02*
X107570000Y-125580000D01*
X134240000Y-117960000D02*
X134240000Y-123040000D01*
X134240000Y-123040000D02*
X131700000Y-123040000D01*
X131700000Y-123040000D02*
X131700000Y-117960000D01*
X131700000Y-117960000D02*
X134240000Y-117960000D01*
X127890000Y-125580000D02*
X127890000Y-115420000D01*
X119000000Y-115420000D02*
X119000000Y-125580000D01*
X127890000Y-115420000D02*
X119000000Y-115420000D01*
X127890000Y-125580000D02*
X119000000Y-125580000D01*
X101220000Y-111610000D02*
X136780000Y-111610000D01*
X136780000Y-111610000D02*
X136780000Y-129390000D01*
X136780000Y-129390000D02*
X101220000Y-129390000D01*
X101220000Y-129390000D02*
X101220000Y-111610000D01*
D11*
G04 #@! TO.C,J8*
X143330000Y-100870000D02*
X143330000Y-102200000D01*
X142000000Y-100870000D02*
X143330000Y-100870000D01*
X140730000Y-100870000D02*
X140730000Y-103530000D01*
X140730000Y-103530000D02*
X138130000Y-103530000D01*
X140730000Y-100870000D02*
X138130000Y-100870000D01*
X138130000Y-100870000D02*
X138130000Y-103530000D01*
D12*
G04 #@! TO.C,Q1*
X145175000Y-121975000D02*
X143775000Y-121975000D01*
X145175000Y-127075000D02*
X149325000Y-127075000D01*
X145175000Y-121925000D02*
X149325000Y-121925000D01*
X145175000Y-127075000D02*
X145175000Y-126930000D01*
X149325000Y-127075000D02*
X149325000Y-126930000D01*
X149325000Y-121925000D02*
X149325000Y-122070000D01*
X145175000Y-121925000D02*
X145175000Y-121975000D01*
G04 #@! TO.C,Q2*
X145175000Y-127925000D02*
X145175000Y-127975000D01*
X149325000Y-127925000D02*
X149325000Y-128070000D01*
X149325000Y-133075000D02*
X149325000Y-132930000D01*
X145175000Y-133075000D02*
X145175000Y-132930000D01*
X145175000Y-127925000D02*
X149325000Y-127925000D01*
X145175000Y-133075000D02*
X149325000Y-133075000D01*
X145175000Y-127975000D02*
X143775000Y-127975000D01*
G04 #@! TO.C,Q3*
X145175000Y-133975000D02*
X143775000Y-133975000D01*
X145175000Y-139075000D02*
X149325000Y-139075000D01*
X145175000Y-133925000D02*
X149325000Y-133925000D01*
X145175000Y-139075000D02*
X145175000Y-138930000D01*
X149325000Y-139075000D02*
X149325000Y-138930000D01*
X149325000Y-133925000D02*
X149325000Y-134070000D01*
X145175000Y-133925000D02*
X145175000Y-133975000D01*
D11*
G04 #@! TO.C,U3*
X146869557Y-116750000D02*
X146869557Y-113800000D01*
X143649557Y-114950000D02*
X143649557Y-116750000D01*
G04 #@! TO.C,C3*
D13*
X143116666Y-112478571D02*
X143092857Y-112502380D01*
X143021428Y-112526190D01*
X142973809Y-112526190D01*
X142902380Y-112502380D01*
X142854761Y-112454761D01*
X142830952Y-112407142D01*
X142807142Y-112311904D01*
X142807142Y-112240476D01*
X142830952Y-112145238D01*
X142854761Y-112097619D01*
X142902380Y-112050000D01*
X142973809Y-112026190D01*
X143021428Y-112026190D01*
X143092857Y-112050000D01*
X143116666Y-112073809D01*
X143283333Y-112026190D02*
X143592857Y-112026190D01*
X143426190Y-112216666D01*
X143497619Y-112216666D01*
X143545238Y-112240476D01*
X143569047Y-112264285D01*
X143592857Y-112311904D01*
X143592857Y-112430952D01*
X143569047Y-112478571D01*
X143545238Y-112502380D01*
X143497619Y-112526190D01*
X143354761Y-112526190D01*
X143307142Y-112502380D01*
X143283333Y-112478571D01*
G04 #@! TO.C,C2*
X144616666Y-100778571D02*
X144592857Y-100802380D01*
X144521428Y-100826190D01*
X144473809Y-100826190D01*
X144402380Y-100802380D01*
X144354761Y-100754761D01*
X144330952Y-100707142D01*
X144307142Y-100611904D01*
X144307142Y-100540476D01*
X144330952Y-100445238D01*
X144354761Y-100397619D01*
X144402380Y-100350000D01*
X144473809Y-100326190D01*
X144521428Y-100326190D01*
X144592857Y-100350000D01*
X144616666Y-100373809D01*
X144807142Y-100373809D02*
X144830952Y-100350000D01*
X144878571Y-100326190D01*
X144997619Y-100326190D01*
X145045238Y-100350000D01*
X145069047Y-100373809D01*
X145092857Y-100421428D01*
X145092857Y-100469047D01*
X145069047Y-100540476D01*
X144783333Y-100826190D01*
X145092857Y-100826190D01*
G04 #@! TO.C,R11*
X139226190Y-123821428D02*
X138988095Y-123988095D01*
X139226190Y-124107142D02*
X138726190Y-124107142D01*
X138726190Y-123916666D01*
X138750000Y-123869047D01*
X138773809Y-123845238D01*
X138821428Y-123821428D01*
X138892857Y-123821428D01*
X138940476Y-123845238D01*
X138964285Y-123869047D01*
X138988095Y-123916666D01*
X138988095Y-124107142D01*
X139226190Y-123345238D02*
X139226190Y-123630952D01*
X139226190Y-123488095D02*
X138726190Y-123488095D01*
X138797619Y-123535714D01*
X138845238Y-123583333D01*
X138869047Y-123630952D01*
X139226190Y-122869047D02*
X139226190Y-123154761D01*
X139226190Y-123011904D02*
X138726190Y-123011904D01*
X138797619Y-123059523D01*
X138845238Y-123107142D01*
X138869047Y-123154761D01*
G04 #@! TO.C,R10*
X139406190Y-114821428D02*
X139168095Y-114988095D01*
X139406190Y-115107142D02*
X138906190Y-115107142D01*
X138906190Y-114916666D01*
X138930000Y-114869047D01*
X138953809Y-114845238D01*
X139001428Y-114821428D01*
X139072857Y-114821428D01*
X139120476Y-114845238D01*
X139144285Y-114869047D01*
X139168095Y-114916666D01*
X139168095Y-115107142D01*
X139406190Y-114345238D02*
X139406190Y-114630952D01*
X139406190Y-114488095D02*
X138906190Y-114488095D01*
X138977619Y-114535714D01*
X139025238Y-114583333D01*
X139049047Y-114630952D01*
X138906190Y-114035714D02*
X138906190Y-113988095D01*
X138930000Y-113940476D01*
X138953809Y-113916666D01*
X139001428Y-113892857D01*
X139096666Y-113869047D01*
X139215714Y-113869047D01*
X139310952Y-113892857D01*
X139358571Y-113916666D01*
X139382380Y-113940476D01*
X139406190Y-113988095D01*
X139406190Y-114035714D01*
X139382380Y-114083333D01*
X139358571Y-114107142D01*
X139310952Y-114130952D01*
X139215714Y-114154761D01*
X139096666Y-114154761D01*
X139001428Y-114130952D01*
X138953809Y-114107142D01*
X138930000Y-114083333D01*
X138906190Y-114035714D01*
G04 #@! TO.C,J3*
X126933333Y-102826190D02*
X126933333Y-103183333D01*
X126909523Y-103254761D01*
X126861904Y-103302380D01*
X126790476Y-103326190D01*
X126742857Y-103326190D01*
X127123809Y-102826190D02*
X127433333Y-102826190D01*
X127266666Y-103016666D01*
X127338095Y-103016666D01*
X127385714Y-103040476D01*
X127409523Y-103064285D01*
X127433333Y-103111904D01*
X127433333Y-103230952D01*
X127409523Y-103278571D01*
X127385714Y-103302380D01*
X127338095Y-103326190D01*
X127195238Y-103326190D01*
X127147619Y-103302380D01*
X127123809Y-103278571D01*
G04 #@! TO.C,J2*
X134083333Y-102826190D02*
X134083333Y-103183333D01*
X134059523Y-103254761D01*
X134011904Y-103302380D01*
X133940476Y-103326190D01*
X133892857Y-103326190D01*
X134297619Y-102873809D02*
X134321428Y-102850000D01*
X134369047Y-102826190D01*
X134488095Y-102826190D01*
X134535714Y-102850000D01*
X134559523Y-102873809D01*
X134583333Y-102921428D01*
X134583333Y-102969047D01*
X134559523Y-103040476D01*
X134273809Y-103326190D01*
X134583333Y-103326190D01*
G04 #@! TO.C,J4*
X119583333Y-102626190D02*
X119583333Y-102983333D01*
X119559523Y-103054761D01*
X119511904Y-103102380D01*
X119440476Y-103126190D01*
X119392857Y-103126190D01*
X120035714Y-102792857D02*
X120035714Y-103126190D01*
X119916666Y-102602380D02*
X119797619Y-102959523D01*
X120107142Y-102959523D01*
G04 #@! TO.C,SW4*
X137333333Y-138802380D02*
X137404761Y-138826190D01*
X137523809Y-138826190D01*
X137571428Y-138802380D01*
X137595238Y-138778571D01*
X137619047Y-138730952D01*
X137619047Y-138683333D01*
X137595238Y-138635714D01*
X137571428Y-138611904D01*
X137523809Y-138588095D01*
X137428571Y-138564285D01*
X137380952Y-138540476D01*
X137357142Y-138516666D01*
X137333333Y-138469047D01*
X137333333Y-138421428D01*
X137357142Y-138373809D01*
X137380952Y-138350000D01*
X137428571Y-138326190D01*
X137547619Y-138326190D01*
X137619047Y-138350000D01*
X137785714Y-138326190D02*
X137904761Y-138826190D01*
X138000000Y-138469047D01*
X138095238Y-138826190D01*
X138214285Y-138326190D01*
X138619047Y-138492857D02*
X138619047Y-138826190D01*
X138500000Y-138302380D02*
X138380952Y-138659523D01*
X138690476Y-138659523D01*
G04 #@! TO.C,SW3*
X128333333Y-138802380D02*
X128404761Y-138826190D01*
X128523809Y-138826190D01*
X128571428Y-138802380D01*
X128595238Y-138778571D01*
X128619047Y-138730952D01*
X128619047Y-138683333D01*
X128595238Y-138635714D01*
X128571428Y-138611904D01*
X128523809Y-138588095D01*
X128428571Y-138564285D01*
X128380952Y-138540476D01*
X128357142Y-138516666D01*
X128333333Y-138469047D01*
X128333333Y-138421428D01*
X128357142Y-138373809D01*
X128380952Y-138350000D01*
X128428571Y-138326190D01*
X128547619Y-138326190D01*
X128619047Y-138350000D01*
X128785714Y-138326190D02*
X128904761Y-138826190D01*
X129000000Y-138469047D01*
X129095238Y-138826190D01*
X129214285Y-138326190D01*
X129357142Y-138326190D02*
X129666666Y-138326190D01*
X129500000Y-138516666D01*
X129571428Y-138516666D01*
X129619047Y-138540476D01*
X129642857Y-138564285D01*
X129666666Y-138611904D01*
X129666666Y-138730952D01*
X129642857Y-138778571D01*
X129619047Y-138802380D01*
X129571428Y-138826190D01*
X129428571Y-138826190D01*
X129380952Y-138802380D01*
X129357142Y-138778571D01*
G04 #@! TO.C,SW2*
X119333333Y-138802380D02*
X119404761Y-138826190D01*
X119523809Y-138826190D01*
X119571428Y-138802380D01*
X119595238Y-138778571D01*
X119619047Y-138730952D01*
X119619047Y-138683333D01*
X119595238Y-138635714D01*
X119571428Y-138611904D01*
X119523809Y-138588095D01*
X119428571Y-138564285D01*
X119380952Y-138540476D01*
X119357142Y-138516666D01*
X119333333Y-138469047D01*
X119333333Y-138421428D01*
X119357142Y-138373809D01*
X119380952Y-138350000D01*
X119428571Y-138326190D01*
X119547619Y-138326190D01*
X119619047Y-138350000D01*
X119785714Y-138326190D02*
X119904761Y-138826190D01*
X120000000Y-138469047D01*
X120095238Y-138826190D01*
X120214285Y-138326190D01*
X120380952Y-138373809D02*
X120404761Y-138350000D01*
X120452380Y-138326190D01*
X120571428Y-138326190D01*
X120619047Y-138350000D01*
X120642857Y-138373809D01*
X120666666Y-138421428D01*
X120666666Y-138469047D01*
X120642857Y-138540476D01*
X120357142Y-138826190D01*
X120666666Y-138826190D01*
G04 #@! TO.C,SW1*
X110333333Y-138802380D02*
X110404761Y-138826190D01*
X110523809Y-138826190D01*
X110571428Y-138802380D01*
X110595238Y-138778571D01*
X110619047Y-138730952D01*
X110619047Y-138683333D01*
X110595238Y-138635714D01*
X110571428Y-138611904D01*
X110523809Y-138588095D01*
X110428571Y-138564285D01*
X110380952Y-138540476D01*
X110357142Y-138516666D01*
X110333333Y-138469047D01*
X110333333Y-138421428D01*
X110357142Y-138373809D01*
X110380952Y-138350000D01*
X110428571Y-138326190D01*
X110547619Y-138326190D01*
X110619047Y-138350000D01*
X110785714Y-138326190D02*
X110904761Y-138826190D01*
X111000000Y-138469047D01*
X111095238Y-138826190D01*
X111214285Y-138326190D01*
X111666666Y-138826190D02*
X111380952Y-138826190D01*
X111523809Y-138826190D02*
X111523809Y-138326190D01*
X111476190Y-138397619D01*
X111428571Y-138445238D01*
X111380952Y-138469047D01*
G04 #@! TO.C,R20*
X149178571Y-119726190D02*
X149011904Y-119488095D01*
X148892857Y-119726190D02*
X148892857Y-119226190D01*
X149083333Y-119226190D01*
X149130952Y-119250000D01*
X149154761Y-119273809D01*
X149178571Y-119321428D01*
X149178571Y-119392857D01*
X149154761Y-119440476D01*
X149130952Y-119464285D01*
X149083333Y-119488095D01*
X148892857Y-119488095D01*
X149369047Y-119273809D02*
X149392857Y-119250000D01*
X149440476Y-119226190D01*
X149559523Y-119226190D01*
X149607142Y-119250000D01*
X149630952Y-119273809D01*
X149654761Y-119321428D01*
X149654761Y-119369047D01*
X149630952Y-119440476D01*
X149345238Y-119726190D01*
X149654761Y-119726190D01*
X149964285Y-119226190D02*
X150011904Y-119226190D01*
X150059523Y-119250000D01*
X150083333Y-119273809D01*
X150107142Y-119321428D01*
X150130952Y-119416666D01*
X150130952Y-119535714D01*
X150107142Y-119630952D01*
X150083333Y-119678571D01*
X150059523Y-119702380D01*
X150011904Y-119726190D01*
X149964285Y-119726190D01*
X149916666Y-119702380D01*
X149892857Y-119678571D01*
X149869047Y-119630952D01*
X149845238Y-119535714D01*
X149845238Y-119416666D01*
X149869047Y-119321428D01*
X149892857Y-119273809D01*
X149916666Y-119250000D01*
X149964285Y-119226190D01*
G04 #@! TO.C,R19*
X149178571Y-121226190D02*
X149011904Y-120988095D01*
X148892857Y-121226190D02*
X148892857Y-120726190D01*
X149083333Y-120726190D01*
X149130952Y-120750000D01*
X149154761Y-120773809D01*
X149178571Y-120821428D01*
X149178571Y-120892857D01*
X149154761Y-120940476D01*
X149130952Y-120964285D01*
X149083333Y-120988095D01*
X148892857Y-120988095D01*
X149654761Y-121226190D02*
X149369047Y-121226190D01*
X149511904Y-121226190D02*
X149511904Y-120726190D01*
X149464285Y-120797619D01*
X149416666Y-120845238D01*
X149369047Y-120869047D01*
X149892857Y-121226190D02*
X149988095Y-121226190D01*
X150035714Y-121202380D01*
X150059523Y-121178571D01*
X150107142Y-121107142D01*
X150130952Y-121011904D01*
X150130952Y-120821428D01*
X150107142Y-120773809D01*
X150083333Y-120750000D01*
X150035714Y-120726190D01*
X149940476Y-120726190D01*
X149892857Y-120750000D01*
X149869047Y-120773809D01*
X149845238Y-120821428D01*
X149845238Y-120940476D01*
X149869047Y-120988095D01*
X149892857Y-121011904D01*
X149940476Y-121035714D01*
X150035714Y-121035714D01*
X150083333Y-121011904D01*
X150107142Y-120988095D01*
X150130952Y-120940476D01*
G04 #@! TO.C,R18*
X141226190Y-132221428D02*
X140988095Y-132388095D01*
X141226190Y-132507142D02*
X140726190Y-132507142D01*
X140726190Y-132316666D01*
X140750000Y-132269047D01*
X140773809Y-132245238D01*
X140821428Y-132221428D01*
X140892857Y-132221428D01*
X140940476Y-132245238D01*
X140964285Y-132269047D01*
X140988095Y-132316666D01*
X140988095Y-132507142D01*
X141226190Y-131745238D02*
X141226190Y-132030952D01*
X141226190Y-131888095D02*
X140726190Y-131888095D01*
X140797619Y-131935714D01*
X140845238Y-131983333D01*
X140869047Y-132030952D01*
X140940476Y-131459523D02*
X140916666Y-131507142D01*
X140892857Y-131530952D01*
X140845238Y-131554761D01*
X140821428Y-131554761D01*
X140773809Y-131530952D01*
X140750000Y-131507142D01*
X140726190Y-131459523D01*
X140726190Y-131364285D01*
X140750000Y-131316666D01*
X140773809Y-131292857D01*
X140821428Y-131269047D01*
X140845238Y-131269047D01*
X140892857Y-131292857D01*
X140916666Y-131316666D01*
X140940476Y-131364285D01*
X140940476Y-131459523D01*
X140964285Y-131507142D01*
X140988095Y-131530952D01*
X141035714Y-131554761D01*
X141130952Y-131554761D01*
X141178571Y-131530952D01*
X141202380Y-131507142D01*
X141226190Y-131459523D01*
X141226190Y-131364285D01*
X141202380Y-131316666D01*
X141178571Y-131292857D01*
X141130952Y-131269047D01*
X141035714Y-131269047D01*
X140988095Y-131292857D01*
X140964285Y-131316666D01*
X140940476Y-131364285D01*
G04 #@! TO.C,R17*
X141226190Y-129921428D02*
X140988095Y-130088095D01*
X141226190Y-130207142D02*
X140726190Y-130207142D01*
X140726190Y-130016666D01*
X140750000Y-129969047D01*
X140773809Y-129945238D01*
X140821428Y-129921428D01*
X140892857Y-129921428D01*
X140940476Y-129945238D01*
X140964285Y-129969047D01*
X140988095Y-130016666D01*
X140988095Y-130207142D01*
X141226190Y-129445238D02*
X141226190Y-129730952D01*
X141226190Y-129588095D02*
X140726190Y-129588095D01*
X140797619Y-129635714D01*
X140845238Y-129683333D01*
X140869047Y-129730952D01*
X140726190Y-129278571D02*
X140726190Y-128945238D01*
X141226190Y-129159523D01*
G04 #@! TO.C,R16*
X143126190Y-134321428D02*
X142888095Y-134488095D01*
X143126190Y-134607142D02*
X142626190Y-134607142D01*
X142626190Y-134416666D01*
X142650000Y-134369047D01*
X142673809Y-134345238D01*
X142721428Y-134321428D01*
X142792857Y-134321428D01*
X142840476Y-134345238D01*
X142864285Y-134369047D01*
X142888095Y-134416666D01*
X142888095Y-134607142D01*
X143126190Y-133845238D02*
X143126190Y-134130952D01*
X143126190Y-133988095D02*
X142626190Y-133988095D01*
X142697619Y-134035714D01*
X142745238Y-134083333D01*
X142769047Y-134130952D01*
X142626190Y-133416666D02*
X142626190Y-133511904D01*
X142650000Y-133559523D01*
X142673809Y-133583333D01*
X142745238Y-133630952D01*
X142840476Y-133654761D01*
X143030952Y-133654761D01*
X143078571Y-133630952D01*
X143102380Y-133607142D01*
X143126190Y-133559523D01*
X143126190Y-133464285D01*
X143102380Y-133416666D01*
X143078571Y-133392857D01*
X143030952Y-133369047D01*
X142911904Y-133369047D01*
X142864285Y-133392857D01*
X142840476Y-133416666D01*
X142816666Y-133464285D01*
X142816666Y-133559523D01*
X142840476Y-133607142D01*
X142864285Y-133630952D01*
X142911904Y-133654761D01*
G04 #@! TO.C,R15*
X142226190Y-124321428D02*
X141988095Y-124488095D01*
X142226190Y-124607142D02*
X141726190Y-124607142D01*
X141726190Y-124416666D01*
X141750000Y-124369047D01*
X141773809Y-124345238D01*
X141821428Y-124321428D01*
X141892857Y-124321428D01*
X141940476Y-124345238D01*
X141964285Y-124369047D01*
X141988095Y-124416666D01*
X141988095Y-124607142D01*
X142226190Y-123845238D02*
X142226190Y-124130952D01*
X142226190Y-123988095D02*
X141726190Y-123988095D01*
X141797619Y-124035714D01*
X141845238Y-124083333D01*
X141869047Y-124130952D01*
X141726190Y-123392857D02*
X141726190Y-123630952D01*
X141964285Y-123654761D01*
X141940476Y-123630952D01*
X141916666Y-123583333D01*
X141916666Y-123464285D01*
X141940476Y-123416666D01*
X141964285Y-123392857D01*
X142011904Y-123369047D01*
X142130952Y-123369047D01*
X142178571Y-123392857D01*
X142202380Y-123416666D01*
X142226190Y-123464285D01*
X142226190Y-123583333D01*
X142202380Y-123630952D01*
X142178571Y-123654761D01*
G04 #@! TO.C,R14*
X137878571Y-128226190D02*
X137711904Y-127988095D01*
X137592857Y-128226190D02*
X137592857Y-127726190D01*
X137783333Y-127726190D01*
X137830952Y-127750000D01*
X137854761Y-127773809D01*
X137878571Y-127821428D01*
X137878571Y-127892857D01*
X137854761Y-127940476D01*
X137830952Y-127964285D01*
X137783333Y-127988095D01*
X137592857Y-127988095D01*
X138354761Y-128226190D02*
X138069047Y-128226190D01*
X138211904Y-128226190D02*
X138211904Y-127726190D01*
X138164285Y-127797619D01*
X138116666Y-127845238D01*
X138069047Y-127869047D01*
X138783333Y-127892857D02*
X138783333Y-128226190D01*
X138664285Y-127702380D02*
X138545238Y-128059523D01*
X138854761Y-128059523D01*
G04 #@! TO.C,R13*
X137878571Y-126426190D02*
X137711904Y-126188095D01*
X137592857Y-126426190D02*
X137592857Y-125926190D01*
X137783333Y-125926190D01*
X137830952Y-125950000D01*
X137854761Y-125973809D01*
X137878571Y-126021428D01*
X137878571Y-126092857D01*
X137854761Y-126140476D01*
X137830952Y-126164285D01*
X137783333Y-126188095D01*
X137592857Y-126188095D01*
X138354761Y-126426190D02*
X138069047Y-126426190D01*
X138211904Y-126426190D02*
X138211904Y-125926190D01*
X138164285Y-125997619D01*
X138116666Y-126045238D01*
X138069047Y-126069047D01*
X138521428Y-125926190D02*
X138830952Y-125926190D01*
X138664285Y-126116666D01*
X138735714Y-126116666D01*
X138783333Y-126140476D01*
X138807142Y-126164285D01*
X138830952Y-126211904D01*
X138830952Y-126330952D01*
X138807142Y-126378571D01*
X138783333Y-126402380D01*
X138735714Y-126426190D01*
X138592857Y-126426190D01*
X138545238Y-126402380D01*
X138521428Y-126378571D01*
G04 #@! TO.C,R9*
X131916666Y-135026190D02*
X131750000Y-134788095D01*
X131630952Y-135026190D02*
X131630952Y-134526190D01*
X131821428Y-134526190D01*
X131869047Y-134550000D01*
X131892857Y-134573809D01*
X131916666Y-134621428D01*
X131916666Y-134692857D01*
X131892857Y-134740476D01*
X131869047Y-134764285D01*
X131821428Y-134788095D01*
X131630952Y-134788095D01*
X132154761Y-135026190D02*
X132250000Y-135026190D01*
X132297619Y-135002380D01*
X132321428Y-134978571D01*
X132369047Y-134907142D01*
X132392857Y-134811904D01*
X132392857Y-134621428D01*
X132369047Y-134573809D01*
X132345238Y-134550000D01*
X132297619Y-134526190D01*
X132202380Y-134526190D01*
X132154761Y-134550000D01*
X132130952Y-134573809D01*
X132107142Y-134621428D01*
X132107142Y-134740476D01*
X132130952Y-134788095D01*
X132154761Y-134811904D01*
X132202380Y-134835714D01*
X132297619Y-134835714D01*
X132345238Y-134811904D01*
X132369047Y-134788095D01*
X132392857Y-134740476D01*
G04 #@! TO.C,R8*
X133416666Y-135026190D02*
X133250000Y-134788095D01*
X133130952Y-135026190D02*
X133130952Y-134526190D01*
X133321428Y-134526190D01*
X133369047Y-134550000D01*
X133392857Y-134573809D01*
X133416666Y-134621428D01*
X133416666Y-134692857D01*
X133392857Y-134740476D01*
X133369047Y-134764285D01*
X133321428Y-134788095D01*
X133130952Y-134788095D01*
X133702380Y-134740476D02*
X133654761Y-134716666D01*
X133630952Y-134692857D01*
X133607142Y-134645238D01*
X133607142Y-134621428D01*
X133630952Y-134573809D01*
X133654761Y-134550000D01*
X133702380Y-134526190D01*
X133797619Y-134526190D01*
X133845238Y-134550000D01*
X133869047Y-134573809D01*
X133892857Y-134621428D01*
X133892857Y-134645238D01*
X133869047Y-134692857D01*
X133845238Y-134716666D01*
X133797619Y-134740476D01*
X133702380Y-134740476D01*
X133654761Y-134764285D01*
X133630952Y-134788095D01*
X133607142Y-134835714D01*
X133607142Y-134930952D01*
X133630952Y-134978571D01*
X133654761Y-135002380D01*
X133702380Y-135026190D01*
X133797619Y-135026190D01*
X133845238Y-135002380D01*
X133869047Y-134978571D01*
X133892857Y-134930952D01*
X133892857Y-134835714D01*
X133869047Y-134788095D01*
X133845238Y-134764285D01*
X133797619Y-134740476D01*
G04 #@! TO.C,R21*
X142978571Y-121226190D02*
X142811904Y-120988095D01*
X142692857Y-121226190D02*
X142692857Y-120726190D01*
X142883333Y-120726190D01*
X142930952Y-120750000D01*
X142954761Y-120773809D01*
X142978571Y-120821428D01*
X142978571Y-120892857D01*
X142954761Y-120940476D01*
X142930952Y-120964285D01*
X142883333Y-120988095D01*
X142692857Y-120988095D01*
X143169047Y-120773809D02*
X143192857Y-120750000D01*
X143240476Y-120726190D01*
X143359523Y-120726190D01*
X143407142Y-120750000D01*
X143430952Y-120773809D01*
X143454761Y-120821428D01*
X143454761Y-120869047D01*
X143430952Y-120940476D01*
X143145238Y-121226190D01*
X143454761Y-121226190D01*
X143930952Y-121226190D02*
X143645238Y-121226190D01*
X143788095Y-121226190D02*
X143788095Y-120726190D01*
X143740476Y-120797619D01*
X143692857Y-120845238D01*
X143645238Y-120869047D01*
G04 #@! TO.C,R7*
X134816666Y-135026190D02*
X134650000Y-134788095D01*
X134530952Y-135026190D02*
X134530952Y-134526190D01*
X134721428Y-134526190D01*
X134769047Y-134550000D01*
X134792857Y-134573809D01*
X134816666Y-134621428D01*
X134816666Y-134692857D01*
X134792857Y-134740476D01*
X134769047Y-134764285D01*
X134721428Y-134788095D01*
X134530952Y-134788095D01*
X134983333Y-134526190D02*
X135316666Y-134526190D01*
X135102380Y-135026190D01*
G04 #@! TO.C,R1*
X116016666Y-135026190D02*
X115850000Y-134788095D01*
X115730952Y-135026190D02*
X115730952Y-134526190D01*
X115921428Y-134526190D01*
X115969047Y-134550000D01*
X115992857Y-134573809D01*
X116016666Y-134621428D01*
X116016666Y-134692857D01*
X115992857Y-134740476D01*
X115969047Y-134764285D01*
X115921428Y-134788095D01*
X115730952Y-134788095D01*
X116492857Y-135026190D02*
X116207142Y-135026190D01*
X116350000Y-135026190D02*
X116350000Y-134526190D01*
X116302380Y-134597619D01*
X116254761Y-134645238D01*
X116207142Y-134669047D01*
G04 #@! TO.C,R2*
X114516666Y-135026190D02*
X114350000Y-134788095D01*
X114230952Y-135026190D02*
X114230952Y-134526190D01*
X114421428Y-134526190D01*
X114469047Y-134550000D01*
X114492857Y-134573809D01*
X114516666Y-134621428D01*
X114516666Y-134692857D01*
X114492857Y-134740476D01*
X114469047Y-134764285D01*
X114421428Y-134788095D01*
X114230952Y-134788095D01*
X114707142Y-134573809D02*
X114730952Y-134550000D01*
X114778571Y-134526190D01*
X114897619Y-134526190D01*
X114945238Y-134550000D01*
X114969047Y-134573809D01*
X114992857Y-134621428D01*
X114992857Y-134669047D01*
X114969047Y-134740476D01*
X114683333Y-135026190D01*
X114992857Y-135026190D01*
G04 #@! TO.C,R3*
X121816666Y-135026190D02*
X121650000Y-134788095D01*
X121530952Y-135026190D02*
X121530952Y-134526190D01*
X121721428Y-134526190D01*
X121769047Y-134550000D01*
X121792857Y-134573809D01*
X121816666Y-134621428D01*
X121816666Y-134692857D01*
X121792857Y-134740476D01*
X121769047Y-134764285D01*
X121721428Y-134788095D01*
X121530952Y-134788095D01*
X121983333Y-134526190D02*
X122292857Y-134526190D01*
X122126190Y-134716666D01*
X122197619Y-134716666D01*
X122245238Y-134740476D01*
X122269047Y-134764285D01*
X122292857Y-134811904D01*
X122292857Y-134930952D01*
X122269047Y-134978571D01*
X122245238Y-135002380D01*
X122197619Y-135026190D01*
X122054761Y-135026190D01*
X122007142Y-135002380D01*
X121983333Y-134978571D01*
G04 #@! TO.C,R4*
X120516666Y-135026190D02*
X120350000Y-134788095D01*
X120230952Y-135026190D02*
X120230952Y-134526190D01*
X120421428Y-134526190D01*
X120469047Y-134550000D01*
X120492857Y-134573809D01*
X120516666Y-134621428D01*
X120516666Y-134692857D01*
X120492857Y-134740476D01*
X120469047Y-134764285D01*
X120421428Y-134788095D01*
X120230952Y-134788095D01*
X120945238Y-134692857D02*
X120945238Y-135026190D01*
X120826190Y-134502380D02*
X120707142Y-134859523D01*
X121016666Y-134859523D01*
G04 #@! TO.C,R5*
X130016666Y-135026190D02*
X129850000Y-134788095D01*
X129730952Y-135026190D02*
X129730952Y-134526190D01*
X129921428Y-134526190D01*
X129969047Y-134550000D01*
X129992857Y-134573809D01*
X130016666Y-134621428D01*
X130016666Y-134692857D01*
X129992857Y-134740476D01*
X129969047Y-134764285D01*
X129921428Y-134788095D01*
X129730952Y-134788095D01*
X130469047Y-134526190D02*
X130230952Y-134526190D01*
X130207142Y-134764285D01*
X130230952Y-134740476D01*
X130278571Y-134716666D01*
X130397619Y-134716666D01*
X130445238Y-134740476D01*
X130469047Y-134764285D01*
X130492857Y-134811904D01*
X130492857Y-134930952D01*
X130469047Y-134978571D01*
X130445238Y-135002380D01*
X130397619Y-135026190D01*
X130278571Y-135026190D01*
X130230952Y-135002380D01*
X130207142Y-134978571D01*
G04 #@! TO.C,R6*
X128516666Y-135026190D02*
X128350000Y-134788095D01*
X128230952Y-135026190D02*
X128230952Y-134526190D01*
X128421428Y-134526190D01*
X128469047Y-134550000D01*
X128492857Y-134573809D01*
X128516666Y-134621428D01*
X128516666Y-134692857D01*
X128492857Y-134740476D01*
X128469047Y-134764285D01*
X128421428Y-134788095D01*
X128230952Y-134788095D01*
X128945238Y-134526190D02*
X128850000Y-134526190D01*
X128802380Y-134550000D01*
X128778571Y-134573809D01*
X128730952Y-134645238D01*
X128707142Y-134740476D01*
X128707142Y-134930952D01*
X128730952Y-134978571D01*
X128754761Y-135002380D01*
X128802380Y-135026190D01*
X128897619Y-135026190D01*
X128945238Y-135002380D01*
X128969047Y-134978571D01*
X128992857Y-134930952D01*
X128992857Y-134811904D01*
X128969047Y-134764285D01*
X128945238Y-134740476D01*
X128897619Y-134716666D01*
X128802380Y-134716666D01*
X128754761Y-134740476D01*
X128730952Y-134764285D01*
X128707142Y-134811904D01*
G04 #@! TO.C,R27*
X126778571Y-135026190D02*
X126611904Y-134788095D01*
X126492857Y-135026190D02*
X126492857Y-134526190D01*
X126683333Y-134526190D01*
X126730952Y-134550000D01*
X126754761Y-134573809D01*
X126778571Y-134621428D01*
X126778571Y-134692857D01*
X126754761Y-134740476D01*
X126730952Y-134764285D01*
X126683333Y-134788095D01*
X126492857Y-134788095D01*
X126969047Y-134573809D02*
X126992857Y-134550000D01*
X127040476Y-134526190D01*
X127159523Y-134526190D01*
X127207142Y-134550000D01*
X127230952Y-134573809D01*
X127254761Y-134621428D01*
X127254761Y-134669047D01*
X127230952Y-134740476D01*
X126945238Y-135026190D01*
X127254761Y-135026190D01*
X127421428Y-134526190D02*
X127754761Y-134526190D01*
X127540476Y-135026190D01*
G04 #@! TO.C,R26*
X118778571Y-135026190D02*
X118611904Y-134788095D01*
X118492857Y-135026190D02*
X118492857Y-134526190D01*
X118683333Y-134526190D01*
X118730952Y-134550000D01*
X118754761Y-134573809D01*
X118778571Y-134621428D01*
X118778571Y-134692857D01*
X118754761Y-134740476D01*
X118730952Y-134764285D01*
X118683333Y-134788095D01*
X118492857Y-134788095D01*
X118969047Y-134573809D02*
X118992857Y-134550000D01*
X119040476Y-134526190D01*
X119159523Y-134526190D01*
X119207142Y-134550000D01*
X119230952Y-134573809D01*
X119254761Y-134621428D01*
X119254761Y-134669047D01*
X119230952Y-134740476D01*
X118945238Y-135026190D01*
X119254761Y-135026190D01*
X119683333Y-134526190D02*
X119588095Y-134526190D01*
X119540476Y-134550000D01*
X119516666Y-134573809D01*
X119469047Y-134645238D01*
X119445238Y-134740476D01*
X119445238Y-134930952D01*
X119469047Y-134978571D01*
X119492857Y-135002380D01*
X119540476Y-135026190D01*
X119635714Y-135026190D01*
X119683333Y-135002380D01*
X119707142Y-134978571D01*
X119730952Y-134930952D01*
X119730952Y-134811904D01*
X119707142Y-134764285D01*
X119683333Y-134740476D01*
X119635714Y-134716666D01*
X119540476Y-134716666D01*
X119492857Y-134740476D01*
X119469047Y-134764285D01*
X119445238Y-134811904D01*
G04 #@! TO.C,R25*
X112778571Y-135026190D02*
X112611904Y-134788095D01*
X112492857Y-135026190D02*
X112492857Y-134526190D01*
X112683333Y-134526190D01*
X112730952Y-134550000D01*
X112754761Y-134573809D01*
X112778571Y-134621428D01*
X112778571Y-134692857D01*
X112754761Y-134740476D01*
X112730952Y-134764285D01*
X112683333Y-134788095D01*
X112492857Y-134788095D01*
X112969047Y-134573809D02*
X112992857Y-134550000D01*
X113040476Y-134526190D01*
X113159523Y-134526190D01*
X113207142Y-134550000D01*
X113230952Y-134573809D01*
X113254761Y-134621428D01*
X113254761Y-134669047D01*
X113230952Y-134740476D01*
X112945238Y-135026190D01*
X113254761Y-135026190D01*
X113707142Y-134526190D02*
X113469047Y-134526190D01*
X113445238Y-134764285D01*
X113469047Y-134740476D01*
X113516666Y-134716666D01*
X113635714Y-134716666D01*
X113683333Y-134740476D01*
X113707142Y-134764285D01*
X113730952Y-134811904D01*
X113730952Y-134930952D01*
X113707142Y-134978571D01*
X113683333Y-135002380D01*
X113635714Y-135026190D01*
X113516666Y-135026190D01*
X113469047Y-135002380D01*
X113445238Y-134978571D01*
G04 #@! TO.C,R24*
X151726190Y-110821428D02*
X151488095Y-110988095D01*
X151726190Y-111107142D02*
X151226190Y-111107142D01*
X151226190Y-110916666D01*
X151250000Y-110869047D01*
X151273809Y-110845238D01*
X151321428Y-110821428D01*
X151392857Y-110821428D01*
X151440476Y-110845238D01*
X151464285Y-110869047D01*
X151488095Y-110916666D01*
X151488095Y-111107142D01*
X151273809Y-110630952D02*
X151250000Y-110607142D01*
X151226190Y-110559523D01*
X151226190Y-110440476D01*
X151250000Y-110392857D01*
X151273809Y-110369047D01*
X151321428Y-110345238D01*
X151369047Y-110345238D01*
X151440476Y-110369047D01*
X151726190Y-110654761D01*
X151726190Y-110345238D01*
X151392857Y-109916666D02*
X151726190Y-109916666D01*
X151202380Y-110035714D02*
X151559523Y-110154761D01*
X151559523Y-109845238D01*
G04 #@! TO.C,R23*
X151726190Y-108708928D02*
X151488095Y-108875595D01*
X151726190Y-108994642D02*
X151226190Y-108994642D01*
X151226190Y-108804166D01*
X151250000Y-108756547D01*
X151273809Y-108732738D01*
X151321428Y-108708928D01*
X151392857Y-108708928D01*
X151440476Y-108732738D01*
X151464285Y-108756547D01*
X151488095Y-108804166D01*
X151488095Y-108994642D01*
X151273809Y-108518452D02*
X151250000Y-108494642D01*
X151226190Y-108447023D01*
X151226190Y-108327976D01*
X151250000Y-108280357D01*
X151273809Y-108256547D01*
X151321428Y-108232738D01*
X151369047Y-108232738D01*
X151440476Y-108256547D01*
X151726190Y-108542261D01*
X151726190Y-108232738D01*
X151226190Y-108066071D02*
X151226190Y-107756547D01*
X151416666Y-107923214D01*
X151416666Y-107851785D01*
X151440476Y-107804166D01*
X151464285Y-107780357D01*
X151511904Y-107756547D01*
X151630952Y-107756547D01*
X151678571Y-107780357D01*
X151702380Y-107804166D01*
X151726190Y-107851785D01*
X151726190Y-107994642D01*
X151702380Y-108042261D01*
X151678571Y-108066071D01*
G04 #@! TO.C,R22*
X142978571Y-119726190D02*
X142811904Y-119488095D01*
X142692857Y-119726190D02*
X142692857Y-119226190D01*
X142883333Y-119226190D01*
X142930952Y-119250000D01*
X142954761Y-119273809D01*
X142978571Y-119321428D01*
X142978571Y-119392857D01*
X142954761Y-119440476D01*
X142930952Y-119464285D01*
X142883333Y-119488095D01*
X142692857Y-119488095D01*
X143169047Y-119273809D02*
X143192857Y-119250000D01*
X143240476Y-119226190D01*
X143359523Y-119226190D01*
X143407142Y-119250000D01*
X143430952Y-119273809D01*
X143454761Y-119321428D01*
X143454761Y-119369047D01*
X143430952Y-119440476D01*
X143145238Y-119726190D01*
X143454761Y-119726190D01*
X143645238Y-119273809D02*
X143669047Y-119250000D01*
X143716666Y-119226190D01*
X143835714Y-119226190D01*
X143883333Y-119250000D01*
X143907142Y-119273809D01*
X143930952Y-119321428D01*
X143930952Y-119369047D01*
X143907142Y-119440476D01*
X143621428Y-119726190D01*
X143930952Y-119726190D01*
G04 #@! TO.C,R30*
X157678571Y-112526190D02*
X157511904Y-112288095D01*
X157392857Y-112526190D02*
X157392857Y-112026190D01*
X157583333Y-112026190D01*
X157630952Y-112050000D01*
X157654761Y-112073809D01*
X157678571Y-112121428D01*
X157678571Y-112192857D01*
X157654761Y-112240476D01*
X157630952Y-112264285D01*
X157583333Y-112288095D01*
X157392857Y-112288095D01*
X157845238Y-112026190D02*
X158154761Y-112026190D01*
X157988095Y-112216666D01*
X158059523Y-112216666D01*
X158107142Y-112240476D01*
X158130952Y-112264285D01*
X158154761Y-112311904D01*
X158154761Y-112430952D01*
X158130952Y-112478571D01*
X158107142Y-112502380D01*
X158059523Y-112526190D01*
X157916666Y-112526190D01*
X157869047Y-112502380D01*
X157845238Y-112478571D01*
X158464285Y-112026190D02*
X158511904Y-112026190D01*
X158559523Y-112050000D01*
X158583333Y-112073809D01*
X158607142Y-112121428D01*
X158630952Y-112216666D01*
X158630952Y-112335714D01*
X158607142Y-112430952D01*
X158583333Y-112478571D01*
X158559523Y-112502380D01*
X158511904Y-112526190D01*
X158464285Y-112526190D01*
X158416666Y-112502380D01*
X158392857Y-112478571D01*
X158369047Y-112430952D01*
X158345238Y-112335714D01*
X158345238Y-112216666D01*
X158369047Y-112121428D01*
X158392857Y-112073809D01*
X158416666Y-112050000D01*
X158464285Y-112026190D01*
G04 #@! TO.C,R12*
X148678571Y-112426190D02*
X148511904Y-112188095D01*
X148392857Y-112426190D02*
X148392857Y-111926190D01*
X148583333Y-111926190D01*
X148630952Y-111950000D01*
X148654761Y-111973809D01*
X148678571Y-112021428D01*
X148678571Y-112092857D01*
X148654761Y-112140476D01*
X148630952Y-112164285D01*
X148583333Y-112188095D01*
X148392857Y-112188095D01*
X149154761Y-112426190D02*
X148869047Y-112426190D01*
X149011904Y-112426190D02*
X149011904Y-111926190D01*
X148964285Y-111997619D01*
X148916666Y-112045238D01*
X148869047Y-112069047D01*
X149345238Y-111973809D02*
X149369047Y-111950000D01*
X149416666Y-111926190D01*
X149535714Y-111926190D01*
X149583333Y-111950000D01*
X149607142Y-111973809D01*
X149630952Y-112021428D01*
X149630952Y-112069047D01*
X149607142Y-112140476D01*
X149321428Y-112426190D01*
X149630952Y-112426190D01*
G04 #@! TO.C,R28*
X154678571Y-112526190D02*
X154511904Y-112288095D01*
X154392857Y-112526190D02*
X154392857Y-112026190D01*
X154583333Y-112026190D01*
X154630952Y-112050000D01*
X154654761Y-112073809D01*
X154678571Y-112121428D01*
X154678571Y-112192857D01*
X154654761Y-112240476D01*
X154630952Y-112264285D01*
X154583333Y-112288095D01*
X154392857Y-112288095D01*
X154869047Y-112073809D02*
X154892857Y-112050000D01*
X154940476Y-112026190D01*
X155059523Y-112026190D01*
X155107142Y-112050000D01*
X155130952Y-112073809D01*
X155154761Y-112121428D01*
X155154761Y-112169047D01*
X155130952Y-112240476D01*
X154845238Y-112526190D01*
X155154761Y-112526190D01*
X155440476Y-112240476D02*
X155392857Y-112216666D01*
X155369047Y-112192857D01*
X155345238Y-112145238D01*
X155345238Y-112121428D01*
X155369047Y-112073809D01*
X155392857Y-112050000D01*
X155440476Y-112026190D01*
X155535714Y-112026190D01*
X155583333Y-112050000D01*
X155607142Y-112073809D01*
X155630952Y-112121428D01*
X155630952Y-112145238D01*
X155607142Y-112192857D01*
X155583333Y-112216666D01*
X155535714Y-112240476D01*
X155440476Y-112240476D01*
X155392857Y-112264285D01*
X155369047Y-112288095D01*
X155345238Y-112335714D01*
X155345238Y-112430952D01*
X155369047Y-112478571D01*
X155392857Y-112502380D01*
X155440476Y-112526190D01*
X155535714Y-112526190D01*
X155583333Y-112502380D01*
X155607142Y-112478571D01*
X155630952Y-112430952D01*
X155630952Y-112335714D01*
X155607142Y-112288095D01*
X155583333Y-112264285D01*
X155535714Y-112240476D01*
G04 #@! TO.C,R29*
X151678571Y-112426190D02*
X151511904Y-112188095D01*
X151392857Y-112426190D02*
X151392857Y-111926190D01*
X151583333Y-111926190D01*
X151630952Y-111950000D01*
X151654761Y-111973809D01*
X151678571Y-112021428D01*
X151678571Y-112092857D01*
X151654761Y-112140476D01*
X151630952Y-112164285D01*
X151583333Y-112188095D01*
X151392857Y-112188095D01*
X151869047Y-111973809D02*
X151892857Y-111950000D01*
X151940476Y-111926190D01*
X152059523Y-111926190D01*
X152107142Y-111950000D01*
X152130952Y-111973809D01*
X152154761Y-112021428D01*
X152154761Y-112069047D01*
X152130952Y-112140476D01*
X151845238Y-112426190D01*
X152154761Y-112426190D01*
X152392857Y-112426190D02*
X152488095Y-112426190D01*
X152535714Y-112402380D01*
X152559523Y-112378571D01*
X152607142Y-112307142D01*
X152630952Y-112211904D01*
X152630952Y-112021428D01*
X152607142Y-111973809D01*
X152583333Y-111950000D01*
X152535714Y-111926190D01*
X152440476Y-111926190D01*
X152392857Y-111950000D01*
X152369047Y-111973809D01*
X152345238Y-112021428D01*
X152345238Y-112140476D01*
X152369047Y-112188095D01*
X152392857Y-112211904D01*
X152440476Y-112235714D01*
X152535714Y-112235714D01*
X152583333Y-112211904D01*
X152607142Y-112188095D01*
X152630952Y-112140476D01*
G04 #@! TO.C,C1*
X149228571Y-105583333D02*
X149252380Y-105607142D01*
X149276190Y-105678571D01*
X149276190Y-105726190D01*
X149252380Y-105797619D01*
X149204761Y-105845238D01*
X149157142Y-105869047D01*
X149061904Y-105892857D01*
X148990476Y-105892857D01*
X148895238Y-105869047D01*
X148847619Y-105845238D01*
X148800000Y-105797619D01*
X148776190Y-105726190D01*
X148776190Y-105678571D01*
X148800000Y-105607142D01*
X148823809Y-105583333D01*
X149276190Y-105107142D02*
X149276190Y-105392857D01*
X149276190Y-105250000D02*
X148776190Y-105250000D01*
X148847619Y-105297619D01*
X148895238Y-105345238D01*
X148919047Y-105392857D01*
G04 #@! TO.C,J7*
X101626190Y-104666666D02*
X101983333Y-104666666D01*
X102054761Y-104690476D01*
X102102380Y-104738095D01*
X102126190Y-104809523D01*
X102126190Y-104857142D01*
X101626190Y-104476190D02*
X101626190Y-104142857D01*
X102126190Y-104357142D01*
G04 #@! TO.C,J9*
X102733333Y-135926190D02*
X102733333Y-136283333D01*
X102709523Y-136354761D01*
X102661904Y-136402380D01*
X102590476Y-136426190D01*
X102542857Y-136426190D01*
X102995238Y-136426190D02*
X103090476Y-136426190D01*
X103138095Y-136402380D01*
X103161904Y-136378571D01*
X103209523Y-136307142D01*
X103233333Y-136211904D01*
X103233333Y-136021428D01*
X103209523Y-135973809D01*
X103185714Y-135950000D01*
X103138095Y-135926190D01*
X103042857Y-135926190D01*
X102995238Y-135950000D01*
X102971428Y-135973809D01*
X102947619Y-136021428D01*
X102947619Y-136140476D01*
X102971428Y-136188095D01*
X102995238Y-136211904D01*
X103042857Y-136235714D01*
X103138095Y-136235714D01*
X103185714Y-136211904D01*
X103209523Y-136188095D01*
X103233333Y-136140476D01*
G04 #@! TO.C,J5*
X111633333Y-102526190D02*
X111633333Y-102883333D01*
X111609523Y-102954761D01*
X111561904Y-103002380D01*
X111490476Y-103026190D01*
X111442857Y-103026190D01*
X112109523Y-102526190D02*
X111871428Y-102526190D01*
X111847619Y-102764285D01*
X111871428Y-102740476D01*
X111919047Y-102716666D01*
X112038095Y-102716666D01*
X112085714Y-102740476D01*
X112109523Y-102764285D01*
X112133333Y-102811904D01*
X112133333Y-102930952D01*
X112109523Y-102978571D01*
X112085714Y-103002380D01*
X112038095Y-103026190D01*
X111919047Y-103026190D01*
X111871428Y-103002380D01*
X111847619Y-102978571D01*
G04 #@! TO.C,J1*
X151226190Y-100966666D02*
X151583333Y-100966666D01*
X151654761Y-100990476D01*
X151702380Y-101038095D01*
X151726190Y-101109523D01*
X151726190Y-101157142D01*
X151726190Y-100466666D02*
X151726190Y-100752380D01*
X151726190Y-100609523D02*
X151226190Y-100609523D01*
X151297619Y-100657142D01*
X151345238Y-100704761D01*
X151369047Y-100752380D01*
G04 #@! TO.C,J10*
X158495238Y-118026190D02*
X158495238Y-118383333D01*
X158471428Y-118454761D01*
X158423809Y-118502380D01*
X158352380Y-118526190D01*
X158304761Y-118526190D01*
X158995238Y-118526190D02*
X158709523Y-118526190D01*
X158852380Y-118526190D02*
X158852380Y-118026190D01*
X158804761Y-118097619D01*
X158757142Y-118145238D01*
X158709523Y-118169047D01*
X159304761Y-118026190D02*
X159352380Y-118026190D01*
X159400000Y-118050000D01*
X159423809Y-118073809D01*
X159447619Y-118121428D01*
X159471428Y-118216666D01*
X159471428Y-118335714D01*
X159447619Y-118430952D01*
X159423809Y-118478571D01*
X159400000Y-118502380D01*
X159352380Y-118526190D01*
X159304761Y-118526190D01*
X159257142Y-118502380D01*
X159233333Y-118478571D01*
X159209523Y-118430952D01*
X159185714Y-118335714D01*
X159185714Y-118216666D01*
X159209523Y-118121428D01*
X159233333Y-118073809D01*
X159257142Y-118050000D01*
X159304761Y-118026190D01*
G04 #@! TO.C,SW5*
X149133333Y-100902380D02*
X149204761Y-100926190D01*
X149323809Y-100926190D01*
X149371428Y-100902380D01*
X149395238Y-100878571D01*
X149419047Y-100830952D01*
X149419047Y-100783333D01*
X149395238Y-100735714D01*
X149371428Y-100711904D01*
X149323809Y-100688095D01*
X149228571Y-100664285D01*
X149180952Y-100640476D01*
X149157142Y-100616666D01*
X149133333Y-100569047D01*
X149133333Y-100521428D01*
X149157142Y-100473809D01*
X149180952Y-100450000D01*
X149228571Y-100426190D01*
X149347619Y-100426190D01*
X149419047Y-100450000D01*
X149585714Y-100426190D02*
X149704761Y-100926190D01*
X149800000Y-100569047D01*
X149895238Y-100926190D01*
X150014285Y-100426190D01*
X150442857Y-100426190D02*
X150204761Y-100426190D01*
X150180952Y-100664285D01*
X150204761Y-100640476D01*
X150252380Y-100616666D01*
X150371428Y-100616666D01*
X150419047Y-100640476D01*
X150442857Y-100664285D01*
X150466666Y-100711904D01*
X150466666Y-100830952D01*
X150442857Y-100878571D01*
X150419047Y-100902380D01*
X150371428Y-100926190D01*
X150252380Y-100926190D01*
X150204761Y-100902380D01*
X150180952Y-100878571D01*
G04 #@! TO.C,U1*
X141519047Y-110726190D02*
X141519047Y-111130952D01*
X141542857Y-111178571D01*
X141566666Y-111202380D01*
X141614285Y-111226190D01*
X141709523Y-111226190D01*
X141757142Y-111202380D01*
X141780952Y-111178571D01*
X141804761Y-111130952D01*
X141804761Y-110726190D01*
X142304761Y-111226190D02*
X142019047Y-111226190D01*
X142161904Y-111226190D02*
X142161904Y-110726190D01*
X142114285Y-110797619D01*
X142066666Y-110845238D01*
X142019047Y-110869047D01*
G04 #@! TO.C,U2*
X101219047Y-110726190D02*
X101219047Y-111130952D01*
X101242857Y-111178571D01*
X101266666Y-111202380D01*
X101314285Y-111226190D01*
X101409523Y-111226190D01*
X101457142Y-111202380D01*
X101480952Y-111178571D01*
X101504761Y-111130952D01*
X101504761Y-110726190D01*
X101719047Y-110773809D02*
X101742857Y-110750000D01*
X101790476Y-110726190D01*
X101909523Y-110726190D01*
X101957142Y-110750000D01*
X101980952Y-110773809D01*
X102004761Y-110821428D01*
X102004761Y-110869047D01*
X101980952Y-110940476D01*
X101695238Y-111226190D01*
X102004761Y-111226190D01*
G04 #@! TO.C,Q1*
X142752380Y-122773809D02*
X142704761Y-122750000D01*
X142657142Y-122702380D01*
X142585714Y-122630952D01*
X142538095Y-122607142D01*
X142490476Y-122607142D01*
X142514285Y-122726190D02*
X142466666Y-122702380D01*
X142419047Y-122654761D01*
X142395238Y-122559523D01*
X142395238Y-122392857D01*
X142419047Y-122297619D01*
X142466666Y-122250000D01*
X142514285Y-122226190D01*
X142609523Y-122226190D01*
X142657142Y-122250000D01*
X142704761Y-122297619D01*
X142728571Y-122392857D01*
X142728571Y-122559523D01*
X142704761Y-122654761D01*
X142657142Y-122702380D01*
X142609523Y-122726190D01*
X142514285Y-122726190D01*
X143204761Y-122726190D02*
X142919047Y-122726190D01*
X143061904Y-122726190D02*
X143061904Y-122226190D01*
X143014285Y-122297619D01*
X142966666Y-122345238D01*
X142919047Y-122369047D01*
G04 #@! TO.C,Q2*
X142652380Y-128173809D02*
X142604761Y-128150000D01*
X142557142Y-128102380D01*
X142485714Y-128030952D01*
X142438095Y-128007142D01*
X142390476Y-128007142D01*
X142414285Y-128126190D02*
X142366666Y-128102380D01*
X142319047Y-128054761D01*
X142295238Y-127959523D01*
X142295238Y-127792857D01*
X142319047Y-127697619D01*
X142366666Y-127650000D01*
X142414285Y-127626190D01*
X142509523Y-127626190D01*
X142557142Y-127650000D01*
X142604761Y-127697619D01*
X142628571Y-127792857D01*
X142628571Y-127959523D01*
X142604761Y-128054761D01*
X142557142Y-128102380D01*
X142509523Y-128126190D01*
X142414285Y-128126190D01*
X142819047Y-127673809D02*
X142842857Y-127650000D01*
X142890476Y-127626190D01*
X143009523Y-127626190D01*
X143057142Y-127650000D01*
X143080952Y-127673809D01*
X143104761Y-127721428D01*
X143104761Y-127769047D01*
X143080952Y-127840476D01*
X142795238Y-128126190D01*
X143104761Y-128126190D01*
G04 #@! TO.C,Q3*
X142952380Y-139773809D02*
X142904761Y-139750000D01*
X142857142Y-139702380D01*
X142785714Y-139630952D01*
X142738095Y-139607142D01*
X142690476Y-139607142D01*
X142714285Y-139726190D02*
X142666666Y-139702380D01*
X142619047Y-139654761D01*
X142595238Y-139559523D01*
X142595238Y-139392857D01*
X142619047Y-139297619D01*
X142666666Y-139250000D01*
X142714285Y-139226190D01*
X142809523Y-139226190D01*
X142857142Y-139250000D01*
X142904761Y-139297619D01*
X142928571Y-139392857D01*
X142928571Y-139559523D01*
X142904761Y-139654761D01*
X142857142Y-139702380D01*
X142809523Y-139726190D01*
X142714285Y-139726190D01*
X143095238Y-139226190D02*
X143404761Y-139226190D01*
X143238095Y-139416666D01*
X143309523Y-139416666D01*
X143357142Y-139440476D01*
X143380952Y-139464285D01*
X143404761Y-139511904D01*
X143404761Y-139630952D01*
X143380952Y-139678571D01*
X143357142Y-139702380D01*
X143309523Y-139726190D01*
X143166666Y-139726190D01*
X143119047Y-139702380D01*
X143095238Y-139678571D01*
G04 #@! TO.C,U3*
X142526190Y-116230952D02*
X142930952Y-116230952D01*
X142978571Y-116207142D01*
X143002380Y-116183333D01*
X143026190Y-116135714D01*
X143026190Y-116040476D01*
X143002380Y-115992857D01*
X142978571Y-115969047D01*
X142930952Y-115945238D01*
X142526190Y-115945238D01*
X142526190Y-115754761D02*
X142526190Y-115445238D01*
X142716666Y-115611904D01*
X142716666Y-115540476D01*
X142740476Y-115492857D01*
X142764285Y-115469047D01*
X142811904Y-115445238D01*
X142930952Y-115445238D01*
X142978571Y-115469047D01*
X143002380Y-115492857D01*
X143026190Y-115540476D01*
X143026190Y-115683333D01*
X143002380Y-115730952D01*
X142978571Y-115754761D01*
G04 #@! TD*
M02*
